<svg width="1440" height="262" viewBox="0 0 1440 262" fill="none" xmlns="http://www.w3.org/2000/svg">
<g clip-path="url(#clip0_166_270)">
<path d="M1320.44 209.946C1320.44 211.306 1321.58 212.409 1323 212.409C1324.41 212.409 1325.56 211.307 1325.56 209.947C1325.56 208.587 1324.41 207.484 1323 207.484C1321.58 207.484 1320.44 208.586 1320.44 209.946Z" fill="#FAEBDA"/>
<path d="M1308.64 214.871C1308.64 216.231 1309.78 217.334 1311.2 217.334C1312.61 217.334 1313.76 216.232 1313.76 214.872C1313.76 213.512 1312.61 212.41 1311.2 212.409C1309.78 212.409 1308.64 213.512 1308.64 214.871Z" fill="#FAEBDA"/>
<path d="M1407.51 197.633C1407.51 198.992 1408.66 200.095 1410.07 200.095C1411.49 200.096 1412.63 198.993 1412.63 197.633C1412.63 196.273 1411.49 195.171 1410.07 195.171C1408.66 195.17 1407.51 196.273 1407.51 197.633Z" fill="#FAEBDA"/>
<path d="M1407.51 209.946C1407.51 211.306 1408.66 212.408 1410.07 212.409C1411.49 212.409 1412.63 211.306 1412.63 209.947C1412.63 208.587 1411.49 207.484 1410.07 207.484C1408.66 207.484 1407.51 208.586 1407.51 209.946Z" fill="#FAEBDA"/>
<path d="M1402.39 232.11C1402.39 233.47 1403.53 234.573 1404.95 234.573C1406.36 234.573 1407.51 233.471 1407.51 232.111C1407.51 230.751 1406.36 229.648 1404.95 229.648C1403.54 229.648 1402.39 230.75 1402.39 232.11Z" fill="#FAEBDA"/>
<path d="M1371.66 197.632C1371.66 198.992 1372.8 200.095 1374.22 200.095C1375.63 200.095 1376.78 198.993 1376.78 197.633C1376.78 196.273 1375.63 195.171 1374.22 195.17C1372.8 195.17 1371.66 196.273 1371.66 197.632Z" fill="#FAEBDA"/>
<path d="M1394.71 202.558C1394.71 203.918 1395.85 205.02 1397.27 205.021C1398.68 205.021 1399.83 203.918 1399.83 202.559C1399.83 201.199 1398.68 200.096 1397.27 200.096C1395.85 200.096 1394.71 201.198 1394.71 202.558Z" fill="#FAEBDA"/>
<path d="M1394.71 217.334C1394.71 218.694 1395.85 219.797 1397.27 219.797C1398.68 219.797 1399.83 218.694 1399.83 217.335C1399.83 215.975 1398.68 214.872 1397.27 214.872C1395.85 214.872 1394.71 215.974 1394.71 217.334Z" fill="#FAEBDA"/>
<path d="M1363.97 202.558C1363.97 203.917 1365.12 205.02 1366.53 205.02C1367.95 205.021 1369.09 203.918 1369.1 202.558C1369.1 201.199 1367.95 200.096 1366.54 200.096C1365.12 200.095 1363.97 201.198 1363.97 202.558Z" fill="#FAEBDA"/>
<path d="M1381.9 212.409C1381.9 213.769 1383.05 214.871 1384.46 214.871C1385.87 214.872 1387.02 213.769 1387.02 212.409C1387.02 211.05 1385.88 209.947 1384.46 209.947C1383.05 209.947 1381.9 211.049 1381.9 212.409Z" fill="#FAEBDA"/>
<path d="M1370.63 219.796C1370.63 221.156 1371.78 222.259 1373.19 222.259C1374.61 222.259 1375.76 221.157 1375.76 219.797C1375.76 218.437 1374.61 217.335 1373.2 217.334C1371.78 217.334 1370.63 218.437 1370.63 219.796Z" fill="#FAEBDA"/>
<path d="M1383.18 230.88C1383.18 232.24 1384.33 233.343 1385.74 233.343C1387.15 233.343 1388.3 232.241 1388.3 230.881C1388.3 229.521 1387.15 228.418 1385.74 228.418C1384.33 228.418 1383.18 229.52 1383.18 230.88Z" fill="#FAEBDA"/>
<path d="M1296.11 245.579L1301.74 242.444L1300.41 222.253L1293.24 222.253L1295.37 238.657C1295.54 240.004 1294.54 241.233 1293.14 241.401C1293.04 241.416 1292.93 241.422 1292.82 241.421C1291.53 241.421 1290.44 240.496 1290.28 239.264L1287.96 221.313L1287.96 221.314C1285.57 220.261 1283.7 218.365 1282.73 216.019C1281.77 213.674 1281.77 211.059 1282.76 208.72C1283.75 206.38 1285.63 204.497 1288.02 203.459C1287.45 202.42 1287.16 201.265 1287.15 200.091C1287.16 198.267 1287.87 196.512 1289.14 195.162C1290.42 193.811 1292.17 192.964 1294.05 192.781C1293.73 191.971 1293.56 191.111 1293.56 190.242C1293.56 188.284 1294.37 186.404 1295.81 185.019C1297.25 183.635 1299.2 182.856 1301.24 182.857L1302.78 182.857C1303.37 180.078 1304.94 177.581 1307.23 175.787C1309.52 173.993 1312.38 173.012 1315.33 173.009L1320.45 173.01C1321.86 173.01 1323.01 174.113 1323.01 175.472C1323 178.193 1322.04 180.831 1320.29 182.968C1322.58 183.267 1324.6 184.556 1325.78 186.469C1326.96 188.382 1327.17 190.707 1326.35 192.785C1328.24 192.969 1329.99 193.816 1331.26 195.168C1332.53 196.518 1333.24 198.273 1333.25 200.097C1333.24 201.272 1332.93 202.427 1332.36 203.465C1334.75 204.503 1336.64 206.388 1337.62 208.728C1338.6 211.067 1338.61 213.681 1337.64 216.027C1336.67 218.372 1334.8 220.267 1332.41 221.32L1331.84 225.752L1340.47 220.964C1342.85 219.64 1345.43 218.662 1348.11 218.061C1343.27 210.552 1342.18 201.35 1345.15 192.988C1348.12 184.626 1354.83 177.982 1363.44 174.885C1372.04 171.787 1381.64 172.563 1389.59 176.998C1398.06 172.272 1408.37 171.72 1417.34 175.513C1426.31 179.306 1432.86 186.987 1434.96 196.187C1437.06 205.387 1434.47 215 1427.99 222.062L1427.99 229.656C1427.99 231.016 1426.84 232.118 1425.43 232.118C1424.01 232.118 1422.87 231.015 1422.87 229.655L1422.87 221.111C1422.87 220.482 1423.12 219.876 1423.57 219.419C1429.35 213.53 1431.75 205.28 1429.98 197.36C1428.21 189.44 1422.49 182.868 1414.7 179.789C1406.91 176.709 1398.04 177.517 1390.99 181.948C1390.14 182.484 1389.04 182.483 1388.19 181.948C1381.41 177.675 1372.94 176.742 1365.33 179.435C1357.73 182.126 1351.91 188.124 1349.64 195.6C1347.36 203.077 1348.91 211.147 1353.81 217.349C1356.37 217.294 1358.93 217.573 1361.41 218.178L1359.33 216.043C1356.13 212.798 1354.19 208.603 1353.81 204.151C1353.43 199.699 1354.64 195.256 1357.25 191.555C1357.62 190.993 1358.21 190.601 1358.89 190.466C1359.56 190.329 1360.27 190.464 1360.84 190.836C1361.42 191.209 1361.81 191.789 1361.93 192.444C1362.05 193.099 1361.89 193.774 1361.49 194.313C1359.54 197.089 1358.63 200.419 1358.92 203.758C1359.2 207.095 1360.66 210.239 1363.06 212.67L1365.85 215.529C1366.29 215.986 1366.54 216.589 1366.53 217.213L1366.53 219.922C1371.74 222.26 1376.08 226.087 1378.95 230.881C1380.17 232.911 1380.74 235.237 1380.61 237.579C1391.39 236.259 1402.34 237.332 1412.62 240.714L1412.63 217.219C1412.63 216.594 1412.88 215.991 1413.32 215.535L1416.11 212.676C1418.88 209.868 1420.39 206.128 1420.31 202.261C1420.23 198.395 1418.58 194.713 1415.71 192.006C1412.84 189.301 1408.97 187.788 1404.95 187.794C1401.98 187.791 1399.07 188.628 1396.59 190.203L1390.98 193.699L1390.98 193.699C1390.13 194.227 1389.04 194.227 1388.19 193.699L1382.56 190.194C1378.3 187.538 1372.96 187.069 1368.27 188.941C1366.97 189.471 1365.46 188.884 1364.91 187.631C1364.36 186.377 1364.97 184.932 1366.28 184.403C1372.54 181.908 1379.67 182.532 1385.36 186.07L1389.59 188.698L1393.79 186.081C1397.1 183.981 1400.98 182.864 1404.95 182.869C1410.31 182.863 1415.46 184.881 1419.29 188.489C1423.12 192.097 1425.33 197.007 1425.43 202.161C1425.53 207.315 1423.53 212.304 1419.84 216.05L1417.75 218.195L1417.74 244.255C1417.73 244.457 1417.69 244.653 1417.62 244.845C1417.61 244.956 1417.58 245.067 1417.56 245.177L1417.56 245.191L1417.54 245.23L1416.67 247.286L1416.67 247.287C1418.79 247.619 1420.87 248.181 1422.87 248.962L1422.87 239.504C1422.87 238.144 1424.01 237.042 1425.43 237.042C1426.84 237.042 1427.99 238.145 1427.99 239.505L1427.99 251.57C1429.56 252.578 1431.02 253.734 1432.36 255.018C1433.36 255.98 1433.36 257.539 1432.36 258.499L1431.94 258.896C1434.36 262.056 1435.66 265.872 1435.67 269.792C1435.7 274.845 1433.54 279.684 1429.72 283.152C1428.84 283.947 1427.51 284.05 1426.52 283.398L1421.26 279.95C1420.66 279.6 1420.23 279.027 1420.08 278.367C1419.93 277.706 1420.07 277.015 1420.47 276.456C1420.87 275.897 1421.48 275.52 1422.18 275.412C1422.87 275.305 1423.58 275.476 1424.14 275.887L1427.57 278.131C1428.61 276.853 1429.39 275.401 1429.87 273.85C1428.77 273.574 1427.99 272.615 1427.98 271.515C1427.99 270.185 1429.09 269.101 1430.48 269.065C1430.35 266.705 1429.58 264.416 1428.25 262.432L1416.37 273.846L1416.37 273.845C1413.02 277.093 1408.44 278.913 1403.68 278.899L1403.21 278.899C1402.66 280.294 1401.68 281.494 1400.4 282.341C1399.13 283.188 1397.61 283.641 1396.06 283.64L1383.08 283.638C1381.53 283.649 1380.01 283.199 1378.73 282.352C1377.44 281.503 1376.47 280.296 1375.92 278.895L1375.46 278.895C1371.59 278.896 1367.83 277.685 1364.74 275.447L1352.62 283.379C1351.63 284.03 1350.3 283.928 1349.42 283.132C1345.6 279.667 1343.45 274.831 1343.48 269.781C1343.48 267.919 1343.78 266.068 1344.36 264.29L1326.49 274.211C1325.26 274.891 1323.7 274.487 1322.99 273.308C1322.28 272.13 1322.7 270.624 1323.93 269.944L1346.21 257.578L1346.21 257.579C1345.87 256.682 1346.09 255.674 1346.79 254.993C1351.05 250.901 1356.55 248.204 1362.49 247.283L1361.6 245.172C1361.34 244.567 1361.34 243.885 1361.6 243.279C1361.86 242.676 1362.37 242.2 1363 241.957C1366.99 240.426 1371.11 239.243 1375.32 238.42C1375.7 236.688 1375.41 234.882 1374.5 233.343C1370.65 226.941 1363.73 222.806 1356.06 222.32L1360.51 229.737L1360.51 229.737C1360.86 230.302 1360.95 230.977 1360.78 231.611C1360.6 232.245 1360.17 232.786 1359.58 233.113C1358.99 233.442 1358.29 233.53 1357.63 233.357C1356.97 233.186 1356.41 232.768 1356.08 232.198L1350.35 222.656C1347.77 223.104 1345.29 223.975 1343.02 225.228L1336.36 228.92L1342.76 239.585L1342.76 239.586C1343.47 240.761 1345.04 241.164 1346.26 240.485C1347.48 239.805 1347.9 238.299 1347.2 237.122L1344.27 232.251C1343.57 231.072 1343.99 229.567 1345.21 228.886C1346.44 228.206 1348 228.611 1348.71 229.789L1351.63 234.662C1353 236.95 1353 239.768 1351.63 242.054C1350.26 244.34 1347.72 245.747 1344.97 245.746C1342.22 245.745 1339.69 244.335 1338.32 242.048L1331.92 231.385L1327.48 233.847L1333.88 244.509C1335.25 246.797 1335.25 249.615 1333.88 251.901C1332.5 254.187 1329.96 255.594 1327.22 255.593C1324.47 255.592 1321.93 254.183 1320.56 251.895L1314.16 241.232L1300.85 248.618L1307.25 259.282C1307.96 260.45 1309.52 260.847 1310.73 260.17C1311.95 259.493 1312.38 257.998 1311.68 256.821L1308.81 252.033L1308.81 252.034C1308.11 250.857 1308.53 249.361 1309.75 248.685C1310.97 248.008 1312.53 248.404 1313.24 249.572L1316.12 254.362L1316.12 254.361C1317.49 256.649 1317.49 259.466 1316.11 261.753C1314.74 264.039 1312.2 265.447 1309.45 265.445C1306.71 265.444 1304.17 264.034 1302.8 261.746L1296.47 251.21C1295.06 252.213 1293.77 253.369 1292.63 254.656L1298.41 264.198C1298.76 264.765 1298.85 265.439 1298.68 266.074C1298.5 266.708 1298.07 267.249 1297.48 267.576C1296.89 267.904 1296.19 267.992 1295.53 267.82C1294.87 267.648 1294.31 267.231 1293.97 266.66L1289.52 259.245L1289.52 259.246C1286.12 265.88 1286.38 273.709 1290.23 280.116C1291.24 281.815 1292.92 283.055 1294.89 283.564C1296.86 284.072 1298.96 283.807 1300.72 282.826L1315.07 274.873C1316.29 274.192 1317.86 274.597 1318.56 275.776C1319.27 276.953 1318.85 278.46 1317.63 279.139L1303.28 287.093L1303.28 287.094C1300.34 288.726 1296.85 289.168 1293.57 288.323C1290.29 287.477 1287.49 285.413 1285.79 282.586C1282.06 276.364 1281.04 268.969 1282.98 262.027C1284.91 255.087 1289.64 249.169 1296.11 245.579L1296.11 245.579ZM1351.57 278.122L1360.89 272.027L1350.91 262.422C1349.56 264.422 1348.79 266.73 1348.67 269.109C1349.28 268.526 1350.14 268.273 1350.98 268.432C1351.82 268.593 1352.52 269.145 1352.85 269.904C1353.18 270.665 1353.09 271.532 1352.61 272.216C1352.14 272.9 1351.34 273.311 1350.48 273.31C1349.94 273.299 1349.42 273.12 1349 272.798C1349.43 274.736 1350.31 276.556 1351.57 278.122L1351.57 278.122ZM1352.32 256.825L1366.4 270.37L1366.4 270.37C1368.39 272.273 1370.99 273.485 1373.78 273.818L1368.32 260.966L1368.32 260.967C1367.71 261.539 1366.84 261.783 1366.01 261.616C1365.17 261.45 1364.48 260.895 1364.16 260.135C1363.83 259.377 1363.93 258.514 1364.4 257.832C1364.88 257.152 1365.67 256.744 1366.53 256.743L1364.5 251.971C1360.04 252.444 1355.82 254.128 1352.32 256.825L1352.32 256.825ZM1380.64 276.992C1380.98 278.018 1381.96 278.716 1383.08 278.716L1396.06 278.717C1397.25 278.697 1398.28 277.914 1398.57 276.805L1403.51 265.205C1404.04 263.947 1405.54 263.342 1406.85 263.857C1408.15 264.37 1408.78 265.808 1408.25 267.068L1405.37 273.817C1408.16 273.484 1410.76 272.273 1412.75 270.37L1416.85 266.431C1416.04 266.142 1415.43 265.474 1415.25 264.659C1415.06 263.843 1415.32 262.994 1415.93 262.402C1416.54 261.812 1417.43 261.562 1418.28 261.739C1419.12 261.915 1419.82 262.495 1420.12 263.277L1426.83 256.834C1423.34 254.136 1419.12 252.449 1414.67 251.969L1412.04 258.159C1411.79 258.772 1411.29 259.264 1410.66 259.523C1410.03 259.781 1409.32 259.787 1408.68 259.537C1408.05 259.287 1407.55 258.805 1407.29 258.195C1407.03 257.586 1407.03 256.901 1407.3 256.295L1411.82 245.658C1397.44 240.71 1381.71 240.708 1367.33 245.653L1380.64 276.992ZM1306.7 239.702L1313.95 235.68L1314.82 222.255L1305.55 222.254L1306.7 239.702ZM1315.33 177.935C1313.74 177.937 1312.19 178.41 1310.89 179.292C1309.6 180.173 1308.61 181.419 1308.08 182.858L1310.21 182.859C1311.79 182.857 1313.34 182.383 1314.64 181.502C1315.94 180.62 1316.92 179.374 1317.45 177.935L1315.33 177.935ZM1319.17 187.784L1301.24 187.782C1299.83 187.782 1298.68 188.884 1298.68 190.244C1298.68 191.604 1299.83 192.706 1301.24 192.707L1319.17 192.709C1320.58 192.709 1321.73 191.607 1321.73 190.247C1321.73 188.887 1320.58 187.784 1319.17 187.784V187.784ZM1325.57 197.634L1294.84 197.63C1293.42 197.63 1292.28 198.733 1292.28 200.092C1292.28 201.452 1293.42 202.555 1294.84 202.555L1325.57 202.559C1326.98 202.559 1328.13 201.457 1328.13 200.097C1328.13 198.737 1326.98 197.634 1325.57 197.634V197.634ZM1328.13 207.484L1297.32 207.48C1298.47 207.912 1299.13 209.068 1298.9 210.231C1298.67 211.392 1297.62 212.234 1296.39 212.234C1295.16 212.234 1294.1 211.392 1293.87 210.23C1293.64 209.067 1294.31 207.912 1295.45 207.48L1292.27 207.479C1290.44 207.479 1288.75 208.418 1287.84 209.941C1286.92 211.465 1286.92 213.342 1287.84 214.866C1288.75 216.389 1290.44 217.328 1292.27 217.329L1328.12 217.333C1329.95 217.333 1331.64 216.395 1332.56 214.871C1333.47 213.348 1333.47 211.47 1332.56 209.947C1331.65 208.423 1329.96 207.484 1328.12 207.484L1328.13 207.484ZM1327.13 222.257L1319.96 222.257L1319.28 232.726L1326.28 228.84L1327.13 222.257ZM1325.05 249.428C1325.75 250.607 1327.32 251.01 1328.54 250.33C1329.77 249.65 1330.19 248.144 1329.48 246.967L1323.08 236.304L1318.64 238.766L1325.05 249.428Z" fill="#FAEBDA"/>
<path d="M1389.58 249.349C1389.58 250.709 1390.73 251.811 1392.14 251.811C1393.56 251.812 1394.7 250.709 1394.7 249.349C1394.7 247.99 1393.56 246.887 1392.14 246.887C1390.73 246.886 1389.58 247.989 1389.58 249.349Z" fill="#FAEBDA"/>
<path d="M1397.46 259.014C1397.46 260.373 1398.6 261.476 1400.02 261.476C1401.43 261.476 1402.58 260.374 1402.58 259.014C1402.58 257.654 1401.43 256.552 1400.02 256.551C1398.61 256.551 1397.46 257.654 1397.46 259.014Z" fill="#FAEBDA"/>
<path d="M1382.71 259.073C1381.37 259.501 1379.92 258.803 1379.47 257.514L1376.91 250.126C1376.47 248.834 1377.19 247.438 1378.54 247.008C1379.88 246.579 1381.33 247.278 1381.78 248.57L1384.34 255.958C1384.55 256.579 1384.5 257.256 1384.19 257.841C1383.89 258.424 1383.35 258.868 1382.71 259.073L1382.71 259.073Z" fill="#FAEBDA"/>
<path d="M694.436 209.946C694.436 211.306 695.582 212.409 696.996 212.409C698.41 212.409 699.557 211.307 699.557 209.947C699.557 208.587 698.411 207.484 696.997 207.484C695.583 207.484 694.436 208.586 694.436 209.946Z" fill="#FAEBDA"/>
<path d="M682.637 214.871C682.637 216.231 683.783 217.334 685.197 217.334C686.611 217.334 687.758 216.232 687.758 214.872C687.759 213.512 686.612 212.41 685.198 212.409C683.784 212.409 682.637 213.512 682.637 214.871Z" fill="#FAEBDA"/>
<path d="M781.511 197.633C781.511 198.992 782.657 200.095 784.071 200.095C785.485 200.096 786.632 198.993 786.632 197.633C786.633 196.273 785.486 195.171 784.072 195.171C782.658 195.17 781.511 196.273 781.511 197.633Z" fill="#FAEBDA"/>
<path d="M781.511 209.946C781.511 211.306 782.657 212.408 784.071 212.409C785.485 212.409 786.632 211.306 786.632 209.947C786.633 208.587 785.486 207.484 784.072 207.484C782.658 207.484 781.511 208.586 781.511 209.946Z" fill="#FAEBDA"/>
<path d="M776.388 232.11C776.388 233.47 777.534 234.573 778.948 234.573C780.362 234.573 781.509 233.471 781.509 232.111C781.51 230.751 780.363 229.648 778.949 229.648C777.535 229.648 776.388 230.75 776.388 232.11Z" fill="#FAEBDA"/>
<path d="M745.656 197.632C745.656 198.992 746.803 200.095 748.217 200.095C749.631 200.095 750.778 198.993 750.778 197.633C750.778 196.273 749.632 195.171 748.218 195.17C746.804 195.17 745.657 196.273 745.656 197.632Z" fill="#FAEBDA"/>
<path d="M768.705 202.558C768.705 203.918 769.851 205.02 771.266 205.021C772.68 205.021 773.826 203.918 773.827 202.559C773.827 201.199 772.681 200.096 771.266 200.096C769.852 200.096 768.706 201.198 768.705 202.558Z" fill="#FAEBDA"/>
<path d="M768.705 217.334C768.705 218.694 769.851 219.797 771.266 219.797C772.68 219.797 773.826 218.694 773.827 217.335C773.827 215.975 772.681 214.872 771.266 214.872C769.852 214.872 768.706 215.974 768.705 217.334Z" fill="#FAEBDA"/>
<path d="M737.974 202.558C737.974 203.917 739.12 205.02 740.534 205.02C741.948 205.021 743.095 203.918 743.095 202.558C743.095 201.199 741.949 200.096 740.535 200.096C739.121 200.095 737.974 201.198 737.974 202.558Z" fill="#FAEBDA"/>
<path d="M755.901 212.409C755.9 213.769 757.047 214.871 758.461 214.871C759.875 214.872 761.022 213.769 761.022 212.409C761.022 211.05 759.876 209.947 758.462 209.947C757.048 209.947 755.901 211.049 755.901 212.409Z" fill="#FAEBDA"/>
<path d="M744.634 219.796C744.634 221.156 745.78 222.259 747.194 222.259C748.608 222.259 749.755 221.157 749.755 219.797C749.756 218.437 748.609 217.335 747.195 217.334C745.781 217.334 744.634 218.437 744.634 219.796Z" fill="#FAEBDA"/>
<path d="M757.179 230.88C757.179 232.24 758.325 233.343 759.739 233.343C761.153 233.343 762.3 232.241 762.3 230.881C762.301 229.521 761.154 228.418 759.74 228.418C758.326 228.418 757.179 229.52 757.179 230.88Z" fill="#FAEBDA"/>
<path d="M670.107 245.579L675.741 242.444L674.411 222.253L667.241 222.253L669.365 238.657C669.539 240.004 668.544 241.233 667.142 241.401C667.036 241.416 666.93 241.422 666.822 241.421C665.532 241.421 664.442 240.496 664.283 239.264L661.958 221.313L661.958 221.314C659.573 220.261 657.702 218.365 656.734 216.019C655.766 213.674 655.775 211.059 656.761 208.72C657.745 206.38 659.631 204.497 662.024 203.459C661.455 202.42 661.156 201.265 661.153 200.091C661.16 198.267 661.868 196.512 663.143 195.162C664.417 193.811 666.166 192.964 668.054 192.781C667.733 191.971 667.565 191.111 667.557 190.242C667.557 188.284 668.367 186.404 669.808 185.019C671.248 183.635 673.203 182.856 675.24 182.857L676.777 182.857C677.372 180.078 678.944 177.581 681.231 175.787C683.517 173.993 686.376 173.012 689.326 173.009L694.448 173.01C695.862 173.01 697.009 174.113 697.008 175.472C696.997 178.193 696.039 180.831 694.287 182.968C696.579 183.267 698.604 184.556 699.784 186.469C700.965 188.382 701.173 190.707 700.349 192.785C702.236 192.969 703.985 193.816 705.258 195.168C706.533 196.518 707.24 198.273 707.246 200.097C707.238 201.272 706.934 202.427 706.36 203.465C708.752 204.503 710.636 206.388 711.62 208.728C712.604 211.067 712.612 213.681 711.643 216.027C710.674 218.372 708.801 220.267 706.415 221.32L705.838 225.752L714.469 220.964C716.855 219.64 719.431 218.662 722.114 218.061C717.272 210.552 716.184 201.35 719.152 192.988C722.12 184.626 728.83 177.982 737.436 174.885C746.043 171.787 755.64 172.563 763.588 176.998C772.063 172.272 782.375 171.72 791.342 175.513C800.31 179.306 806.856 186.987 808.96 196.187C811.065 205.387 808.475 215 801.99 222.062L801.989 229.656C801.989 231.016 800.842 232.118 799.428 232.118C798.014 232.118 796.867 231.015 796.867 229.655L796.869 221.111C796.869 220.482 797.12 219.876 797.569 219.419C803.354 213.53 805.752 205.28 803.98 197.36C802.208 189.44 796.493 182.868 788.702 179.789C780.909 176.709 772.04 177.517 764.987 181.948C764.137 182.484 763.037 182.483 762.186 181.948C755.414 177.675 746.936 176.742 739.334 179.435C731.733 182.126 725.908 188.124 723.636 195.6C721.364 203.077 722.913 211.147 727.812 217.349C730.372 217.294 732.928 217.573 735.411 218.178L733.328 216.043C730.134 212.798 728.188 208.603 727.811 204.151C727.432 199.699 728.645 195.256 731.247 191.555C731.619 190.993 732.21 190.601 732.888 190.466C733.565 190.329 734.27 190.464 734.844 190.836C735.417 191.209 735.809 191.789 735.93 192.444C736.051 193.099 735.892 193.774 735.488 194.313C733.537 197.089 732.63 200.419 732.915 203.758C733.201 207.095 734.663 210.239 737.059 212.67L739.85 215.529C740.291 215.986 740.536 216.589 740.533 217.213L740.533 219.922C745.744 222.26 750.079 226.087 752.948 230.881C754.166 232.911 754.744 235.237 754.614 237.579C765.392 236.259 776.342 237.332 786.624 240.714L786.628 217.219C786.629 216.594 786.877 215.991 787.323 215.535L790.115 212.676C792.879 209.868 794.386 206.128 794.31 202.261C794.234 198.395 792.582 194.713 789.709 192.006C786.836 189.301 782.973 187.788 778.951 187.794C775.978 187.791 773.069 188.628 770.587 190.203L764.978 193.699L764.979 193.699C764.131 194.227 763.04 194.227 762.192 193.699L756.559 190.194C752.301 187.538 746.956 187.069 742.268 188.941C740.965 189.471 739.463 188.884 738.912 187.631C738.363 186.377 738.973 184.932 740.277 184.403C746.537 181.908 753.672 182.532 759.362 186.07L763.587 188.698L767.79 186.081C771.102 183.981 774.984 182.864 778.953 182.869C784.314 182.863 789.464 184.881 793.294 188.489C797.123 192.097 799.326 197.007 799.429 202.161C799.533 207.315 797.528 212.304 793.845 216.05L791.75 218.195L791.745 244.255C791.73 244.457 791.689 244.653 791.621 244.845C791.607 244.956 791.584 245.067 791.555 245.177L791.555 245.191L791.54 245.23L790.666 247.286L790.666 247.287C792.791 247.619 794.871 248.181 796.866 248.962L796.868 239.504C796.868 238.144 798.015 237.042 799.429 237.042C800.843 237.042 801.989 238.145 801.989 239.505L801.987 251.57C803.558 252.578 805.021 253.734 806.358 255.018C807.357 255.98 807.356 257.539 806.357 258.499L805.944 258.896C808.358 262.056 809.661 265.872 809.666 269.792C809.696 274.845 807.541 279.684 803.718 283.152C802.843 283.947 801.511 284.05 800.516 283.398L795.259 279.95C794.658 279.6 794.232 279.027 794.082 278.367C793.934 277.706 794.073 277.015 794.469 276.456C794.866 275.897 795.483 275.52 796.178 275.412C796.872 275.305 797.582 275.476 798.141 275.887L801.569 278.131C802.606 276.853 803.387 275.401 803.875 273.85C802.767 273.574 801.991 272.615 801.983 271.515C801.99 270.185 803.093 269.101 804.476 269.065C804.352 266.705 803.584 264.416 802.249 262.432L790.375 273.846L790.375 273.845C787.015 277.093 782.443 278.913 777.68 278.899L777.209 278.899C776.659 280.294 775.68 281.494 774.403 282.341C773.126 283.188 771.61 283.641 770.058 283.64L757.081 283.638C755.526 283.649 754.005 283.199 752.725 282.352C751.445 281.503 750.467 280.296 749.924 278.895L749.461 278.895C745.592 278.896 741.83 277.685 738.742 275.447L726.622 283.379C725.628 284.03 724.296 283.928 723.421 283.132C719.601 279.667 717.45 274.831 717.478 269.781C717.483 267.919 717.781 266.068 718.361 264.29L700.489 274.211C699.264 274.891 697.696 274.487 696.99 273.308C696.283 272.13 696.704 270.624 697.929 269.944L720.21 257.578L720.21 257.579C719.865 256.682 720.091 255.674 720.789 254.993C725.052 250.901 730.546 248.204 736.491 247.283L735.596 245.172C735.335 244.567 735.335 243.885 735.596 243.279C735.864 242.676 736.37 242.2 737.005 241.957C740.99 240.426 745.11 239.243 749.316 238.42C749.698 236.688 749.406 234.882 748.495 233.343C744.649 226.941 737.733 222.806 730.06 222.32L734.511 229.737L734.512 229.737C734.858 230.302 734.952 230.977 734.778 231.611C734.603 232.245 734.173 232.786 733.582 233.113C732.992 233.442 732.289 233.53 731.631 233.357C730.974 233.186 730.413 232.768 730.076 232.198L724.347 222.656C721.77 223.104 719.294 223.975 717.024 225.228L710.365 228.92L716.765 239.585L716.765 239.586C717.472 240.761 719.036 241.164 720.259 240.485C721.484 239.805 721.905 238.299 721.197 237.122L718.274 232.251C717.567 231.072 717.987 229.567 719.213 228.886C720.439 228.206 722.005 228.611 722.712 229.789L725.633 234.662C727.005 236.95 727.003 239.768 725.63 242.054C724.255 244.34 721.717 245.747 718.971 245.746C716.224 245.745 713.687 244.335 712.316 242.048L705.916 231.385L701.48 233.847L707.88 244.509C709.251 246.797 709.251 249.615 707.876 251.901C706.502 254.187 703.964 255.594 701.218 255.593C698.472 255.592 695.934 254.183 694.563 251.895L688.163 241.232L674.845 248.618L681.245 259.282C681.957 260.45 683.515 260.847 684.734 260.17C685.954 259.493 686.376 257.998 685.681 256.821L682.806 252.033L682.806 252.034C682.111 250.857 682.533 249.361 683.752 248.685C684.972 248.008 686.53 248.404 687.242 249.572L690.118 254.362L690.116 254.361C691.489 256.649 691.487 259.466 690.113 261.753C688.738 264.039 686.2 265.447 683.454 265.445C680.708 265.444 678.172 264.034 676.799 261.746L670.474 251.21C669.059 252.213 667.771 253.369 666.632 254.656L672.41 264.198C672.755 264.765 672.851 265.439 672.676 266.074C672.502 266.708 672.071 267.249 671.481 267.576C670.89 267.904 670.188 267.992 669.53 267.82C668.871 267.648 668.311 267.231 667.974 266.66L663.523 259.245L663.523 259.246C660.12 265.88 660.383 273.709 664.225 280.116C665.243 281.815 666.921 283.055 668.89 283.564C670.859 284.072 672.958 283.807 674.724 282.826L689.065 274.873C690.291 274.192 691.858 274.597 692.565 275.776C693.272 276.953 692.851 278.46 691.625 279.139L677.284 287.093L677.284 287.094C674.343 288.726 670.848 289.168 667.569 288.323C664.289 287.477 661.492 285.413 659.795 282.586C656.058 276.364 655.044 268.969 656.979 262.027C658.913 255.087 663.637 249.169 670.109 245.579L670.107 245.579ZM725.571 278.122L734.891 272.027L724.906 262.422C723.56 264.422 722.789 266.73 722.672 269.109C723.275 268.526 724.142 268.273 724.982 268.432C725.821 268.593 726.522 269.145 726.85 269.904C727.178 270.665 727.09 271.532 726.614 272.216C726.138 272.9 725.339 273.311 724.484 273.31C723.943 273.299 723.421 273.12 722.996 272.798C723.429 274.736 724.309 276.556 725.572 278.122L725.571 278.122ZM726.321 256.825L740.402 270.37L740.401 270.37C742.395 272.273 744.988 273.485 747.777 273.818L742.317 260.966L742.317 260.967C741.707 261.539 740.841 261.783 740.006 261.616C739.172 261.45 738.478 260.895 738.156 260.135C737.834 259.377 737.925 258.514 738.401 257.832C738.877 257.152 739.672 256.744 740.525 256.743L738.498 251.971C734.042 252.444 729.817 254.128 726.32 256.825L726.321 256.825ZM754.641 276.992C754.976 278.018 755.963 278.716 757.081 278.716L770.059 278.717C771.249 278.697 772.278 277.914 772.574 276.805L777.506 265.205C778.04 263.947 779.536 263.342 780.845 263.857C782.154 264.37 782.783 265.808 782.248 267.068L779.373 273.817C782.163 273.484 784.758 272.273 786.755 270.37L790.853 266.431C790.039 266.142 789.433 265.474 789.247 264.659C789.061 263.843 789.318 262.994 789.931 262.402C790.544 261.812 791.427 261.562 792.276 261.739C793.124 261.915 793.82 262.495 794.123 263.277L800.829 256.834C797.338 254.136 793.121 252.449 788.671 251.969L786.037 258.159C785.786 258.772 785.29 259.264 784.66 259.523C784.03 259.781 783.318 259.787 782.685 259.537C782.05 259.287 781.546 258.805 781.286 258.195C781.025 257.586 781.03 256.901 781.297 256.295L785.82 245.658C771.437 240.71 755.715 240.708 741.33 245.653L754.641 276.992ZM680.702 239.702L687.947 235.68L688.822 222.255L679.552 222.254L680.702 239.702ZM689.328 177.935C687.74 177.937 686.191 178.41 684.893 179.292C683.597 180.173 682.614 181.419 682.083 182.858L684.205 182.859C685.793 182.857 687.343 182.383 688.64 181.502C689.937 180.62 690.919 179.374 691.451 177.935L689.328 177.935ZM693.167 187.784L675.242 187.782C673.828 187.782 672.681 188.884 672.681 190.244C672.68 191.604 673.827 192.706 675.241 192.707L693.166 192.709C694.58 192.709 695.727 191.607 695.727 190.247C695.728 188.887 694.581 187.784 693.167 187.784V187.784ZM699.567 197.634L668.838 197.63C667.424 197.63 666.277 198.733 666.277 200.092C666.276 201.452 667.423 202.555 668.837 202.555L699.566 202.559C700.98 202.559 702.127 201.457 702.127 200.097C702.128 198.737 700.981 197.634 699.567 197.634V197.634ZM702.126 207.484L671.324 207.48C672.469 207.912 673.133 209.068 672.903 210.231C672.674 211.392 671.618 212.234 670.388 212.234C669.156 212.234 668.1 211.392 667.872 210.23C667.642 209.067 668.307 207.912 669.452 207.48L666.274 207.479C664.444 207.479 662.753 208.418 661.838 209.941C660.923 211.465 660.923 213.342 661.837 214.866C662.752 216.389 664.442 217.328 666.272 217.329L702.123 217.333C703.953 217.333 705.644 216.395 706.559 214.871C707.474 213.348 707.474 211.47 706.56 209.947C705.646 208.423 703.955 207.484 702.125 207.484L702.126 207.484ZM701.134 222.257L693.964 222.257L693.281 232.726L700.278 228.84L701.134 222.257ZM699.045 249.428C699.752 250.607 701.317 251.01 702.543 250.33C703.766 249.65 704.185 248.144 703.478 246.967L697.078 236.304L692.642 238.766L699.045 249.428Z" fill="#FAEBDA"/>
<path d="M763.582 249.349C763.582 250.709 764.728 251.811 766.142 251.811C767.557 251.812 768.703 250.709 768.704 249.349C768.704 247.99 767.558 246.887 766.143 246.887C764.729 246.886 763.583 247.989 763.582 249.349Z" fill="#FAEBDA"/>
<path d="M771.458 259.014C771.458 260.373 772.604 261.476 774.018 261.476C775.433 261.476 776.579 260.374 776.58 259.014C776.58 257.654 775.433 256.552 774.019 256.551C772.605 256.551 771.459 257.654 771.458 259.014Z" fill="#FAEBDA"/>
<path d="M756.708 259.073C755.366 259.501 753.918 258.803 753.471 257.514L750.912 250.126C750.466 248.834 751.193 247.438 752.537 247.008C753.88 246.579 755.332 247.278 755.777 248.57L758.336 255.958C758.551 256.579 758.499 257.256 758.194 257.841C757.889 258.424 757.354 258.868 756.708 259.073L756.708 259.073Z" fill="#FAEBDA"/>
<path d="M1079.09 318.607C1076.75 318.607 1074.41 317.717 1072.63 315.937L1047.07 290.375C1045.34 288.651 1044.39 286.359 1044.39 283.92C1044.39 281.482 1045.34 279.189 1047.07 277.465L1130.47 194.067C1134.03 190.508 1139.82 190.506 1143.38 194.067L1168.94 219.629C1172.5 223.188 1172.5 228.98 1168.94 232.539L1085.54 315.938C1083.76 317.716 1081.42 318.606 1079.08 318.606L1079.09 318.607ZM1136.92 196.548C1135.9 196.548 1134.88 196.936 1134.11 197.71L1122.65 209.173L1050.71 281.112C1049.96 281.862 1049.55 282.86 1049.55 283.922C1049.55 284.985 1049.96 285.983 1050.71 286.733L1076.27 312.296C1077.82 313.846 1080.35 313.846 1081.89 312.296L1165.29 228.897C1166.84 227.347 1166.84 224.824 1165.29 223.276L1139.73 197.713C1138.95 196.937 1137.94 196.55 1136.92 196.55L1136.92 196.548Z" fill="#FAEBDA"/>
<path d="M1072.69 295.765C1072.03 295.765 1071.38 295.512 1070.87 295.01L1066.16 290.297C1062.47 286.604 1062.47 280.597 1066.16 276.906L1106.02 237.044C1107.03 236.038 1108.66 236.038 1109.66 237.044C1110.67 238.05 1110.67 239.681 1109.66 240.688L1069.8 280.553C1068.12 282.235 1068.12 284.973 1069.8 286.656L1074.52 291.369C1075.52 292.376 1075.52 294.006 1074.52 295.013C1074.01 295.516 1073.35 295.767 1072.69 295.767L1072.69 295.765Z" fill="#FAEBDA"/>
<path d="M1117.43 231.859C1116.77 231.859 1116.11 231.608 1115.61 231.105C1114.6 230.098 1114.6 228.468 1115.61 227.461L1122 221.07C1123 220.064 1124.64 220.063 1125.64 221.07C1126.65 222.077 1126.65 223.707 1125.64 224.714L1119.25 231.105C1118.75 231.607 1118.09 231.859 1117.43 231.859H1117.43Z" fill="#FAEBDA"/>
<path d="M1043.3 219.848C1045.33 219.848 1046.98 221.496 1046.98 223.529C1046.98 225.561 1045.34 227.21 1043.3 227.21C1041.27 227.21 1039.62 225.562 1039.62 223.529C1039.62 221.496 1041.27 219.848 1043.3 219.848Z" fill="#FAEBDA"/>
<path d="M1039.62 260.342C1041.65 260.342 1043.3 261.991 1043.3 264.023C1043.3 266.056 1041.65 267.705 1039.62 267.705C1037.59 267.705 1035.94 266.056 1035.94 264.023C1035.94 261.989 1037.59 260.342 1039.62 260.342Z" fill="#FAEBDA"/>
<path d="M1098.52 186.717C1100.55 186.717 1102.2 188.366 1102.2 190.399C1102.2 192.431 1100.55 194.08 1098.52 194.08C1096.49 194.08 1094.84 192.431 1094.84 190.399C1094.84 188.366 1096.48 186.717 1098.52 186.717Z" fill="#FAEBDA"/>
<path d="M1295.68 251C1297.71 251 1299.36 252.649 1299.36 254.681C1299.36 256.714 1297.71 258.363 1295.68 258.363C1293.65 258.363 1292 256.714 1292 254.681C1292 252.649 1293.65 251 1295.68 251Z" fill="#FAEBDA"/>
<path d="M1285.68 174C1287.71 174 1289.36 175.649 1289.36 177.681C1289.36 179.714 1287.71 181.363 1285.68 181.363C1283.65 181.363 1282 179.714 1282 177.681C1282 175.649 1283.65 174 1285.68 174Z" fill="#FAEBDA"/>
<path d="M1159.51 216.539C1158.85 216.539 1158.19 216.288 1157.68 215.785L1147.22 205.322C1146.22 204.317 1146.22 202.685 1147.22 201.678L1152.28 196.618C1154.73 194.174 1154.78 193.581 1154.97 191.375C1155.07 190.193 1155.21 188.575 1155.73 186.356C1156.47 183.228 1158.07 180.369 1160.35 178.088C1163.75 174.692 1168.45 172.841 1173.25 173.011C1178.12 173.183 1182.57 175.313 1185.77 179.008C1191.46 185.563 1191.4 195.402 1185.63 201.894C1183.28 204.544 1180.23 206.391 1176.81 207.233C1174.47 207.811 1172.79 207.922 1171.57 208.003C1169.54 208.139 1168.93 208.179 1166.61 210.501L1161.33 215.783C1160.82 216.288 1160.17 216.539 1159.51 216.539L1159.51 216.539ZM1152.69 203.502L1159.51 210.32L1162.97 206.86C1166.48 203.347 1168.4 203.053 1171.23 202.864C1172.38 202.788 1173.67 202.701 1175.58 202.232C1177.98 201.64 1180.12 200.34 1181.78 198.473C1185.84 193.91 1185.88 186.996 1181.88 182.39C1179.62 179.785 1176.49 178.285 1173.07 178.164C1169.64 178.045 1166.42 179.311 1164 181.735C1162.39 183.34 1161.27 185.349 1160.75 187.544C1160.31 189.395 1160.2 190.684 1160.1 191.82C1159.85 194.803 1159.53 196.665 1155.93 200.264L1152.69 203.502Z" fill="#FAEBDA"/>
<path d="M1074.59 226.104C1070.13 226.104 1066.49 222.472 1066.49 218.006C1066.49 213.54 1070.13 209.908 1074.59 209.908C1079.06 209.908 1082.69 213.54 1082.69 218.006C1082.69 222.472 1079.06 226.104 1074.59 226.104ZM1074.59 215.061C1072.97 215.061 1071.65 216.382 1071.65 218.006C1071.65 219.63 1072.97 220.951 1074.59 220.951C1076.22 220.951 1077.54 219.63 1077.54 218.006C1077.54 216.382 1076.22 215.061 1074.59 215.061Z" fill="#FAEBDA"/>
<path d="M1279.1 237.196C1274.63 237.196 1271 233.564 1271 229.098C1271 224.632 1274.63 221 1279.1 221C1283.56 221 1287.2 224.632 1287.2 229.098C1287.2 233.564 1283.56 237.196 1279.1 237.196ZM1279.1 226.153C1277.47 226.153 1276.15 227.475 1276.15 229.098C1276.15 230.722 1277.47 232.043 1279.1 232.043C1280.72 232.043 1282.04 230.722 1282.04 229.098C1282.04 227.475 1280.72 226.153 1279.1 226.153Z" fill="#FAEBDA"/>
<path d="M1179.5 259.235C1175.03 259.235 1171.4 255.602 1171.4 251.137C1171.4 246.67 1175.03 243.038 1179.5 243.038C1183.97 243.038 1187.6 246.671 1187.6 251.137C1187.6 255.603 1183.97 259.235 1179.5 259.235ZM1179.5 248.192C1177.88 248.192 1176.55 249.513 1176.55 251.137C1176.55 252.76 1177.88 254.081 1179.5 254.081C1181.12 254.081 1182.44 252.76 1182.44 251.137C1182.44 249.513 1181.12 248.192 1179.5 248.192Z" fill="#FAEBDA"/>
<path d="M1204.53 220.835L1214.07 223.668C1214.89 223.914 1215.76 223.445 1216.01 222.619C1216.25 221.792 1215.78 220.927 1214.96 220.682L1206.91 218.292L1210.69 205.595L1223.38 209.368L1220.99 217.41C1220.75 218.236 1221.22 219.102 1222.04 219.347C1222.87 219.592 1223.74 219.123 1223.98 218.297L1226.81 208.761C1226.93 208.363 1226.89 207.938 1226.69 207.575C1226.49 207.212 1226.16 206.941 1225.76 206.824L1210.08 202.163C1209.25 201.918 1208.39 202.387 1208.14 203.213L1203.48 218.897C1203.36 219.309 1203.42 219.732 1203.61 220.083C1203.8 220.434 1204.12 220.713 1204.53 220.835L1204.53 220.835Z" fill="#FAEBDA"/>
<path d="M1240.19 212.428L1235.53 228.111C1235.41 228.524 1235.46 228.947 1235.65 229.298C1235.84 229.648 1236.17 229.927 1236.58 230.049L1246.12 232.882C1246.94 233.128 1247.81 232.659 1248.05 231.833C1248.3 231.007 1247.83 230.141 1247 229.896L1238.96 227.507L1242.73 214.809L1255.43 218.582L1253.04 226.624C1252.8 227.451 1253.26 228.316 1254.09 228.561C1254.92 228.806 1255.78 228.337 1256.03 227.511L1258.86 217.976C1258.98 217.578 1258.93 217.152 1258.74 216.789C1258.54 216.426 1258.21 216.156 1257.81 216.038L1242.13 211.378C1241.3 211.132 1240.43 211.602 1240.19 212.428L1240.19 212.428Z" fill="#FAEBDA"/>
<path d="M1244.02 196.928C1243.9 197.341 1243.96 197.764 1244.15 198.115C1244.34 198.465 1244.66 198.743 1245.07 198.866L1254.61 201.699C1255.44 201.945 1256.3 201.476 1256.55 200.65C1256.79 199.823 1256.32 198.958 1255.5 198.713L1247.45 196.324L1251.23 183.626L1263.92 187.399L1261.53 195.441C1261.29 196.267 1261.76 197.133 1262.58 197.378C1263.41 197.623 1264.28 197.154 1264.52 196.328L1267.35 186.792C1267.6 185.966 1267.13 185.1 1266.31 184.856L1250.62 180.196C1249.8 179.95 1248.93 180.419 1248.68 181.245L1244.02 196.928Z" fill="#FAEBDA"/>
<path d="M1242 302.879L1259.63 243.566C1259.63 243.557 1259.63 243.55 1259.63 243.541L1268.8 212.704C1268.8 212.687 1268.81 212.671 1268.82 212.653L1277.12 184.704C1278.05 181.586 1276.26 178.291 1273.14 177.362L1252.02 171.088C1252 171.083 1251.98 171.088 1251.97 171.083C1251.7 171.011 1251.43 170.987 1251.15 171.009C1251.12 171.012 1251.08 171.015 1251.04 171.02C1250.78 171.054 1250.53 171.133 1250.3 171.254C1250.26 171.271 1250.23 171.288 1250.2 171.306C1250.02 171.407 1249.85 171.524 1249.7 171.675C1247.5 173.872 1244.75 175.476 1241.74 176.32C1239.21 177.026 1236.63 177.176 1234.04 176.76C1233.26 176.639 1232.48 176.462 1231.71 176.234C1231.51 176.176 1231.31 176.121 1231.12 176.043C1230.96 175.975 1230.8 175.933 1230.64 175.904C1230.61 175.9 1230.59 175.901 1230.57 175.898C1230.35 175.866 1230.13 175.868 1229.92 175.897C1229.89 175.901 1229.86 175.901 1229.82 175.907C1229.6 175.946 1229.39 176.022 1229.19 176.124C1229.17 176.136 1229.14 176.135 1229.12 176.147C1229.09 176.161 1229.07 176.185 1229.04 176.201C1228.95 176.259 1228.86 176.324 1228.77 176.397C1228.74 176.422 1228.7 176.438 1228.67 176.466C1228.63 176.506 1228.58 176.547 1228.53 176.587C1224.98 179.71 1220.25 181.345 1215.52 181.081C1215.5 181.08 1215.49 181.079 1215.47 181.077C1215.46 181.076 1215.46 181.076 1215.45 181.075C1214.1 181.003 1212.73 180.761 1211.37 180.357C1210.36 180.055 1209.38 179.669 1208.48 179.209C1208.33 179.132 1208.17 179.075 1208.01 179.035C1207.97 179.024 1207.93 179.022 1207.89 179.014C1207.77 178.989 1207.65 178.969 1207.53 178.962C1207.48 178.959 1207.42 178.964 1207.37 178.966C1207.26 178.969 1207.16 178.973 1207.05 178.989C1206.99 178.998 1206.93 179.014 1206.87 179.029C1206.78 179.053 1206.68 179.082 1206.59 179.117C1206.56 179.128 1206.53 179.131 1206.5 179.144C1206.47 179.156 1206.44 179.177 1206.41 179.192C1206.32 179.236 1206.23 179.285 1206.15 179.342C1206.1 179.375 1206.04 179.409 1206 179.447C1205.91 179.509 1205.84 179.58 1205.77 179.652C1205.73 179.695 1205.68 179.737 1205.64 179.782C1205.58 179.858 1205.52 179.945 1205.47 180.032C1205.43 180.084 1205.39 180.135 1205.36 180.19C1205.36 180.206 1205.34 180.217 1205.34 180.232C1205.31 180.282 1205.3 180.336 1205.28 180.386C1205.25 180.466 1205.2 180.542 1205.18 180.628L1201.6 192.683C1201.6 192.684 1201.6 192.686 1201.6 192.688L1192.41 223.605L1174.79 282.91C1174.34 284.421 1174.51 286.017 1175.26 287.404C1176.01 288.791 1177.26 289.802 1178.77 290.252L1234.66 306.86C1236.17 307.309 1237.77 307.143 1239.16 306.391C1240.54 305.64 1241.56 304.392 1242.01 302.88L1242 302.879ZM1185.78 262.334L1244.03 279.644L1242.2 285.82L1183.94 268.51L1185.78 262.334ZM1188.46 253.309L1202.92 260.388C1202.97 260.41 1203.01 260.42 1203.06 260.439C1203.13 260.471 1203.21 260.502 1203.29 260.525C1203.36 260.545 1203.43 260.559 1203.5 260.572C1203.58 260.586 1203.65 260.601 1203.73 260.608C1203.8 260.614 1203.87 260.616 1203.95 260.616C1204.02 260.615 1204.1 260.613 1204.17 260.607C1204.25 260.6 1204.32 260.588 1204.39 260.575C1204.46 260.562 1204.53 260.544 1204.61 260.522C1204.68 260.499 1204.75 260.473 1204.82 260.444C1204.86 260.428 1204.9 260.42 1204.94 260.4L1216.05 255.155L1232.14 264.853C1232.16 264.864 1232.18 264.869 1232.19 264.88C1232.27 264.921 1232.35 264.955 1232.42 264.989C1232.49 265.016 1232.55 265.047 1232.62 265.068C1232.69 265.09 1232.76 265.106 1232.84 265.121C1232.91 265.137 1232.98 265.157 1233.06 265.167C1233.13 265.177 1233.21 265.174 1233.29 265.177C1233.36 265.179 1233.43 265.185 1233.5 265.179C1233.58 265.174 1233.66 265.159 1233.73 265.145C1233.81 265.134 1233.88 265.125 1233.94 265.106C1234.01 265.088 1234.08 265.059 1234.15 265.034C1234.23 265.006 1234.3 264.979 1234.38 264.943C1234.39 264.935 1234.41 264.932 1234.42 264.924L1250.96 256.316L1244.92 276.655L1186.66 259.347L1188.46 253.309ZM1196.22 227.173L1223.11 235.162C1222.39 237.572 1221.28 241.323 1220.64 243.472L1216.14 243.538L1217.33 239.55C1217.57 238.724 1217.1 237.858 1216.28 237.614L1200.6 232.955C1199.77 232.71 1198.91 233.179 1198.66 234.005L1195.74 243.834L1191.25 243.899L1196.22 227.173ZM1255.81 239.992L1228.92 232.004L1236.78 205.57L1263.66 213.559L1255.81 239.992ZM1232.49 245.992L1232.58 245.692L1237.17 247.054C1237.99 247.3 1238.86 246.83 1239.1 246.005C1239.35 245.178 1238.88 244.312 1238.05 244.068L1231.97 242.262C1231.15 242.016 1230.28 242.485 1230.04 243.311L1229.47 245.207L1225.32 244.129C1226.46 240.296 1227.16 237.928 1227.59 236.486L1252.48 243.883L1237.87 247.387L1232.49 245.992ZM1199.01 243.787L1201.21 236.385L1213.9 240.156L1212.88 243.584L1199.01 243.787ZM1232.3 204.24L1224.44 230.683L1197.55 222.694L1205.41 196.252L1232.3 204.24ZM1189.86 248.595L1222.1 248.124L1237.26 252.059C1237.63 252.156 1238.02 252.159 1238.39 252.071L1253.28 248.5L1252.81 250.086L1233.43 260.177L1217.39 250.509C1216.85 250.179 1216.22 250.102 1215.64 250.241C1215.64 250.242 1215.64 250.242 1215.63 250.242C1215.48 250.279 1215.34 250.331 1215.19 250.398L1215.19 250.4L1203.97 255.698L1189.81 248.769L1189.86 248.595ZM1271.81 181.842C1272.46 182.033 1272.83 182.721 1272.64 183.373L1265.13 208.633L1238.24 200.643L1244.25 180.425C1247.1 179.451 1249.72 177.928 1251.97 175.948L1271.81 181.842ZM1210.04 184.835C1211.05 185.135 1212.06 185.34 1213.08 185.497L1212.51 187.402C1212.39 187.814 1212.45 188.238 1212.64 188.588C1212.83 188.939 1213.15 189.217 1213.56 189.34L1223.09 192.17C1223.92 192.416 1224.78 191.947 1225.03 191.121C1225.27 190.294 1224.8 189.429 1223.98 189.184L1215.94 186.797L1216.25 185.765C1220.16 185.81 1224.03 184.846 1227.45 182.993C1228.6 182.37 1229.68 181.616 1230.71 180.8C1230.96 180.872 1231.22 180.938 1231.48 181L1230.02 185.911C1229.9 186.323 1229.95 186.746 1230.14 187.097C1230.33 187.448 1230.66 187.726 1231.07 187.848C1231.9 188.094 1232.76 187.625 1233.01 186.799L1234.58 181.51C1236.07 181.665 1237.56 181.674 1239.05 181.53L1233.76 199.318L1206.87 191.328L1208.91 184.468C1209.28 184.6 1209.66 184.722 1210.04 184.835L1210.04 184.835ZM1235.99 302.378L1180.1 285.768C1179.46 285.58 1179.08 284.869 1179.27 284.238L1183.05 271.495L1241.31 288.805L1237.52 301.548C1237.43 301.863 1237.22 302.121 1236.93 302.278C1236.64 302.436 1236.31 302.47 1235.99 302.378L1235.99 302.378Z" fill="#FAEBDA"/>
<path d="M84.8887 340.09C83.6693 342.084 81.6905 343.614 79.2432 344.204L44.1006 352.678C41.7292 353.25 39.279 352.864 37.1984 351.592C35.1179 350.32 33.6568 348.314 33.0862 345.943L5.44226 231.285C4.26335 226.391 7.2833 221.45 12.1771 220.271L47.3209 211.798C52.2135 210.618 57.1553 213.64 58.3349 218.533L85.9789 333.191C86.5678 335.637 86.1078 338.096 84.8883 340.09L84.8887 340.09ZM10.9254 227.074C10.3946 227.942 10.1939 229.014 10.4499 230.08L14.2502 245.838L38.0974 344.738C38.3462 345.77 38.9815 346.644 39.8877 347.198C40.794 347.752 41.8613 347.919 42.8934 347.671L78.0371 339.197C80.1681 338.684 81.4843 336.531 80.9697 334.401L53.3258 219.743C52.812 217.612 50.6595 216.296 48.5298 216.811L13.386 225.284C12.3196 225.541 11.458 226.207 10.9264 227.076L10.9254 227.074Z" fill="#FAEBDA"/>
<path d="M30.8839 262.123C30.5403 262.685 29.9817 263.117 29.2895 263.284C27.905 263.618 26.5142 262.767 26.1804 261.383L24.0622 252.597C23.7295 251.213 24.5795 249.821 25.9633 249.488C27.3478 249.154 28.7386 250.004 29.0723 251.389L31.1906 260.175C31.3571 260.865 31.2281 261.56 30.8838 262.123L30.8839 262.123Z" fill="#FAEBDA"/>
<path d="M84.2437 243.566C85.304 241.832 87.5706 241.286 89.3047 242.346C91.0389 243.407 91.5853 245.673 90.5249 247.407C89.4646 249.141 87.198 249.688 85.4639 248.627C83.7287 247.566 83.1826 245.302 84.2437 243.566Z" fill="#FAEBDA"/>
<path d="M140.204 120.033C141.264 118.299 143.531 117.753 145.265 118.813C146.999 119.874 147.545 122.14 146.485 123.874C145.425 125.608 143.158 126.155 141.424 125.094C139.69 124.034 139.143 121.769 140.204 120.033Z" fill="#FAEBDA"/>
<path d="M90.9605 81.7175C92.0208 79.9835 94.2874 79.4369 96.0215 80.4973C97.7555 81.5576 98.3021 83.8242 97.2417 85.5584C96.1814 87.2924 93.9148 87.839 92.1807 86.7786C90.4467 85.7183 89.8994 83.4528 90.9605 81.7175Z" fill="#FAEBDA"/>
<path d="M39.7636 218.234C39.4193 218.797 38.8615 219.228 38.1692 219.395L23.7856 222.863C22.4029 223.196 21.011 222.345 20.6766 220.962L18.9993 214.005C18.1892 210.645 17.7101 210.292 15.9269 208.979C14.9713 208.276 13.6633 207.313 12.0437 205.708C9.76155 203.445 8.15469 200.592 7.39877 197.456C6.27385 192.786 7.15125 187.803 9.79648 183.802C12.4838 179.737 16.6217 177.053 21.4471 176.245C30.0078 174.81 38.3704 179.995 40.8993 188.303C41.9315 191.695 41.9162 195.261 40.8514 198.615C40.1228 200.916 39.3439 202.401 38.7764 203.485C37.8323 205.289 37.5475 205.833 38.3171 209.025L40.068 216.287C40.2374 216.978 40.108 217.671 39.7637 218.234L39.7636 218.234ZM25.084 217.249L34.4574 214.989L33.3105 210.232C32.1461 205.402 32.8959 203.614 34.2144 201.095C34.7467 200.079 35.3496 198.926 35.9423 197.058C36.6892 194.702 36.6992 192.193 35.9721 189.804C34.1948 183.963 28.3189 180.319 22.3026 181.328C18.9017 181.897 15.9883 183.787 14.0992 186.644C12.2098 189.505 11.6082 192.915 12.4124 196.247C12.9445 198.454 14.0725 200.459 15.6756 202.047C17.0264 203.386 18.068 204.152 18.9856 204.829C21.3967 206.604 22.8186 207.849 24.0115 212.796L25.084 217.249Z" fill="#FAEBDA"/>
<path d="M119.282 22.3582C116.952 26.1684 111.958 27.3722 108.148 25.0425C104.338 22.7127 103.134 17.7189 105.464 13.9089C107.794 10.0987 112.788 8.89494 116.597 11.2246C120.408 13.5545 121.611 18.5483 119.282 22.3582ZM109.86 16.5973C109.013 17.9825 109.451 19.799 110.837 20.646C112.222 21.493 114.038 21.055 114.885 19.6698C115.732 18.2847 115.294 16.4682 113.909 15.6212C112.524 14.7742 110.707 15.2121 109.86 16.5973Z" fill="#FAEBDA"/>
<path d="M86.6197 223.449C84.2898 227.259 79.296 228.463 75.4861 226.133C71.6759 223.803 70.4721 218.809 72.8018 214.999C75.1317 211.189 80.1254 209.986 83.9354 212.315C87.7456 214.645 88.9494 219.639 86.6197 223.449ZM77.1983 217.688C76.3513 219.073 76.7893 220.89 78.1745 221.737C79.5597 222.584 81.3761 222.146 82.2231 220.76C83.0701 219.375 82.6322 217.559 81.247 216.712C79.8618 215.865 78.0453 216.303 77.1983 217.688Z" fill="#FAEBDA"/>
<path d="M118.367 277.379C115.508 282.055 109.379 283.533 104.703 280.673C100.027 277.814 98.5493 271.685 101.408 267.009C104.268 262.333 110.397 260.856 115.073 263.715C119.747 266.573 121.226 272.704 118.367 277.379ZM105.805 269.698C104.429 271.949 105.14 274.9 107.391 276.277C109.642 277.653 112.594 276.942 113.97 274.691C115.347 272.439 114.635 269.488 112.384 268.111C110.133 266.735 107.182 267.447 105.805 269.698Z" fill="#FAEBDA"/>
<path d="M138.035 221.494L148.629 217.525C149.547 217.181 150.011 216.162 149.667 215.245C149.323 214.327 148.304 213.863 147.386 214.207L138.452 217.554L133.167 203.447L147.274 198.163L150.621 207.098C150.965 208.016 151.984 208.479 152.901 208.135C153.82 207.791 154.283 206.772 153.939 205.855L149.97 195.26C149.804 194.818 149.472 194.463 149.044 194.269C148.617 194.074 148.129 194.057 147.689 194.222L130.264 200.75C129.346 201.094 128.882 202.113 129.226 203.03L135.754 220.455C135.926 220.913 136.267 221.258 136.68 221.446C137.092 221.635 137.576 221.667 138.035 221.494L138.035 221.494Z" fill="#FAEBDA"/>
<path d="M164.619 189.414L171.147 206.839C171.319 207.297 171.66 207.643 172.073 207.83C172.486 208.018 172.97 208.049 173.428 207.877L184.023 203.908C184.941 203.564 185.405 202.545 185.06 201.628C184.716 200.71 183.697 200.246 182.78 200.59L173.845 203.937L168.561 189.83L182.668 184.546L186.015 193.481C186.359 194.399 187.378 194.863 188.295 194.518C189.213 194.174 189.677 193.155 189.332 192.238L185.363 181.643C185.198 181.201 184.865 180.846 184.438 180.652C184.01 180.457 183.522 180.44 183.082 180.605L165.657 187.133C164.739 187.477 164.274 188.498 164.619 189.414L164.619 189.414Z" fill="#FAEBDA"/>
<path d="M157.469 172.723C157.64 173.181 157.982 173.526 158.394 173.714C158.807 173.902 159.292 173.932 159.75 173.761L170.345 169.792C171.263 169.448 171.726 168.429 171.382 167.512C171.038 166.594 170.019 166.13 169.102 166.474L160.167 169.821L154.882 155.714L168.989 150.43L172.336 159.365C172.68 160.283 173.7 160.746 174.617 160.402C175.535 160.058 175.999 159.039 175.654 158.122L171.685 147.527C171.341 146.609 170.322 146.145 169.405 146.49L151.98 153.017C151.062 153.361 150.598 154.38 150.943 155.298L157.469 172.723Z" fill="#FAEBDA"/>
<path d="M228.295 270.231L203.611 204.332C203.607 204.322 203.6 204.317 203.596 204.307L190.762 170.047C190.756 170.027 190.753 170.006 190.746 169.987L179.113 138.936C177.815 135.471 173.938 133.705 170.469 135.003L147.002 143.796C146.984 143.803 146.969 143.821 146.951 143.827C146.66 143.945 146.396 144.11 146.163 144.318C146.131 144.346 146.101 144.373 146.07 144.404C145.858 144.612 145.685 144.856 145.552 145.129C145.534 145.166 145.517 145.203 145.499 145.244C145.407 145.457 145.333 145.68 145.299 145.92C144.816 149.418 143.419 152.761 141.261 155.594C139.456 157.965 137.213 159.875 134.58 161.273C133.791 161.695 132.958 162.074 132.103 162.395C131.885 162.476 131.669 162.561 131.444 162.62C131.252 162.669 131.073 162.743 130.905 162.83C130.881 162.842 130.862 162.857 130.84 162.871C130.62 162.991 130.425 163.141 130.251 163.313C130.224 163.34 130.197 163.361 130.171 163.388C129.996 163.577 129.857 163.79 129.744 164.021C129.732 164.046 129.709 164.063 129.697 164.089C129.684 164.12 129.679 164.157 129.665 164.19C129.616 164.31 129.579 164.43 129.548 164.558C129.538 164.602 129.516 164.641 129.507 164.687C129.494 164.754 129.48 164.823 129.467 164.89C128.383 170.162 125.218 174.885 120.741 177.892C120.724 177.904 120.708 177.914 120.692 177.924C120.686 177.927 120.68 177.931 120.675 177.934C119.403 178.792 117.991 179.514 116.481 180.08C115.355 180.502 114.205 180.82 113.071 181.022C112.88 181.056 112.698 181.112 112.529 181.183C112.484 181.201 112.444 181.228 112.401 181.249C112.276 181.308 112.155 181.371 112.042 181.446C111.991 181.481 111.945 181.524 111.896 181.563C111.802 181.638 111.71 181.713 111.626 181.8C111.578 181.85 111.535 181.905 111.491 181.96C111.418 182.049 111.35 182.141 111.289 182.237C111.27 182.267 111.245 182.291 111.227 182.322C111.209 182.354 111.2 182.391 111.181 182.426C111.129 182.528 111.083 182.632 111.046 182.741C111.021 182.808 110.998 182.873 110.981 182.941C110.949 183.053 110.93 183.168 110.915 183.283C110.906 183.351 110.893 183.42 110.89 183.488C110.883 183.601 110.892 183.718 110.901 183.835C110.906 183.905 110.907 183.978 110.917 184.049C110.92 184.068 110.918 184.086 110.921 184.105C110.932 184.168 110.961 184.222 110.976 184.283C111 184.38 111.014 184.477 111.049 184.572L116.067 197.965C116.067 197.967 116.07 197.968 116.07 197.971L128.937 232.319L153.62 298.208C154.249 299.887 155.494 301.221 157.127 301.964C158.76 302.707 160.584 302.77 162.264 302.141L224.364 278.877C226.044 278.248 227.377 277.003 228.12 275.369C228.862 273.738 228.927 271.91 228.297 270.23L228.295 270.231ZM149.478 272.006L214.201 247.76L216.771 254.621L152.048 278.868L149.478 272.006ZM145.721 261.98L163.698 258.483C163.753 258.472 163.802 258.45 163.855 258.436C163.948 258.412 164.039 258.388 164.128 258.352C164.205 258.324 164.278 258.289 164.35 258.252C164.427 258.214 164.506 258.175 164.58 258.129C164.65 258.085 164.717 258.038 164.783 257.988C164.852 257.935 164.92 257.88 164.984 257.823C165.045 257.766 165.1 257.708 165.155 257.648C165.213 257.585 165.268 257.519 165.319 257.448C165.37 257.377 165.417 257.304 165.462 257.229C165.486 257.188 165.519 257.152 165.54 257.108L172.021 244.731L193.267 242.497C193.291 242.495 193.311 242.486 193.336 242.484C193.431 242.47 193.526 242.448 193.619 242.425C193.696 242.406 193.774 242.391 193.849 242.364C193.93 242.335 194.008 242.298 194.086 242.261C194.162 242.225 194.241 242.194 194.314 242.153C194.39 242.111 194.458 242.056 194.53 242.004C194.596 241.957 194.665 241.914 194.726 241.86C194.793 241.801 194.854 241.734 194.915 241.668C194.972 241.609 195.03 241.553 195.078 241.489C195.129 241.424 195.17 241.352 195.215 241.283C195.266 241.204 195.317 241.128 195.359 241.044C195.367 241.026 195.382 241.011 195.39 240.995L204.489 221.845L212.954 244.442L148.235 268.687L145.721 261.98ZM134.844 232.942L164.714 221.752C165.717 224.43 167.278 228.597 168.173 230.985L164.138 234.129L162.479 229.698C162.135 228.78 161.115 228.316 160.198 228.661L142.78 235.186C141.862 235.53 141.398 236.549 141.743 237.466L145.834 248.386L141.806 251.524L134.844 232.942ZM197.692 203.71L167.821 214.901L156.82 185.533L186.69 174.343L197.692 203.71ZM180.654 225.144L180.528 224.81L185.622 222.902C186.54 222.558 187.004 221.539 186.659 220.622C186.315 219.703 185.296 219.24 184.379 219.584L177.626 222.114C176.708 222.458 176.244 223.477 176.589 224.394L177.378 226.501L172.869 228.372C171.273 224.113 170.288 221.483 169.688 219.88L197.345 209.52L186.487 222.723L180.654 225.144ZM148.762 246.106L145.681 237.882L159.781 232.6L161.208 236.408L148.762 246.106ZM151.843 187.399L162.848 216.777L132.978 227.966L121.973 198.589L151.843 187.399ZM143.757 256.743L172.691 234.202L189.136 227.381C189.539 227.214 189.894 226.95 190.171 226.616L201.237 213.16L201.897 214.923L191.231 237.37L170.053 239.596C169.33 239.672 168.705 240.034 168.277 240.556C168.277 240.557 168.274 240.559 168.274 240.56C168.161 240.697 168.064 240.846 167.982 241.003L167.979 241.007L161.43 253.512L143.831 256.935L143.757 256.743ZM172.33 139.982C173.051 139.71 173.862 140.078 174.133 140.802L184.646 168.866L154.77 180.058L146.356 157.595C148.27 154.76 149.61 151.576 150.288 148.241L172.33 139.982ZM118.342 185.057C119.464 184.637 120.527 184.126 121.556 183.572L122.348 185.689C122.52 186.147 122.861 186.492 123.274 186.68C123.687 186.868 124.171 186.898 124.63 186.727L135.215 182.761C136.133 182.417 136.597 181.398 136.252 180.481C135.908 179.563 134.889 179.099 133.972 179.444L125.047 182.787L124.617 181.64C128.193 179.002 131.046 175.47 132.877 171.445C133.494 170.091 133.951 168.67 134.328 167.221C134.61 167.112 134.888 166.995 135.164 166.875L137.208 172.331C137.38 172.789 137.721 173.134 138.134 173.322C138.547 173.51 139.031 173.54 139.489 173.369C140.408 173.025 140.871 172.005 140.527 171.088L138.326 165.213C139.787 164.328 141.146 163.313 142.395 162.165L149.798 181.927L119.923 193.119L117.068 185.498C117.495 185.362 117.92 185.215 118.343 185.057L118.342 185.057ZM222.497 273.9L160.393 297.162C159.691 297.425 158.854 297.044 158.592 296.343L153.289 282.185L218.012 257.939L223.316 272.097C223.447 272.447 223.434 272.825 223.279 273.166C223.125 273.506 222.847 273.765 222.498 273.898L222.497 273.9Z" fill="#FAEBDA"/>
<path d="M232.416 211.409V257.654C232.416 258.21 232.636 258.743 233.026 259.136C233.417 259.529 233.947 259.75 234.5 259.75H261.583V284.904C261.583 285.46 261.803 285.993 262.193 286.386C262.584 286.779 263.114 287 263.666 287H330.333C330.886 287 331.416 286.779 331.806 286.386C332.197 285.993 332.417 285.46 332.417 284.904V251.365C332.41 246.816 331.459 242.319 329.623 238.162L346.596 214.874C347.205 214.039 347.117 212.884 346.39 212.152L340.14 205.864C339.71 205.431 339.114 205.209 338.508 205.256C337.902 205.302 337.346 205.613 336.987 206.106L321.676 227.113L321.39 226.824L321.389 226.825C320.796 226.228 319.906 226.048 319.13 226.366L305.851 231.809C305.16 230.843 304.274 230.033 303.25 229.435V211.408C306.142 210.977 308.785 209.515 310.698 207.288C312.609 205.062 313.663 202.218 313.666 199.276V192.669C313.662 188.78 312.124 185.051 309.392 182.301C306.658 179.551 302.952 178.005 299.087 178H236.58C232.714 178.005 229.008 179.552 226.275 182.301C223.542 185.051 222.005 188.78 222 192.669V199.276C222.004 202.219 223.057 205.062 224.969 207.289C226.881 209.515 229.523 210.978 232.417 211.409L232.416 211.409ZM263.845 216.778L257.416 223.246L250.168 215.953L256.78 209.669L263.845 216.778ZM259.809 206.79L265.35 201.524L272.178 208.394L266.791 213.814L259.809 206.79ZM266.791 219.743L273.22 226.211L266.791 232.679L260.363 226.211L266.791 219.743ZM263.845 235.644L256.375 243.16L249.946 236.692L257.416 229.176L263.845 235.644ZM266.791 238.608L273.297 245.155L262.88 249.426C262.814 249.452 262.752 249.484 262.69 249.517L259.321 246.125L266.791 238.608ZM265.75 263.942H328.25V272.327H265.75V263.942ZM265.75 259.75V253.461H328.25V259.75H265.75ZM265.75 282.807V276.519H328.25V282.807H265.75ZM323.836 231.237L325.835 236.268L321.755 241.868L318.486 238.579L323.836 231.237ZM326.739 227.252L332.754 219.002L335.051 223.625L328.74 232.284L326.739 227.252ZM338.909 210.555L342.178 213.844L337.82 219.823L335.522 215.2L338.909 210.555ZM318.831 231.015L314.069 237.548L314.07 237.549C313.462 238.384 313.549 239.539 314.276 240.271L320.526 246.56C320.917 246.953 321.446 247.173 321.999 247.173C322.051 247.173 322.105 247.172 322.158 247.168C322.763 247.121 323.319 246.81 323.678 246.317L326.711 242.157V242.156C327.497 244.455 327.987 246.846 328.17 249.27H274.301L292.491 241.813H292.492C293.983 243.765 296.254 244.958 298.699 245.074C301.143 245.19 303.515 244.218 305.183 242.416C306.851 240.613 307.647 238.164 307.358 235.719L318.831 231.015ZM299.082 232.5C300.187 232.5 301.247 232.942 302.028 233.728C302.81 234.514 303.249 235.581 303.249 236.693C303.249 237.804 302.81 238.871 302.028 239.657C301.247 240.443 300.187 240.885 299.082 240.885C297.977 240.885 296.917 240.443 296.136 239.657C295.354 238.871 294.915 237.804 294.915 236.693C294.916 235.581 295.356 234.516 296.137 233.73C296.919 232.944 297.977 232.501 299.082 232.5L299.082 232.5ZM299.086 182.192C301.847 182.195 304.493 183.3 306.445 185.264C308.397 187.229 309.496 189.891 309.499 192.669V199.276C309.496 201.415 308.65 203.466 307.146 204.98C305.643 206.493 303.604 207.343 301.478 207.346H301.165C300.015 207.346 299.082 208.285 299.082 209.442V220.933C297.985 218.582 296.49 216.442 294.662 214.608L294.305 214.249L291.359 217.213L291.716 217.573C294.67 220.528 296.508 224.427 296.911 228.598C294.933 229.136 293.221 230.388 292.101 232.115C290.982 233.842 290.535 235.923 290.843 237.962L290.749 238.001L290.748 211.409C293.641 210.978 296.284 209.516 298.195 207.289C300.108 205.062 301.161 202.219 301.165 199.276V192.67C301.167 188.724 299.584 184.947 296.776 182.193L299.086 182.192ZM226.164 192.669C226.167 189.891 227.265 187.229 229.217 185.264C231.17 183.3 233.816 182.195 236.577 182.192H286.584C289.346 182.195 291.992 183.3 293.944 185.264C295.896 187.229 296.994 189.891 296.997 192.669V199.276C296.994 201.415 296.149 203.466 294.645 204.98C293.141 206.493 291.102 207.343 288.976 207.346H288.664C287.513 207.346 286.58 208.285 286.58 209.442V239.709L277.482 243.439L269.735 235.644L276.164 229.176L278.857 231.886L281.803 228.922L279.11 226.212L283.887 221.406L280.94 218.441L276.164 223.247L269.735 216.779L275.122 211.359L278.857 215.117L281.804 212.153L278.068 208.394L281.804 204.636L278.857 201.672L275.122 205.43L268.379 198.645L279.677 187.908L276.817 184.861L265.432 195.68L254.72 184.902L251.774 187.867L262.401 198.559L256.86 203.826L248.47 195.384L245.523 198.349L253.829 206.705L247.216 212.989L244.302 210.057L241.358 213.021L244.187 215.868L239.317 220.495L242.178 223.543L247.134 218.833L254.468 226.212L246.998 233.728L242.221 228.922L239.275 231.887L244.051 236.693L239.275 241.499L242.221 244.463L246.998 239.657L253.426 246.126L249.691 249.884L252.637 252.848L256.373 249.09L260.108 252.848L261.581 251.366V255.558H236.581V209.443C236.581 208.887 236.362 208.354 235.971 207.96C235.58 207.567 235.05 207.347 234.498 207.347H234.185C232.059 207.344 230.02 206.493 228.516 204.98C227.012 203.467 226.167 201.416 226.164 199.276L226.164 192.669Z" fill="#FAEBDA"/>
<path d="M1042.76 206.611L1050.21 252.251C1050.3 252.799 1050.18 253.36 1049.87 253.81C1049.55 254.259 1049.08 254.56 1048.55 254.647L1022.46 258.91L1026.52 283.735C1026.6 284.283 1026.48 284.844 1026.17 285.294C1025.85 285.743 1025.38 286.044 1024.85 286.131L960.631 296.624C960.099 296.711 959.553 296.576 959.113 296.25C958.674 295.924 958.376 295.432 958.286 294.883L952.878 261.783C952.151 257.293 952.342 252.705 953.44 248.314L933.335 228.002C932.615 227.274 932.513 226.119 933.095 225.283L938.101 218.093C938.445 217.599 938.984 217.286 939.575 217.237C940.166 217.187 940.752 217.406 941.177 217.836L959.312 236.158L959.542 235.828L959.543 235.829C960.017 235.147 960.846 234.828 961.645 235.02L975.313 238.302C975.823 237.24 976.546 236.301 977.436 235.55L974.529 217.759C971.673 217.788 968.891 216.762 966.691 214.865C964.491 212.969 963.017 210.328 962.539 207.425L961.473 200.905C960.851 197.066 961.73 193.143 963.919 189.999C966.108 186.855 969.429 184.745 973.151 184.133L1033.36 174.295C1037.08 173.691 1040.9 174.634 1043.98 176.917C1047.06 179.201 1049.14 182.64 1049.77 186.477L1050.83 192.997C1051.31 195.903 1050.75 198.874 1049.27 201.373C1047.78 203.871 1045.47 205.73 1042.76 206.611L1042.76 206.611ZM1013.35 216.857L1020.59 222.228L1026.39 213.89L1019.01 208.729L1013.35 216.857ZM1015.63 206.364L1009.44 202.039L1003.97 209.894L1010.03 214.395L1015.63 206.364ZM1010.99 220.246L1005.84 227.641L1013.08 233.013L1018.23 225.618L1010.99 220.246ZM1016.39 235.475L1024.8 241.717L1029.95 234.322L1021.54 228.08L1016.39 235.475ZM1014.03 238.865L1008.82 246.35L1019.54 248.925C1019.61 248.941 1019.68 248.962 1019.74 248.985L1022.44 245.107L1014.03 238.865ZM1019.12 263.703L958.92 273.54L960.272 281.815L1020.47 271.978L1019.12 263.703ZM1018.45 259.565L1017.43 253.359L957.229 263.196L958.244 269.402L1018.45 259.565ZM1022.16 282.321L1021.15 276.115L960.948 285.952L961.962 292.158L1022.16 282.321ZM957.898 240.568L956.783 245.848L961.616 250.732L964.235 246.972L957.898 240.568ZM954.458 237.093L947.334 229.897L945.867 234.821L953.343 242.373L954.458 237.093ZM940.043 222.529L937.425 226.29L942.587 231.504L944.054 226.581L940.043 222.529ZM962.683 239.561L968.323 245.259L968.322 245.26C969.043 245.988 969.145 247.143 968.562 247.979L963.556 255.169C963.243 255.619 962.769 255.92 962.237 256.007C962.187 256.015 962.134 256.022 962.083 256.026C961.492 256.075 960.906 255.856 960.481 255.426L956.889 251.797L956.889 251.797C956.502 254.189 956.416 256.626 956.63 259.047L1008.52 250.568L989.795 246.073L989.795 246.073C988.672 248.234 986.678 249.769 984.342 250.268C982.006 250.767 979.565 250.181 977.667 248.665C975.77 247.148 974.608 244.857 974.492 242.398L962.683 239.561ZM981.945 237.919C980.88 238.093 979.93 238.696 979.305 239.594C978.679 240.493 978.428 241.615 978.607 242.712C978.787 243.809 979.381 244.793 980.261 245.446C981.14 246.099 982.232 246.368 983.297 246.194C984.361 246.02 985.311 245.417 985.937 244.518C986.563 243.62 986.813 242.498 986.634 241.4C986.454 240.303 985.858 239.322 984.979 238.669C984.1 238.016 983.009 237.746 981.945 237.919L981.945 237.919ZM973.828 188.27C971.169 188.707 968.799 190.214 967.235 192.46C965.671 194.706 965.043 197.506 965.488 200.249L966.553 206.769C966.901 208.88 968.046 210.771 969.739 212.028C971.431 213.284 973.532 213.803 975.581 213.471L975.882 213.422C976.99 213.241 978.04 214.02 978.227 215.163L980.079 226.503C980.757 224.01 981.852 221.663 983.317 219.565L983.603 219.154L986.919 221.616L986.633 222.027C984.264 225.409 983.123 229.546 983.406 233.726C985.399 233.946 987.25 234.912 988.607 236.44C989.963 237.968 990.73 239.952 990.761 242.012L990.859 242.036L986.571 215.792C983.715 215.822 980.933 214.795 978.733 212.898C976.532 211.001 975.059 208.361 974.58 205.457L973.515 198.937C972.877 195.044 973.792 191.067 976.053 187.907L973.828 188.27ZM1045.76 187.133C1045.31 184.391 1043.82 181.937 1041.62 180.305C1039.43 178.674 1036.7 178 1034.04 178.432L985.87 186.302C983.211 186.74 980.84 188.247 979.277 190.493C977.713 192.738 977.084 195.539 977.53 198.281L978.595 204.801C978.943 206.912 980.088 208.803 981.78 210.06C983.473 211.317 985.574 211.835 987.622 211.504L987.923 211.454C989.032 211.273 990.082 212.053 990.268 213.195L995.149 243.065L1004.51 245.314L1010.72 236.403L1003.48 231.031L1001.33 234.13L998.011 231.668L1000.17 228.569L994.792 224.578L997.152 221.188L1002.53 225.18L1007.68 217.784L1001.61 213.283L998.622 217.58L995.306 215.118L998.298 210.821L994.094 207.7L996.454 204.31L1000.66 207.432L1006.06 199.675L993.445 190.856L995.709 187.399L1008.42 196.284L1017 183.962L1020.32 186.424L1011.8 198.649L1017.99 202.974L1024.71 193.323L1028.03 195.785L1021.37 205.339L1028.76 210.5L1031.09 207.148L1034.41 209.609L1032.14 212.864L1037.58 216.664L1035.31 220.123L1029.78 216.255L1023.9 224.691L1032.31 230.933L1036.14 225.438L1039.45 227.9L1035.63 233.395L1041 237.387L1038.64 240.776L1033.27 236.785L1028.12 244.18L1032.32 247.301L1029.96 250.691L1025.76 247.57L1022.77 251.867L1021.11 250.635L1021.78 254.773L1045.87 250.838L1038.43 205.326C1038.34 204.778 1038.46 204.217 1038.78 203.767C1039.09 203.318 1039.57 203.016 1040.1 202.93L1040.4 202.88C1042.45 202.543 1044.27 201.383 1045.48 199.653C1046.68 197.922 1047.17 195.765 1046.82 193.653L1045.76 187.133Z" fill="#FAEBDA"/>
<path d="M463.294 209.946C463.295 211.306 462.188 212.409 460.822 212.409C459.456 212.409 458.349 211.307 458.349 209.947C458.349 208.587 459.456 207.484 460.821 207.484C462.187 207.484 463.294 208.586 463.294 209.946Z" fill="#FAEBDA"/>
<path d="M474.688 214.871C474.688 216.231 473.581 217.334 472.216 217.334C470.85 217.334 469.743 216.232 469.742 214.872C469.742 213.512 470.849 212.41 472.215 212.409C473.581 212.409 474.688 213.512 474.688 214.871Z" fill="#FAEBDA"/>
<path d="M379.209 197.633C379.209 198.992 378.102 200.095 376.736 200.095C375.371 200.096 374.263 198.993 374.263 197.633C374.263 196.273 375.37 195.171 376.735 195.171C378.101 195.17 379.208 196.273 379.209 197.633Z" fill="#FAEBDA"/>
<path d="M379.208 209.946C379.208 211.306 378.101 212.408 376.735 212.409C375.37 212.409 374.262 211.306 374.262 209.947C374.262 208.587 375.369 207.484 376.734 207.484C378.1 207.484 379.207 208.586 379.208 209.946Z" fill="#FAEBDA"/>
<path d="M384.154 232.11C384.154 233.47 383.047 234.573 381.681 234.573C380.316 234.573 379.208 233.471 379.208 232.111C379.208 230.751 380.315 229.648 381.681 229.648C383.046 229.648 384.154 230.75 384.154 232.11Z" fill="#FAEBDA"/>
<path d="M413.833 197.632C413.833 198.992 412.726 200.095 411.36 200.095C409.995 200.095 408.887 198.993 408.887 197.633C408.887 196.273 409.994 195.171 411.359 195.17C412.725 195.17 413.832 196.273 413.833 197.632Z" fill="#FAEBDA"/>
<path d="M391.574 202.558C391.574 203.918 390.467 205.02 389.101 205.021C387.736 205.021 386.628 203.918 386.628 202.559C386.628 201.199 387.735 200.096 389.101 200.096C390.466 200.096 391.574 201.198 391.574 202.558Z" fill="#FAEBDA"/>
<path d="M391.574 217.334C391.574 218.694 390.467 219.797 389.101 219.797C387.736 219.797 386.628 218.694 386.628 217.335C386.628 215.975 387.735 214.872 389.101 214.872C390.466 214.872 391.574 215.974 391.574 217.334Z" fill="#FAEBDA"/>
<path d="M421.252 202.558C421.252 203.917 420.145 205.02 418.779 205.02C417.413 205.021 416.306 203.918 416.306 202.558C416.306 201.199 417.413 200.096 418.778 200.096C420.144 200.095 421.251 201.198 421.252 202.558Z" fill="#FAEBDA"/>
<path d="M403.939 212.409C403.939 213.769 402.832 214.871 401.467 214.871C400.101 214.872 398.994 213.769 398.993 212.409C398.993 211.05 400.1 209.947 401.466 209.947C402.831 209.947 403.939 211.049 403.939 212.409Z" fill="#FAEBDA"/>
<path d="M414.818 219.796C414.818 221.156 413.711 222.259 412.345 222.259C410.98 222.259 409.873 221.157 409.872 219.797C409.872 218.437 410.979 217.335 412.345 217.334C413.71 217.334 414.818 218.437 414.818 219.796Z" fill="#FAEBDA"/>
<path d="M402.704 230.88C402.704 232.24 401.597 233.343 400.231 233.343C398.866 233.343 397.758 232.241 397.758 230.881C397.758 229.521 398.865 228.418 400.231 228.418C401.596 228.418 402.704 229.52 402.704 230.88Z" fill="#FAEBDA"/>
<path d="M486.785 245.579L481.345 242.444L482.631 222.253L489.555 222.253L487.502 238.657C487.334 240.004 488.295 241.233 489.648 241.401C489.751 241.416 489.854 241.422 489.958 241.421C491.204 241.421 492.256 240.496 492.41 239.264L494.656 221.313L494.656 221.314C496.96 220.261 498.767 218.365 499.701 216.019C500.636 213.674 500.628 211.059 499.676 208.72C498.725 206.38 496.905 204.497 494.594 203.459C495.144 202.42 495.432 201.265 495.435 200.091C495.428 198.267 494.744 196.512 493.513 195.162C492.283 193.811 490.594 192.964 488.772 192.781C489.082 191.971 489.244 191.111 489.252 190.242C489.251 188.284 488.47 186.404 487.078 185.019C485.687 183.635 483.799 182.856 481.832 182.857L480.349 182.857C479.774 180.078 478.256 177.581 476.048 175.787C473.841 173.993 471.08 173.012 468.23 173.009L463.285 173.01C461.919 173.01 460.812 174.113 460.812 175.472C460.822 178.193 461.748 180.831 463.439 182.968C461.226 183.267 459.271 184.556 458.131 186.469C456.991 188.382 456.789 190.707 457.585 192.785C455.763 192.969 454.074 193.816 452.844 195.168C451.613 196.518 450.93 198.273 450.924 200.097C450.932 201.272 451.225 202.427 451.78 203.465C449.469 204.503 447.65 206.388 446.7 208.728C445.749 211.067 445.741 213.681 446.678 216.027C447.613 218.372 449.421 220.267 451.725 221.32L452.282 225.752L443.948 220.964C441.644 219.64 439.157 218.662 436.566 218.061C441.242 210.552 442.293 201.35 439.427 192.988C436.562 184.626 430.083 177.982 421.772 174.885C413.461 171.787 404.193 172.563 396.518 176.998C388.334 172.272 378.376 171.72 369.716 175.513C361.056 179.306 354.735 186.987 352.702 196.187C350.669 205.387 353.169 215 359.431 222.062L359.432 229.656C359.432 231.016 360.539 232.118 361.905 232.118C363.27 232.118 364.378 231.015 364.377 229.655L364.376 221.111C364.376 220.482 364.134 219.876 363.701 219.419C358.115 213.53 355.799 205.28 357.511 197.36C359.223 189.44 364.742 182.868 372.266 179.789C379.791 176.709 388.356 177.517 395.166 181.948C395.988 182.484 397.05 182.483 397.871 181.948C404.412 177.675 412.598 176.742 419.939 179.435C427.279 182.126 432.904 188.124 435.097 195.6C437.29 203.077 435.794 211.147 431.064 217.349C428.591 217.294 426.122 217.573 423.725 218.178L425.737 216.043C428.821 212.798 430.7 208.603 431.065 204.151C431.431 199.699 430.26 195.256 427.747 191.555C427.389 190.993 426.818 190.601 426.163 190.466C425.51 190.329 424.828 190.464 424.274 190.836C423.721 191.209 423.343 191.789 423.226 192.444C423.109 193.099 423.262 193.774 423.652 194.313C425.536 197.089 426.412 200.419 426.136 203.758C425.859 207.095 424.448 210.239 422.134 212.67L419.439 215.529C419.013 215.986 418.776 216.589 418.779 217.213L418.779 219.922C413.746 222.26 409.56 226.087 406.789 230.881C405.613 232.911 405.054 235.237 405.18 237.579C394.772 236.259 384.198 237.332 374.269 240.714L374.266 217.219C374.266 216.594 374.026 215.991 373.595 215.535L370.899 212.676C368.231 209.868 366.775 206.128 366.849 202.261C366.922 198.395 368.518 194.713 371.292 192.006C374.067 189.301 377.797 187.788 381.681 187.794C384.552 187.791 387.361 188.628 389.758 190.203L395.174 193.699L395.173 193.699C395.992 194.227 397.045 194.227 397.865 193.699L403.304 190.194C407.416 187.538 412.578 187.069 417.105 188.941C418.363 189.471 419.814 188.884 420.346 187.631C420.877 186.377 420.287 184.932 419.028 184.403C412.983 181.908 406.093 182.532 400.598 186.07L396.518 188.698L392.46 186.081C389.261 183.981 385.512 182.864 381.68 182.869C376.503 182.863 371.53 184.881 367.831 188.489C364.133 192.097 362.005 197.007 361.905 202.161C361.805 207.315 363.741 212.304 367.297 216.05L369.32 218.195L369.323 244.255C369.337 244.457 369.377 244.653 369.442 244.845C369.457 244.956 369.479 245.067 369.506 245.177L369.506 245.191L369.521 245.23L370.365 247.286L370.365 247.287C368.312 247.619 366.304 248.181 364.378 248.962L364.377 239.504C364.377 238.144 363.269 237.042 361.904 237.042C360.538 237.042 359.431 238.145 359.431 239.505L359.432 251.57C357.915 252.578 356.502 253.734 355.211 255.018C354.246 255.98 354.247 257.539 355.212 258.499L355.61 258.896C353.279 262.056 352.021 265.872 352.016 269.792C351.987 274.845 354.067 279.684 357.759 283.152C358.604 283.947 359.89 284.05 360.85 283.398L365.927 279.95C366.508 279.6 366.919 279.027 367.064 278.367C367.207 277.706 367.073 277.015 366.69 276.456C366.307 275.897 365.711 275.52 365.04 275.412C364.37 275.305 363.684 275.476 363.145 275.887L359.834 278.131C358.833 276.853 358.078 275.401 357.608 273.85C358.678 273.574 359.427 272.615 359.435 271.515C359.428 270.185 358.364 269.101 357.028 269.065C357.148 266.705 357.889 264.416 359.179 262.432L370.644 273.846L370.644 273.845C373.888 277.093 378.303 278.913 382.903 278.899L383.358 278.899C383.889 280.294 384.834 281.494 386.068 282.341C387.301 283.188 388.765 283.641 390.263 283.64L402.795 283.638C404.296 283.649 405.765 283.199 407.001 282.352C408.237 281.503 409.182 280.296 409.706 278.895L410.153 278.895C413.889 278.896 417.522 277.685 420.505 275.447L432.208 283.379C433.168 284.03 434.454 283.928 435.299 283.132C438.988 279.667 441.066 274.831 441.039 269.781C441.034 267.919 440.747 266.068 440.187 264.29L457.444 274.211C458.628 274.891 460.141 274.487 460.823 273.308C461.507 272.13 461.1 270.624 459.917 269.944L438.401 257.578L438.401 257.579C438.734 256.682 438.517 255.674 437.842 254.993C433.726 250.901 428.421 248.204 422.68 247.283L423.545 245.172C423.797 244.567 423.797 243.885 423.545 243.279C423.286 242.676 422.797 242.2 422.185 241.957C418.336 240.426 414.357 239.243 410.296 238.42C409.927 236.688 410.209 234.882 411.089 233.343C414.804 226.941 421.482 222.806 428.892 222.32L424.593 229.737L424.592 229.737C424.259 230.302 424.167 230.977 424.335 231.611C424.504 232.245 424.919 232.786 425.49 233.113C426.06 233.442 426.739 233.53 427.374 233.357C428.009 233.186 428.55 232.768 428.876 232.198L434.409 222.656C436.897 223.104 439.288 223.975 441.481 225.228L447.911 228.92L441.73 239.585L441.73 239.586C441.047 240.761 439.536 241.164 438.355 240.485C437.173 239.805 436.766 238.299 437.45 237.122L440.273 232.251C440.956 231.072 440.55 229.567 439.366 228.886C438.183 228.206 436.67 228.611 435.987 229.789L433.166 234.662C431.841 236.95 431.843 239.768 433.169 242.054C434.496 244.34 436.947 245.747 439.599 245.746C442.252 245.745 444.701 244.335 446.026 242.048L452.206 231.385L456.49 233.847L450.309 244.509C448.985 246.797 448.985 249.615 450.312 251.901C451.639 254.187 454.09 255.594 456.742 255.593C459.394 255.592 461.845 254.183 463.169 251.895L469.35 241.232L482.209 248.618L476.029 259.282C475.341 260.45 473.836 260.847 472.659 260.17C471.481 259.493 471.074 257.998 471.745 256.821L474.522 252.033L474.522 252.034C475.193 250.857 474.785 249.361 473.608 248.685C472.43 248.008 470.926 248.404 470.238 249.572L467.461 254.362L467.462 254.361C466.137 256.649 466.138 259.466 467.465 261.753C468.793 264.039 471.244 265.447 473.895 265.445C476.547 265.444 478.997 264.034 480.322 261.746L486.431 251.21C487.797 252.213 489.041 253.369 490.141 254.656L484.56 264.198C484.227 264.765 484.134 265.439 484.303 266.074C484.471 266.708 484.887 267.249 485.457 267.576C486.028 267.904 486.706 267.992 487.342 267.82C487.977 267.648 488.518 267.231 488.844 266.66L493.143 259.245L493.143 259.246C496.428 265.88 496.174 273.709 492.463 280.116C491.48 281.815 489.859 283.055 487.959 283.564C486.057 284.072 484.03 283.807 482.325 282.826L468.476 274.873C467.292 274.192 465.779 274.597 465.097 275.776C464.414 276.953 464.82 278.46 466.004 279.139L479.853 287.093L479.853 287.094C482.692 288.726 486.067 289.168 489.234 288.323C492.401 287.477 495.102 285.413 496.741 282.586C500.35 276.364 501.33 268.969 499.462 262.027C497.595 255.087 493.033 249.169 486.784 245.579L486.785 245.579ZM433.223 278.122L424.224 272.027L433.867 262.422C435.166 264.422 435.911 266.73 436.024 269.109C435.441 268.526 434.604 268.273 433.792 268.432C432.982 268.593 432.306 269.145 431.989 269.904C431.672 270.665 431.757 271.532 432.216 272.216C432.676 272.9 433.448 273.311 434.273 273.31C434.795 273.299 435.3 273.12 435.711 272.798C435.292 274.736 434.443 276.556 433.223 278.122L433.223 278.122ZM432.501 256.825L418.901 270.37L418.903 270.37C416.978 272.273 414.473 273.485 411.78 273.818L417.053 260.966L417.053 260.967C417.642 261.539 418.479 261.783 419.285 261.616C420.09 261.45 420.761 260.895 421.072 260.135C421.383 259.377 421.295 258.514 420.835 257.832C420.376 257.152 419.607 256.744 418.784 256.743L420.742 251.971C425.045 252.444 429.124 254.128 432.502 256.825L432.501 256.825ZM405.151 276.992C404.828 278.018 403.874 278.716 402.795 278.716L390.263 278.717C389.113 278.697 388.12 277.914 387.834 276.805L383.072 265.205C382.556 263.947 381.112 263.342 379.847 263.857C378.583 264.37 377.976 265.808 378.493 267.068L381.268 273.817C378.574 273.484 376.068 272.273 374.14 270.37L370.183 266.431C370.969 266.142 371.554 265.474 371.734 264.659C371.914 263.843 371.666 262.994 371.074 262.402C370.482 261.812 369.629 261.562 368.81 261.739C367.99 261.915 367.318 262.495 367.026 263.277L360.55 256.834C363.922 254.136 367.994 252.449 372.291 251.969L374.835 258.159C375.076 258.772 375.556 259.264 376.164 259.523C376.772 259.781 377.46 259.787 378.072 259.537C378.684 259.287 379.171 258.805 379.423 258.195C379.674 257.586 379.67 256.901 379.411 256.295L375.045 245.658C388.934 240.71 404.117 240.708 418.008 245.653L405.151 276.992ZM476.555 239.702L469.558 235.68L468.714 222.255L477.666 222.254L476.555 239.702ZM468.229 177.935C469.762 177.937 471.258 178.41 472.511 179.292C473.763 180.173 474.712 181.419 475.225 182.858L473.175 182.859C471.642 182.857 470.146 182.383 468.893 181.502C467.641 180.62 466.692 179.374 466.179 177.935L468.229 177.935ZM464.521 187.784L481.831 187.782C483.196 187.782 484.304 188.884 484.304 190.244C484.304 191.604 483.197 192.706 481.831 192.707L464.521 192.709C463.156 192.709 462.048 191.607 462.048 190.247C462.048 188.887 463.155 187.784 464.521 187.784V187.784ZM458.34 197.634L488.014 197.63C489.38 197.63 490.487 198.733 490.487 200.092C490.487 201.452 489.38 202.555 488.015 202.555L458.34 202.559C456.975 202.559 455.867 201.457 455.867 200.097C455.867 198.737 456.974 197.634 458.34 197.634V197.634ZM455.868 207.484L485.613 207.48C484.507 207.912 483.866 209.068 484.088 210.231C484.309 211.392 485.329 212.234 486.517 212.234C487.706 212.234 488.726 211.392 488.946 210.23C489.168 209.067 488.526 207.912 487.42 207.48L490.489 207.479C492.257 207.479 493.889 208.418 494.773 209.941C495.656 211.465 495.656 213.342 494.773 214.866C493.89 216.389 492.258 217.328 490.49 217.329L455.87 217.333C454.103 217.333 452.47 216.395 451.587 214.871C450.703 213.348 450.703 211.47 451.586 209.947C452.469 208.423 454.102 207.484 455.869 207.484L455.868 207.484ZM456.825 222.257L463.749 222.257L464.408 232.726L457.651 228.84L456.825 222.257ZM458.841 249.428C458.157 250.607 456.646 251.01 455.463 250.33C454.281 249.65 453.877 248.144 454.56 246.967L460.741 236.304L465.025 238.766L458.841 249.428Z" fill="#FAEBDA"/>
<path d="M396.519 249.349C396.519 250.709 395.412 251.811 394.047 251.811C392.681 251.812 391.574 250.709 391.574 249.349C391.573 247.99 392.68 246.887 394.046 246.887C395.412 246.886 396.519 247.989 396.519 249.349Z" fill="#FAEBDA"/>
<path d="M388.913 259.014C388.913 260.373 387.806 261.476 386.44 261.476C385.075 261.476 383.967 260.374 383.967 259.014C383.967 257.654 385.074 256.552 386.44 256.551C387.805 256.551 388.912 257.654 388.913 259.014Z" fill="#FAEBDA"/>
<path d="M403.157 259.073C404.453 259.501 405.851 258.803 406.282 257.514L408.754 250.126C409.184 248.834 408.483 247.438 407.185 247.008C405.888 246.579 404.486 247.278 404.056 248.57L401.584 255.958C401.377 256.579 401.427 257.256 401.722 257.841C402.016 258.424 402.533 258.868 403.157 259.073L403.157 259.073Z" fill="#FAEBDA"/>
<path d="M835.624 223.661C835.956 223.994 836.391 224.16 836.827 224.16C837.262 224.16 837.698 223.994 838.03 223.661C838.696 222.996 838.696 221.921 838.03 221.256L820.207 203.433C819.542 202.768 818.466 202.768 817.802 203.433C817.136 204.099 817.136 205.174 817.802 205.839L835.624 223.661Z" fill="#FAEBDA"/>
<path d="M841.546 213.181C841.878 213.513 842.314 213.679 842.749 213.679C843.185 213.679 843.62 213.513 843.953 213.181C844.618 212.515 844.618 211.44 843.953 210.776L826.131 192.953C825.465 192.287 824.39 192.287 823.726 192.953C823.06 193.619 823.06 194.694 823.726 195.358L841.546 213.181Z" fill="#FAEBDA"/>
<path d="M853.228 207.528C853.663 207.528 854.099 207.362 854.431 207.03C855.097 206.364 855.097 205.289 854.431 204.625L836.611 186.802C835.945 186.136 834.87 186.136 834.205 186.802C833.54 187.468 833.54 188.543 834.205 189.207L852.026 207.03C852.359 207.362 852.792 207.528 853.228 207.528H853.228Z" fill="#FAEBDA"/>
<path d="M831.18 231.337C834.652 234.809 839.211 236.544 843.772 236.544C847.828 236.544 851.88 235.163 855.169 232.417L864.427 242.605L854.577 251.647L853.134 250.204C852.813 249.884 852.381 249.706 851.93 249.706C851.48 249.706 851.046 249.885 850.727 250.204L809.196 291.738C807.175 293.759 806.061 296.447 806.061 299.305C806.061 302.163 807.174 304.851 809.196 306.872C811.282 308.959 814.022 310 816.763 310C819.504 310 822.244 308.957 824.33 306.872L865.864 265.338C866.53 264.672 866.53 263.597 865.864 262.933L864.421 261.49L872.751 252.416L881.311 261.74L880.119 262.932C879.453 263.598 879.453 264.673 880.119 265.338L921.653 306.872C923.74 308.958 926.479 310 929.22 310C931.961 310 934.701 308.957 936.787 306.872C940.958 302.699 940.958 295.91 936.787 291.739L895.253 250.205C894.587 249.54 893.512 249.54 892.847 250.205L891.155 251.897L881.429 242.967L891.699 231.782C896.266 234.853 901.562 236.399 906.865 236.399C913.831 236.399 920.796 233.747 926.1 228.444C936.254 218.29 948.231 189.68 937.31 178.763C932.402 173.854 923.406 173.039 911.981 176.471C902.703 179.258 892.918 184.684 887.63 189.972C878.291 199.311 877.185 213.802 884.291 224.374L872.465 235.23L862.095 225.611L862.342 225.364C865.707 222.001 867.557 217.53 867.557 212.772C867.557 208.013 865.705 203.544 862.342 200.18L836.656 174.499C835.99 173.834 834.915 173.834 834.25 174.499L805.499 203.247C804.834 203.913 804.834 204.988 805.499 205.652L831.18 231.337ZM821.924 304.466C819.078 307.312 814.446 307.311 811.601 304.466C810.221 303.086 809.463 301.254 809.463 299.305C809.463 297.355 810.221 295.522 811.601 294.143L845.353 260.391L855.675 270.713L821.924 304.466ZM858.081 268.309L847.759 257.987L851.933 253.812L862.256 264.134L858.081 268.309ZM934.382 304.466C931.534 307.312 926.904 307.311 924.06 304.466L890.275 270.681L900.597 260.359L934.382 294.144C937.228 296.99 937.228 301.621 934.382 304.465V304.466ZM894.05 253.813L898.19 257.953L887.868 268.275L883.728 264.135L894.05 253.813ZM888.748 254.306L883.721 259.333L875.062 249.902L879.128 245.473L888.748 254.306ZM934.252 181.818C938.257 185.823 926.216 207.491 915.628 218.079C911.116 222.591 905.903 225.831 900.953 227.197C896.338 228.471 892.573 227.946 890.348 225.721C885.569 220.939 889.069 209.363 897.991 200.44C902.887 195.544 911.13 189.62 918.505 185.693C924.887 182.296 929.214 181.1 931.766 181.1C932.993 181.102 933.812 181.378 934.252 181.818L934.252 181.818ZM923.692 226.038C916.698 233.033 906.399 234.749 897.776 231.199C904.052 230.716 911.534 226.986 918.033 220.485C924.852 213.666 935.797 197.973 937.956 187.575C940.017 199.244 931.26 218.471 923.693 226.035L923.692 226.038ZM890.035 192.38C894.962 187.453 904.174 182.371 912.959 179.732C917.263 178.439 921.19 177.798 924.586 177.798C925.966 177.798 927.245 177.917 928.438 178.128C918.04 180.314 902.395 191.231 895.588 198.038C889.107 204.518 885.354 211.981 884.851 218.245C881.33 209.632 883.057 199.359 890.036 192.38L890.035 192.38ZM887.63 228.444C887.925 228.739 888.245 228.997 888.552 229.277L888.984 229.708L877.795 241.895C877.787 241.903 877.776 241.905 877.768 241.914C877.76 241.922 877.757 241.934 877.751 241.942L871.602 248.642C871.602 248.642 871.601 248.642 871.601 248.643C871.6 248.644 871.6 248.647 871.598 248.648L862.017 259.083L856.991 254.056L886.364 227.09L886.798 227.524C887.077 227.83 887.333 228.15 887.63 228.444L887.63 228.444ZM869.949 237.538L866.935 240.305L857.636 230.069L859.688 228.018L869.949 237.538ZM835.456 178.108L859.936 202.588C862.658 205.31 864.154 208.927 864.154 212.774C864.154 216.622 862.656 220.238 859.936 222.959L853.964 228.931C848.347 234.546 839.207 234.549 833.591 228.931L809.112 204.452L835.456 178.108Z" fill="#FAEBDA"/>
<path d="M536.529 273.587C534.744 272.955 533.199 271.643 532.32 269.801L519.703 243.363C518.851 241.579 518.746 239.572 519.405 237.708C520.065 235.845 521.41 234.35 523.193 233.5L609.454 192.337C613.136 190.581 617.56 192.145 619.316 195.827L631.933 222.267C633.69 225.948 632.124 230.373 628.443 232.129L542.182 273.293C540.341 274.17 538.315 274.218 536.529 273.586L536.529 273.587ZM613.712 195.977C612.935 195.702 612.052 195.723 611.25 196.105L599.395 201.763L524.99 237.271C524.214 237.641 523.627 238.291 523.34 239.103C523.053 239.914 523.1 240.789 523.47 241.565L536.087 268.005C536.852 269.608 538.779 270.29 540.381 269.525L626.642 228.361C628.245 227.596 628.927 225.669 628.162 224.067L615.545 197.627C615.162 196.825 614.49 196.254 613.711 195.978L613.712 195.977Z" fill="#FAEBDA"/>
<path d="M537.823 254.409C537.319 254.23 536.884 253.859 536.635 253.339L534.309 248.465C532.487 244.645 534.111 240.057 537.93 238.234L579.159 218.56C580.2 218.064 581.446 218.505 581.943 219.545C582.44 220.585 581.999 221.832 580.958 222.329L539.727 242.006C537.987 242.836 537.247 244.928 538.077 246.668L540.404 251.543C540.901 252.585 540.46 253.83 539.418 254.327C538.898 254.575 538.327 254.589 537.823 254.41L537.823 254.409Z" fill="#FAEBDA"/>
<path d="M589.277 217.684C588.773 217.506 588.337 217.135 588.089 216.615C587.591 215.573 588.032 214.328 589.074 213.831L595.684 210.676C596.725 210.18 597.972 210.62 598.468 211.662C598.965 212.703 598.524 213.949 597.482 214.446L590.873 217.6C590.353 217.848 589.781 217.862 589.276 217.684L589.277 217.684Z" fill="#FAEBDA"/>
<path d="M535.895 188.466C537.448 189.015 538.262 190.721 537.712 192.273C537.163 193.826 535.458 194.64 533.905 194.09C532.352 193.541 531.538 191.836 532.088 190.283C532.637 188.73 534.341 187.916 535.895 188.466Z" fill="#FAEBDA"/>
<path d="M522.134 218.406C523.686 218.955 524.5 220.66 523.951 222.213C523.401 223.766 521.696 224.58 520.143 224.03C518.59 223.481 517.776 221.776 518.326 220.223C518.876 218.669 520.58 217.856 522.134 218.406Z" fill="#FAEBDA"/>
<path d="M612.945 256.873C614.498 257.422 615.312 259.127 614.762 260.68C614.212 262.233 612.507 263.047 610.954 262.497C609.402 261.948 608.588 260.242 609.138 258.689C609.687 257.136 611.391 256.323 612.945 256.873Z" fill="#FAEBDA"/>
<path d="M587.035 178.085C588.588 178.634 589.401 180.34 588.852 181.892C588.302 183.445 586.597 184.259 585.044 183.709C583.492 183.16 582.678 181.455 583.227 179.902C583.777 178.349 585.481 177.535 587.035 178.085Z" fill="#FAEBDA"/>
<path d="M625.562 217.356C625.058 217.178 624.623 216.808 624.374 216.287L619.21 205.466C618.714 204.426 619.155 203.179 620.196 202.682L625.429 200.185C627.957 198.978 628.157 198.539 628.898 196.905C629.295 196.03 629.839 194.831 630.839 193.277C632.25 191.088 634.243 189.335 636.602 188.21C640.115 186.534 644.213 186.393 647.829 187.819C651.503 189.267 654.326 192.097 655.776 195.787C658.35 202.333 655.644 209.833 649.482 213.232C646.966 214.62 644.136 215.207 641.298 214.926C639.352 214.734 638.044 214.366 637.089 214.098C635.501 213.652 635.021 213.518 632.62 214.664L627.157 217.271C626.637 217.521 626.066 217.535 625.562 217.356L625.562 217.356ZM623.878 205.553L627.244 212.605L630.822 210.897C634.456 209.163 636 209.458 638.218 210.08C639.113 210.331 640.128 210.616 641.709 210.772C643.702 210.969 645.693 210.556 647.465 209.578C651.797 207.189 653.7 201.918 651.89 197.318C650.868 194.717 648.881 192.725 646.298 191.707C643.713 190.689 640.908 190.785 638.402 191.982C636.742 192.774 635.341 194.005 634.352 195.542C633.517 196.838 633.084 197.792 632.702 198.633C631.699 200.843 630.95 202.179 627.229 203.955L623.878 205.553Z" fill="#FAEBDA"/>
<path d="M504.276 277.986C501.177 276.889 498.458 274.716 496.737 271.682C494.78 268.231 494.355 264.255 495.541 260.487C496.71 256.771 499.396 253.678 502.911 252C505.274 250.873 507.891 250.426 510.48 250.707C512.318 250.907 513.593 251.238 514.523 251.481C516.261 251.933 516.728 252.054 519.258 250.846L524.495 248.347C524.996 248.108 525.569 248.078 526.091 248.263C526.613 248.448 527.04 248.832 527.279 249.332L532.445 260.159C532.684 260.66 532.714 261.233 532.529 261.756C532.344 262.278 531.961 262.705 531.46 262.943L525.994 265.552C523.591 266.699 523.394 267.157 522.741 268.672C522.348 269.584 521.811 270.832 520.735 272.466C519.167 274.849 516.931 276.681 514.268 277.765C510.978 279.103 507.429 279.101 504.276 277.986L504.276 277.986ZM524.408 253.014L521.056 254.615C517.333 256.391 515.822 256.132 513.473 255.521C512.578 255.288 511.564 255.024 510.029 254.859C508.21 254.661 506.371 254.975 504.71 255.768C502.201 256.966 500.36 259.086 499.525 261.739C498.69 264.39 498.991 267.188 500.369 269.621C502.809 273.924 508.107 275.763 512.693 273.897C514.57 273.133 516.144 271.844 517.245 270.172C518.119 268.843 518.536 267.875 518.904 267.02C519.816 264.903 520.56 263.517 524.195 261.783L527.776 260.074L524.408 253.014Z" fill="#FAEBDA"/>
<path d="M558.107 201.705C554.695 200.498 552.903 196.741 554.11 193.329C555.318 189.917 559.075 188.125 562.486 189.332C565.898 190.54 567.691 194.297 566.483 197.708C565.276 201.12 561.519 202.913 558.107 201.705ZM561.093 193.269C559.853 192.83 558.486 193.482 558.047 194.722C557.608 195.963 558.26 197.329 559.501 197.768C560.741 198.207 562.108 197.555 562.547 196.315C562.986 195.075 562.333 193.708 561.093 193.269Z" fill="#FAEBDA"/>
<path d="M629.294 255.379C625.882 254.172 624.089 250.415 625.297 247.003C626.504 243.591 630.261 241.799 633.673 243.006C637.085 244.214 638.877 247.971 637.67 251.382C636.462 254.794 632.705 256.587 629.294 255.379ZM632.28 246.943C631.039 246.504 629.673 247.156 629.234 248.397C628.795 249.637 629.447 251.003 630.687 251.442C631.928 251.881 633.294 251.229 633.733 249.989C634.172 248.749 633.52 247.382 632.28 246.943Z" fill="#FAEBDA"/>
</g>
<defs>
<clipPath id="clip0_166_270">
<rect width="1440" height="262" fill="white"/>
</clipPath>
</defs>
</svg>
