<?xml version="1.0" encoding="UTF-8" standalone="no"?>
<!-- Created with Inkscape (http://www.inkscape.org/) -->

<svg
   width="382.18008mm"
   height="95.733498mm"
   viewBox="0 0 382.18008 95.733498"
   version="1.1"
   id="svg5"
   xml:space="preserve"
   xmlns:inkscape="http://www.inkscape.org/namespaces/inkscape"
   xmlns:sodipodi="http://sodipodi.sourceforge.net/DTD/sodipodi-0.dtd"
   xmlns="http://www.w3.org/2000/svg"
   xmlns:svg="http://www.w3.org/2000/svg"><sodipodi:namedview
     id="namedview7"
     pagecolor="#505050"
     bordercolor="#eeeeee"
     borderopacity="1"
     inkscape:showpageshadow="0"
     inkscape:pageopacity="0"
     inkscape:pagecheckerboard="0"
     inkscape:deskcolor="#505050"
     inkscape:document-units="mm"
     showgrid="false" /><defs
     id="defs2"><clipPath
       id="clip0_166_270"><rect
         width="1440"
         height="262"
         fill="#ffffff"
         id="rect369"
         x="0"
         y="0" /></clipPath></defs><g
     inkscape:label="Capa 1"
     inkscape:groupmode="layer"
     id="layer1"
     transform="translate(174.50634,-43.343905)"><g
       id="g3077"
       transform="translate(2.2614215,-39.951777)"
       inkscape:export-filename="fondoconVectores.svg"
       inkscape:export-xdpi="96"
       inkscape:export-ydpi="96"><rect
         style="fill:#975c3e;fill-opacity:1;stroke-width:0.264583"
         id="rect536"
         width="382.18008"
         height="95.733505"
         x="-176.76776"
         y="83.295685"
         ry="0.75380713" /><g
         style="fill:none"
         id="g475"
         transform="matrix(0.26458333,0,0,0.26458333,-176.66855,109.11963)"><g
           clip-path="url(#clip0_166_270)"
           id="g367"><path
             d="m 1320.44,209.946 c 0,1.36 1.14,2.463 2.56,2.463 1.41,0 2.56,-1.102 2.56,-2.462 0,-1.36 -1.15,-2.463 -2.56,-2.463 -1.42,0 -2.56,1.102 -2.56,2.462 z"
             fill="#faebda"
             id="path179" /><path
             d="m 1308.64,214.871 c 0,1.36 1.14,2.463 2.56,2.463 1.41,0 2.56,-1.102 2.56,-2.462 0,-1.36 -1.15,-2.462 -2.56,-2.463 -1.42,0 -2.56,1.103 -2.56,2.462 z"
             fill="#faebda"
             id="path181" /><path
             d="m 1407.51,197.633 c 0,1.359 1.15,2.462 2.56,2.462 1.42,0.001 2.56,-1.102 2.56,-2.462 0,-1.36 -1.14,-2.462 -2.56,-2.462 -1.41,-0.001 -2.56,1.102 -2.56,2.462 z"
             fill="#faebda"
             id="path183" /><path
             d="m 1407.51,209.946 c 0,1.36 1.15,2.462 2.56,2.463 1.42,0 2.56,-1.103 2.56,-2.462 0,-1.36 -1.14,-2.463 -2.56,-2.463 -1.41,0 -2.56,1.102 -2.56,2.462 z"
             fill="#faebda"
             id="path185" /><path
             d="m 1402.39,232.11 c 0,1.36 1.14,2.463 2.56,2.463 1.41,0 2.56,-1.102 2.56,-2.462 0,-1.36 -1.15,-2.463 -2.56,-2.463 -1.41,0 -2.56,1.102 -2.56,2.462 z"
             fill="#faebda"
             id="path187" /><path
             d="m 1371.66,197.632 c 0,1.36 1.14,2.463 2.56,2.463 1.41,0 2.56,-1.102 2.56,-2.462 0,-1.36 -1.15,-2.462 -2.56,-2.463 -1.42,0 -2.56,1.103 -2.56,2.462 z"
             fill="#faebda"
             id="path189" /><path
             d="m 1394.71,202.558 c 0,1.36 1.14,2.462 2.56,2.463 1.41,0 2.56,-1.103 2.56,-2.462 0,-1.36 -1.15,-2.463 -2.56,-2.463 -1.42,0 -2.56,1.102 -2.56,2.462 z"
             fill="#faebda"
             id="path191" /><path
             d="m 1394.71,217.334 c 0,1.36 1.14,2.463 2.56,2.463 1.41,0 2.56,-1.103 2.56,-2.462 0,-1.36 -1.15,-2.463 -2.56,-2.463 -1.42,0 -2.56,1.102 -2.56,2.462 z"
             fill="#faebda"
             id="path193" /><path
             d="m 1363.97,202.558 c 0,1.359 1.15,2.462 2.56,2.462 1.42,10e-4 2.56,-1.102 2.57,-2.462 0,-1.359 -1.15,-2.462 -2.56,-2.462 -1.42,-0.001 -2.57,1.102 -2.57,2.462 z"
             fill="#faebda"
             id="path195" /><path
             d="m 1381.9,212.409 c 0,1.36 1.15,2.462 2.56,2.462 1.41,0.001 2.56,-1.102 2.56,-2.462 0,-1.359 -1.14,-2.462 -2.56,-2.462 -1.41,0 -2.56,1.102 -2.56,2.462 z"
             fill="#faebda"
             id="path197" /><path
             d="m 1370.63,219.796 c 0,1.36 1.15,2.463 2.56,2.463 1.42,0 2.57,-1.102 2.57,-2.462 0,-1.36 -1.15,-2.462 -2.56,-2.463 -1.42,0 -2.57,1.103 -2.57,2.462 z"
             fill="#faebda"
             id="path199" /><path
             d="m 1383.18,230.88 c 0,1.36 1.15,2.463 2.56,2.463 1.41,0 2.56,-1.102 2.56,-2.462 0,-1.36 -1.15,-2.463 -2.56,-2.463 -1.41,0 -2.56,1.102 -2.56,2.462 z"
             fill="#faebda"
             id="path201" /><path
             d="m 1296.11,245.579 5.63,-3.135 -1.33,-20.191 h -7.17 l 2.13,16.404 c 0.17,1.347 -0.83,2.576 -2.23,2.744 -0.1,0.015 -0.21,0.021 -0.32,0.02 -1.29,0 -2.38,-0.925 -2.54,-2.157 l -2.32,-17.951 v 0.001 c -2.39,-1.053 -4.26,-2.949 -5.23,-5.295 -0.96,-2.345 -0.96,-4.96 0.03,-7.299 0.99,-2.34 2.87,-4.223 5.26,-5.261 -0.57,-1.039 -0.86,-2.194 -0.87,-3.368 0.01,-1.824 0.72,-3.579 1.99,-4.929 1.28,-1.351 3.03,-2.198 4.91,-2.381 -0.32,-0.81 -0.49,-1.67 -0.49,-2.539 0,-1.958 0.81,-3.838 2.25,-5.223 1.44,-1.384 3.39,-2.163 5.43,-2.162 h 1.54 c 0.59,-2.779 2.16,-5.276 4.45,-7.07 2.29,-1.794 5.15,-2.775 8.1,-2.778 l 5.12,0.001 c 1.41,0 2.56,1.103 2.56,2.462 -0.01,2.721 -0.97,5.359 -2.72,7.496 2.29,0.299 4.31,1.588 5.49,3.501 1.18,1.913 1.39,4.238 0.57,6.316 1.89,0.184 3.64,1.031 4.91,2.383 1.27,1.35 1.98,3.105 1.99,4.929 -0.01,1.175 -0.32,2.33 -0.89,3.368 2.39,1.038 4.28,2.923 5.26,5.263 0.98,2.339 0.99,4.953 0.02,7.299 -0.97,2.345 -2.84,4.24 -5.23,5.293 l -0.57,4.432 8.63,-4.788 c 2.38,-1.324 4.96,-2.302 7.64,-2.903 -4.84,-7.509 -5.93,-16.711 -2.96,-25.073 2.97,-8.362 9.68,-15.006 18.29,-18.103 8.6,-3.098 18.2,-2.322 26.15,2.113 8.47,-4.726 18.78,-5.278 27.75,-1.485 8.97,3.793 15.52,11.474 17.62,20.674 2.1,9.2 -0.49,18.813 -6.97,25.875 v 7.594 c 0,1.36 -1.15,2.462 -2.56,2.462 -1.42,0 -2.56,-1.103 -2.56,-2.463 v -8.544 c 0,-0.629 0.25,-1.235 0.7,-1.692 5.78,-5.889 8.18,-14.139 6.41,-22.059 -1.77,-7.92 -7.49,-14.492 -15.28,-17.571 -7.79,-3.08 -16.66,-2.272 -23.71,2.159 -0.85,0.536 -1.95,0.535 -2.8,0 -6.78,-4.273 -15.25,-5.206 -22.86,-2.513 -7.6,2.691 -13.42,8.689 -15.69,16.165 -2.28,7.477 -0.73,15.547 4.17,21.749 2.56,-0.055 5.12,0.224 7.6,0.829 l -2.08,-2.135 c -3.2,-3.245 -5.14,-7.44 -5.52,-11.892 -0.38,-4.452 0.83,-8.895 3.44,-12.596 0.37,-0.562 0.96,-0.954 1.64,-1.089 0.67,-0.137 1.38,-0.002 1.95,0.37 0.58,0.373 0.97,0.953 1.09,1.608 0.12,0.655 -0.04,1.33 -0.44,1.869 -1.95,2.776 -2.86,6.106 -2.57,9.445 0.28,3.337 1.74,6.481 4.14,8.912 l 2.79,2.859 c 0.44,0.457 0.69,1.06 0.68,1.684 v 2.709 c 5.21,2.338 9.55,6.165 12.42,10.959 1.22,2.03 1.79,4.356 1.66,6.698 10.78,-1.32 21.73,-0.247 32.01,3.135 l 0.01,-23.495 c 0,-0.625 0.25,-1.228 0.69,-1.684 l 2.79,-2.859 c 2.77,-2.808 4.28,-6.548 4.2,-10.415 -0.08,-3.866 -1.73,-7.548 -4.6,-10.255 -2.87,-2.705 -6.74,-4.218 -10.76,-4.212 -2.97,-0.003 -5.88,0.834 -8.36,2.409 l -5.61,3.496 v 0 c -0.85,0.528 -1.94,0.528 -2.79,0 l -5.63,-3.505 c -4.26,-2.656 -9.6,-3.125 -14.29,-1.253 -1.3,0.53 -2.81,-0.057 -3.36,-1.31 -0.55,-1.254 0.06,-2.699 1.37,-3.228 6.26,-2.495 13.39,-1.871 19.08,1.667 l 4.23,2.628 4.2,-2.617 c 3.31,-2.1 7.19,-3.217 11.16,-3.212 5.36,-0.006 10.51,2.012 14.34,5.62 3.83,3.608 6.04,8.518 6.14,13.672 0.1,5.154 -1.9,10.143 -5.59,13.889 l -2.09,2.145 -0.01,26.06 c -0.01,0.202 -0.05,0.398 -0.12,0.59 -0.01,0.111 -0.04,0.222 -0.06,0.332 v 0.014 l -0.02,0.039 -0.87,2.056 v 0.001 c 2.12,0.332 4.2,0.894 6.2,1.675 v -9.458 c 0,-1.36 1.14,-2.462 2.56,-2.462 1.41,0 2.56,1.103 2.56,2.463 v 12.065 c 1.57,1.008 3.03,2.164 4.37,3.448 1,0.962 1,2.521 0,3.481 l -0.42,0.397 c 2.42,3.16 3.72,6.976 3.73,10.896 0.03,5.053 -2.13,9.892 -5.95,13.36 -0.88,0.795 -2.21,0.898 -3.2,0.246 l -5.26,-3.448 c -0.6,-0.35 -1.03,-0.923 -1.18,-1.583 -0.15,-0.661 -0.01,-1.352 0.39,-1.911 0.4,-0.559 1.01,-0.936 1.71,-1.044 0.69,-0.107 1.4,0.064 1.96,0.475 l 3.43,2.244 c 1.04,-1.278 1.82,-2.73 2.3,-4.281 -1.1,-0.276 -1.88,-1.235 -1.89,-2.335 0.01,-1.33 1.11,-2.414 2.5,-2.45 -0.13,-2.36 -0.9,-4.649 -2.23,-6.633 l -11.88,11.414 v -10e-4 c -3.35,3.248 -7.93,5.068 -12.69,5.054 h -0.47 c -0.55,1.395 -1.53,2.595 -2.81,3.442 -1.27,0.847 -2.79,1.3 -4.34,1.299 l -12.98,-0.002 c -1.55,0.011 -3.07,-0.439 -4.35,-1.286 -1.29,-0.849 -2.26,-2.056 -2.81,-3.457 h -0.46 c -3.87,0.001 -7.63,-1.21 -10.72,-3.448 l -12.12,7.932 c -0.99,0.651 -2.32,0.549 -3.2,-0.247 -3.82,-3.465 -5.97,-8.301 -5.94,-13.351 0,-1.862 0.3,-3.713 0.88,-5.491 l -17.87,9.921 c -1.23,0.68 -2.79,0.276 -3.5,-0.903 -0.71,-1.178 -0.29,-2.684 0.94,-3.364 l 22.28,-12.366 v 0.001 c -0.34,-0.897 -0.12,-1.905 0.58,-2.586 4.26,-4.092 9.76,-6.789 15.7,-7.71 l -0.89,-2.111 c -0.26,-0.605 -0.26,-1.287 0,-1.893 0.26,-0.603 0.77,-1.079 1.4,-1.322 3.99,-1.531 8.11,-2.714 12.32,-3.537 0.38,-1.732 0.09,-3.538 -0.82,-5.077 -3.85,-6.402 -10.77,-10.537 -18.44,-11.023 l 4.45,7.417 v 0 c 0.35,0.565 0.44,1.24 0.27,1.874 -0.18,0.634 -0.61,1.175 -1.2,1.502 -0.59,0.329 -1.29,0.417 -1.95,0.244 -0.66,-0.171 -1.22,-0.589 -1.55,-1.159 l -5.73,-9.542 c -2.58,0.448 -5.06,1.319 -7.33,2.572 l -6.66,3.692 6.4,10.665 v 0.001 c 0.71,1.175 2.28,1.578 3.5,0.899 1.22,-0.68 1.64,-2.186 0.94,-3.363 l -2.93,-4.871 c -0.7,-1.179 -0.28,-2.684 0.94,-3.365 1.23,-0.68 2.79,-0.275 3.5,0.903 l 2.92,4.873 c 1.37,2.288 1.37,5.106 0,7.392 -1.37,2.286 -3.91,3.693 -6.66,3.692 -2.75,-0.001 -5.28,-1.411 -6.65,-3.698 l -6.4,-10.663 -4.44,2.462 6.4,10.662 c 1.37,2.288 1.37,5.106 0,7.392 -1.38,2.286 -3.92,3.693 -6.66,3.692 -2.75,-10e-4 -5.29,-1.41 -6.66,-3.698 l -6.4,-10.663 -13.31,7.386 6.4,10.664 c 0.71,1.168 2.27,1.565 3.48,0.888 1.22,-0.677 1.65,-2.172 0.95,-3.349 l -2.87,-4.788 v 0.001 c -0.7,-1.177 -0.28,-2.673 0.94,-3.349 1.22,-0.677 2.78,-0.281 3.49,0.887 l 2.88,4.79 v -0.001 c 1.37,2.288 1.37,5.105 -0.01,7.392 -1.37,2.286 -3.91,3.694 -6.66,3.692 -2.74,-10e-4 -5.28,-1.411 -6.65,-3.699 l -6.33,-10.536 c -1.41,1.003 -2.7,2.159 -3.84,3.446 l 5.78,9.542 c 0.35,0.567 0.44,1.241 0.27,1.876 -0.18,0.634 -0.61,1.175 -1.2,1.502 -0.59,0.328 -1.29,0.416 -1.95,0.244 -0.66,-0.172 -1.22,-0.589 -1.56,-1.16 l -4.45,-7.415 v 10e-4 c -3.4,6.634 -3.14,14.463 0.71,20.87 1.01,1.699 2.69,2.939 4.66,3.448 1.97,0.508 4.07,0.243 5.83,-0.738 l 14.35,-7.953 c 1.22,-0.681 2.79,-0.276 3.49,0.903 0.71,1.177 0.29,2.684 -0.93,3.363 l -14.35,7.954 v 10e-4 c -2.94,1.632 -6.43,2.074 -9.71,1.229 -3.28,-0.846 -6.08,-2.91 -7.78,-5.737 -3.73,-6.222 -4.75,-13.617 -2.81,-20.559 1.93,-6.94 6.66,-12.858 13.13,-16.448 z m 55.46,32.543 9.32,-6.095 -9.98,-9.605 c -1.35,2 -2.12,4.308 -2.24,6.687 0.61,-0.583 1.47,-0.836 2.31,-0.677 0.84,0.161 1.54,0.713 1.87,1.472 0.33,0.761 0.24,1.628 -0.24,2.312 -0.47,0.684 -1.27,1.095 -2.13,1.094 -0.54,-0.011 -1.06,-0.19 -1.48,-0.512 0.43,1.938 1.31,3.758 2.57,5.324 z m 0.75,-21.297 14.08,13.545 v 0 c 1.99,1.903 4.59,3.115 7.38,3.448 l -5.46,-12.852 v 10e-4 c -0.61,0.572 -1.48,0.816 -2.31,0.649 -0.84,-0.166 -1.53,-0.721 -1.85,-1.481 -0.33,-0.758 -0.23,-1.621 0.24,-2.303 0.48,-0.68 1.27,-1.088 2.13,-1.089 l -2.03,-4.772 c -4.46,0.473 -8.68,2.157 -12.18,4.854 z m 28.32,20.167 c 0.34,1.026 1.32,1.724 2.44,1.724 l 12.98,10e-4 c 1.19,-0.02 2.22,-0.803 2.51,-1.912 l 4.94,-11.6 c 0.53,-1.258 2.03,-1.863 3.34,-1.348 1.3,0.513 1.93,1.951 1.4,3.211 l -2.88,6.749 c 2.79,-0.333 5.39,-1.544 7.38,-3.447 l 4.1,-3.939 c -0.81,-0.289 -1.42,-0.957 -1.6,-1.772 -0.19,-0.816 0.07,-1.665 0.68,-2.257 0.61,-0.59 1.5,-0.84 2.35,-0.663 0.84,0.176 1.54,0.756 1.84,1.538 l 6.71,-6.443 c -3.49,-2.698 -7.71,-4.385 -12.16,-4.865 l -2.63,6.19 c -0.25,0.613 -0.75,1.105 -1.38,1.364 -0.63,0.258 -1.34,0.264 -1.98,0.014 -0.63,-0.25 -1.13,-0.732 -1.39,-1.342 -0.26,-0.609 -0.26,-1.294 0.01,-1.9 l 4.52,-10.637 c -14.38,-4.948 -30.11,-4.95 -44.49,-0.005 z m -73.94,-37.29 7.25,-4.022 0.87,-13.425 -9.27,-0.001 z m 8.63,-61.767 c -1.59,0.002 -3.14,0.475 -4.44,1.357 -1.29,0.881 -2.28,2.127 -2.81,3.566 l 2.13,0.001 c 1.58,-0.002 3.13,-0.476 4.43,-1.357 1.3,-0.882 2.28,-2.128 2.81,-3.567 z m 3.84,9.849 -17.93,-0.002 c -1.41,0 -2.56,1.102 -2.56,2.462 0,1.36 1.15,2.462 2.56,2.463 l 17.93,0.002 c 1.41,0 2.56,-1.102 2.56,-2.462 0,-1.36 -1.15,-2.463 -2.56,-2.463 z m 6.4,9.85 -30.73,-0.004 c -1.42,0 -2.56,1.103 -2.56,2.462 0,1.36 1.14,2.463 2.56,2.463 l 30.73,0.004 c 1.41,0 2.56,-1.102 2.56,-2.462 0,-1.36 -1.15,-2.463 -2.56,-2.463 z m 2.56,9.85 -30.81,-0.004 c 1.15,0.432 1.81,1.588 1.58,2.751 -0.23,1.161 -1.28,2.003 -2.51,2.003 -1.23,0 -2.29,-0.842 -2.52,-2.004 -0.23,-1.163 0.44,-2.318 1.58,-2.75 l -3.18,-10e-4 c -1.83,0 -3.52,0.939 -4.43,2.462 -0.92,1.524 -0.92,3.401 0,4.925 0.91,1.523 2.6,2.462 4.43,2.463 l 35.85,0.004 c 1.83,0 3.52,-0.938 4.44,-2.462 0.91,-1.523 0.91,-3.401 0,-4.924 -0.91,-1.524 -2.6,-2.463 -4.44,-2.463 z m -1,14.773 h -7.17 l -0.68,10.469 7,-3.886 z m -2.08,27.171 c 0.7,1.179 2.27,1.582 3.49,0.902 1.23,-0.68 1.65,-2.186 0.94,-3.363 l -6.4,-10.663 -4.44,2.462 z"
             fill="#faebda"
             id="path203" /><path
             d="m 1389.58,249.349 c 0,1.36 1.15,2.462 2.56,2.462 1.42,0.001 2.56,-1.102 2.56,-2.462 0,-1.359 -1.14,-2.462 -2.56,-2.462 -1.41,-0.001 -2.56,1.102 -2.56,2.462 z"
             fill="#faebda"
             id="path205" /><path
             d="m 1397.46,259.014 c 0,1.359 1.14,2.462 2.56,2.462 1.41,0 2.56,-1.102 2.56,-2.462 0,-1.36 -1.15,-2.462 -2.56,-2.463 -1.41,0 -2.56,1.103 -2.56,2.463 z"
             fill="#faebda"
             id="path207" /><path
             d="m 1382.71,259.073 c -1.34,0.428 -2.79,-0.27 -3.24,-1.559 l -2.56,-7.388 c -0.44,-1.292 0.28,-2.688 1.63,-3.118 1.34,-0.429 2.79,0.27 3.24,1.562 l 2.56,7.388 c 0.21,0.621 0.16,1.298 -0.15,1.883 -0.3,0.583 -0.84,1.027 -1.48,1.232 z"
             fill="#faebda"
             id="path209" /><path
             d="m 694.436,209.946 c 0,1.36 1.146,2.463 2.56,2.463 1.414,0 2.561,-1.102 2.561,-2.462 0,-1.36 -1.146,-2.463 -2.56,-2.463 -1.414,0 -2.561,1.102 -2.561,2.462 z"
             fill="#faebda"
             id="path211" /><path
             d="m 682.637,214.871 c 0,1.36 1.146,2.463 2.56,2.463 1.414,0 2.561,-1.102 2.561,-2.462 10e-4,-1.36 -1.146,-2.462 -2.56,-2.463 -1.414,0 -2.561,1.103 -2.561,2.462 z"
             fill="#faebda"
             id="path213" /><path
             d="m 781.511,197.633 c 0,1.359 1.146,2.462 2.56,2.462 1.414,0.001 2.561,-1.102 2.561,-2.462 0.001,-1.36 -1.146,-2.462 -2.56,-2.462 -1.414,-0.001 -2.561,1.102 -2.561,2.462 z"
             fill="#faebda"
             id="path215" /><path
             d="m 781.511,209.946 c 0,1.36 1.146,2.462 2.56,2.463 1.414,0 2.561,-1.103 2.561,-2.462 0.001,-1.36 -1.146,-2.463 -2.56,-2.463 -1.414,0 -2.561,1.102 -2.561,2.462 z"
             fill="#faebda"
             id="path217" /><path
             d="m 776.388,232.11 c 0,1.36 1.146,2.463 2.56,2.463 1.414,0 2.561,-1.102 2.561,-2.462 10e-4,-1.36 -1.146,-2.463 -2.56,-2.463 -1.414,0 -2.561,1.102 -2.561,2.462 z"
             fill="#faebda"
             id="path219" /><path
             d="m 745.656,197.632 c 0,1.36 1.147,2.463 2.561,2.463 1.414,0 2.561,-1.102 2.561,-2.462 0,-1.36 -1.146,-2.462 -2.56,-2.463 -1.414,0 -2.561,1.103 -2.562,2.462 z"
             fill="#faebda"
             id="path221" /><path
             d="m 768.705,202.558 c 0,1.36 1.146,2.462 2.561,2.463 1.414,0 2.56,-1.103 2.561,-2.462 0,-1.36 -1.146,-2.463 -2.561,-2.463 -1.414,0 -2.56,1.102 -2.561,2.462 z"
             fill="#faebda"
             id="path223" /><path
             d="m 768.705,217.334 c 0,1.36 1.146,2.463 2.561,2.463 1.414,0 2.56,-1.103 2.561,-2.462 0,-1.36 -1.146,-2.463 -2.561,-2.463 -1.414,0 -2.56,1.102 -2.561,2.462 z"
             fill="#faebda"
             id="path225" /><path
             d="m 737.974,202.558 c 0,1.359 1.146,2.462 2.56,2.462 1.414,10e-4 2.561,-1.102 2.561,-2.462 0,-1.359 -1.146,-2.462 -2.56,-2.462 -1.414,-0.001 -2.561,1.102 -2.561,2.462 z"
             fill="#faebda"
             id="path227" /><path
             d="m 755.901,212.409 c -10e-4,1.36 1.146,2.462 2.56,2.462 1.414,0.001 2.561,-1.102 2.561,-2.462 0,-1.359 -1.146,-2.462 -2.56,-2.462 -1.414,0 -2.561,1.102 -2.561,2.462 z"
             fill="#faebda"
             id="path229" /><path
             d="m 744.634,219.796 c 0,1.36 1.146,2.463 2.56,2.463 1.414,0 2.561,-1.102 2.561,-2.462 10e-4,-1.36 -1.146,-2.462 -2.56,-2.463 -1.414,0 -2.561,1.103 -2.561,2.462 z"
             fill="#faebda"
             id="path231" /><path
             d="m 757.179,230.88 c 0,1.36 1.146,2.463 2.56,2.463 1.414,0 2.561,-1.102 2.561,-2.462 0.001,-1.36 -1.146,-2.463 -2.56,-2.463 -1.414,0 -2.561,1.102 -2.561,2.462 z"
             fill="#faebda"
             id="path233" /><path
             d="m 670.107,245.579 5.634,-3.135 -1.33,-20.191 h -7.17 l 2.124,16.404 c 0.174,1.347 -0.821,2.576 -2.223,2.744 -0.106,0.015 -0.212,0.021 -0.32,0.02 -1.29,0 -2.38,-0.925 -2.539,-2.157 l -2.325,-17.951 v 0.001 c -2.385,-1.053 -4.256,-2.949 -5.224,-5.295 -0.968,-2.345 -0.959,-4.96 0.027,-7.299 0.984,-2.34 2.87,-4.223 5.263,-5.261 -0.569,-1.039 -0.868,-2.194 -0.871,-3.368 0.007,-1.824 0.715,-3.579 1.99,-4.929 1.274,-1.351 3.023,-2.198 4.911,-2.381 -0.321,-0.81 -0.489,-1.67 -0.497,-2.539 0,-1.958 0.81,-3.838 2.251,-5.223 1.44,-1.384 3.395,-2.163 5.432,-2.162 h 1.537 c 0.595,-2.779 2.167,-5.276 4.454,-7.07 2.286,-1.794 5.145,-2.775 8.095,-2.778 l 5.122,0.001 c 1.414,0 2.561,1.103 2.56,2.462 -0.011,2.721 -0.969,5.359 -2.721,7.496 2.292,0.299 4.317,1.588 5.497,3.501 1.181,1.913 1.389,4.238 0.565,6.316 1.887,0.184 3.636,1.031 4.909,2.383 1.275,1.35 1.982,3.105 1.988,4.929 -0.008,1.175 -0.312,2.33 -0.886,3.368 2.392,1.038 4.276,2.923 5.26,5.263 0.984,2.339 0.992,4.953 0.023,7.299 -0.969,2.345 -2.842,4.24 -5.228,5.293 l -0.577,4.432 8.631,-4.788 c 2.386,-1.324 4.962,-2.302 7.645,-2.903 -4.842,-7.509 -5.93,-16.711 -2.962,-25.073 2.968,-8.362 9.678,-15.006 18.284,-18.103 8.607,-3.098 18.204,-2.322 26.152,2.113 8.475,-4.726 18.787,-5.278 27.754,-1.485 8.968,3.793 15.514,11.474 17.618,20.674 2.105,9.2 -0.485,18.813 -6.97,25.875 l -10e-4,7.594 c 0,1.36 -1.147,2.462 -2.561,2.462 -1.414,0 -2.561,-1.103 -2.561,-2.463 l 0.002,-8.544 c 0,-0.629 0.251,-1.235 0.7,-1.692 5.785,-5.889 8.183,-14.139 6.411,-22.059 -1.772,-7.92 -7.487,-14.492 -15.278,-17.571 -7.793,-3.08 -16.662,-2.272 -23.715,2.159 -0.85,0.536 -1.95,0.535 -2.801,0 -6.772,-4.273 -15.25,-5.206 -22.852,-2.513 -7.601,2.691 -13.426,8.689 -15.698,16.165 -2.272,7.477 -0.723,15.547 4.176,21.749 2.56,-0.055 5.116,0.224 7.599,0.829 l -2.083,-2.135 c -3.194,-3.245 -5.14,-7.44 -5.517,-11.892 -0.379,-4.452 0.834,-8.895 3.436,-12.596 0.372,-0.562 0.963,-0.954 1.641,-1.089 0.677,-0.137 1.382,-0.002 1.956,0.37 0.573,0.373 0.965,0.953 1.086,1.608 0.121,0.655 -0.038,1.33 -0.442,1.869 -1.951,2.776 -2.858,6.106 -2.573,9.445 0.286,3.337 1.748,6.481 4.144,8.912 l 2.791,2.859 c 0.441,0.457 0.686,1.06 0.683,1.684 v 2.709 c 5.211,2.338 9.546,6.165 12.415,10.959 1.218,2.03 1.796,4.356 1.666,6.698 10.778,-1.32 21.728,-0.247 32.01,3.135 l 0.004,-23.495 c 10e-4,-0.625 0.249,-1.228 0.695,-1.684 l 2.792,-2.859 c 2.764,-2.808 4.271,-6.548 4.195,-10.415 -0.076,-3.866 -1.728,-7.548 -4.601,-10.255 -2.873,-2.705 -6.736,-4.218 -10.758,-4.212 -2.973,-0.003 -5.882,0.834 -8.364,2.409 l -5.609,3.496 h 0.001 c -0.848,0.528 -1.939,0.528 -2.787,0 l -5.633,-3.505 c -4.258,-2.656 -9.603,-3.125 -14.291,-1.253 -1.303,0.53 -2.805,-0.057 -3.356,-1.31 -0.549,-1.254 0.061,-2.699 1.365,-3.228 6.26,-2.495 13.395,-1.871 19.085,1.667 l 4.225,2.628 4.203,-2.617 c 3.312,-2.1 7.194,-3.217 11.163,-3.212 5.361,-0.006 10.511,2.012 14.341,5.62 3.829,3.608 6.032,8.518 6.135,13.672 0.104,5.154 -1.901,10.143 -5.584,13.889 l -2.095,2.145 -0.005,26.06 c -0.015,0.202 -0.056,0.398 -0.124,0.59 -0.014,0.111 -0.037,0.222 -0.066,0.332 v 0.014 l -0.015,0.039 -0.874,2.056 v 0.001 c 2.125,0.332 4.205,0.894 6.2,1.675 l 0.002,-9.458 c 0,-1.36 1.147,-2.462 2.561,-2.462 1.414,0 2.56,1.103 2.56,2.463 l -0.002,12.065 c 1.571,1.008 3.034,2.164 4.371,3.448 0.999,0.962 0.998,2.521 -10e-4,3.481 l -0.413,0.397 c 2.414,3.16 3.717,6.976 3.722,10.896 0.03,5.053 -2.125,9.892 -5.948,13.36 -0.875,0.795 -2.207,0.898 -3.202,0.246 l -5.257,-3.448 c -0.601,-0.35 -1.027,-0.923 -1.177,-1.583 -0.148,-0.661 -0.009,-1.352 0.387,-1.911 0.397,-0.559 1.014,-0.936 1.709,-1.044 0.694,-0.107 1.404,0.064 1.963,0.475 l 3.428,2.244 c 1.037,-1.278 1.818,-2.73 2.306,-4.281 -1.108,-0.276 -1.884,-1.235 -1.892,-2.335 0.007,-1.33 1.11,-2.414 2.493,-2.45 -0.124,-2.36 -0.892,-4.649 -2.227,-6.633 l -11.874,11.414 v -10e-4 c -3.36,3.248 -7.932,5.068 -12.695,5.054 h -0.471 c -0.55,1.395 -1.529,2.595 -2.806,3.442 -1.277,0.847 -2.793,1.3 -4.345,1.299 l -12.977,-0.002 c -1.555,0.011 -3.076,-0.439 -4.356,-1.286 -1.28,-0.849 -2.258,-2.056 -2.801,-3.457 h -0.463 c -3.869,0.001 -7.631,-1.21 -10.719,-3.448 l -12.12,7.932 c -0.994,0.651 -2.326,0.549 -3.201,-0.247 -3.82,-3.465 -5.971,-8.301 -5.943,-13.351 0.005,-1.862 0.303,-3.713 0.883,-5.491 l -17.872,9.921 c -1.225,0.68 -2.793,0.276 -3.499,-0.903 -0.707,-1.178 -0.286,-2.684 0.939,-3.364 l 22.281,-12.366 v 0.001 c -0.345,-0.897 -0.119,-1.905 0.579,-2.586 4.263,-4.092 9.757,-6.789 15.702,-7.71 l -0.895,-2.111 c -0.261,-0.605 -0.261,-1.287 0,-1.893 0.268,-0.603 0.774,-1.079 1.409,-1.322 3.985,-1.531 8.105,-2.714 12.311,-3.537 0.382,-1.732 0.09,-3.538 -0.821,-5.077 -3.846,-6.402 -10.762,-10.537 -18.435,-11.023 l 4.451,7.417 h 10e-4 c 0.346,0.565 0.44,1.24 0.266,1.874 -0.175,0.634 -0.605,1.175 -1.196,1.502 -0.59,0.329 -1.293,0.417 -1.951,0.244 -0.657,-0.171 -1.218,-0.589 -1.555,-1.159 l -5.729,-9.542 c -2.577,0.448 -5.053,1.319 -7.323,2.572 l -6.659,3.692 6.4,10.665 v 0.001 c 0.707,1.175 2.271,1.578 3.494,0.899 1.225,-0.68 1.646,-2.186 0.938,-3.363 l -2.923,-4.871 c -0.707,-1.179 -0.287,-2.684 0.939,-3.365 1.226,-0.68 2.792,-0.275 3.499,0.903 l 2.921,4.873 c 1.372,2.288 1.37,5.106 -0.003,7.392 -1.375,2.286 -3.913,3.693 -6.659,3.692 -2.747,-0.001 -5.284,-1.411 -6.655,-3.698 l -6.4,-10.663 -4.436,2.462 6.4,10.662 c 1.371,2.288 1.371,5.106 -0.004,7.392 -1.374,2.286 -3.912,3.693 -6.658,3.692 -2.746,-10e-4 -5.284,-1.41 -6.655,-3.698 l -6.4,-10.663 -13.318,7.386 6.4,10.664 c 0.712,1.168 2.27,1.565 3.489,0.888 1.22,-0.677 1.642,-2.172 0.947,-3.349 l -2.875,-4.788 v 0.001 c -0.695,-1.177 -0.273,-2.673 0.946,-3.349 1.22,-0.677 2.778,-0.281 3.49,0.887 l 2.876,4.79 -0.002,-0.001 c 1.373,2.288 1.371,5.105 -0.003,7.392 -1.375,2.286 -3.913,3.694 -6.659,3.692 -2.746,-10e-4 -5.282,-1.411 -6.655,-3.699 l -6.325,-10.536 c -1.415,1.003 -2.703,2.159 -3.842,3.446 l 5.778,9.542 c 0.345,0.567 0.441,1.241 0.266,1.876 -0.174,0.634 -0.605,1.175 -1.195,1.502 -0.591,0.328 -1.293,0.416 -1.951,0.244 -0.659,-0.172 -1.219,-0.589 -1.556,-1.16 l -4.451,-7.415 v 10e-4 c -3.403,6.634 -3.14,14.463 0.702,20.87 1.018,1.699 2.696,2.939 4.665,3.448 1.969,0.508 4.068,0.243 5.834,-0.738 l 14.341,-7.953 c 1.226,-0.681 2.793,-0.276 3.5,0.903 0.707,1.177 0.286,2.684 -0.94,3.363 l -14.341,7.954 v 10e-4 c -2.941,1.632 -6.436,2.074 -9.715,1.229 -3.28,-0.846 -6.077,-2.91 -7.774,-5.737 -3.737,-6.222 -4.751,-13.617 -2.816,-20.559 1.934,-6.94 6.658,-12.858 13.13,-16.448 z m 55.464,32.543 9.32,-6.095 -9.985,-9.605 c -1.346,2 -2.117,4.308 -2.234,6.687 0.603,-0.583 1.47,-0.836 2.31,-0.677 0.839,0.161 1.54,0.713 1.868,1.472 0.328,0.761 0.24,1.628 -0.236,2.312 -0.476,0.684 -1.275,1.095 -2.13,1.094 -0.541,-0.011 -1.063,-0.19 -1.488,-0.512 0.433,1.938 1.313,3.758 2.576,5.324 z m 0.75,-21.297 14.081,13.545 h -0.001 c 1.994,1.903 4.587,3.115 7.376,3.448 l -5.46,-12.852 v 10e-4 c -0.61,0.572 -1.476,0.816 -2.311,0.649 -0.834,-0.166 -1.528,-0.721 -1.85,-1.481 -0.322,-0.758 -0.231,-1.621 0.245,-2.303 0.476,-0.68 1.271,-1.088 2.124,-1.089 l -2.027,-4.772 c -4.456,0.473 -8.681,2.157 -12.178,4.854 z m 28.32,20.167 c 0.335,1.026 1.322,1.724 2.44,1.724 l 12.978,10e-4 c 1.19,-0.02 2.219,-0.803 2.515,-1.912 l 4.932,-11.6 c 0.534,-1.258 2.03,-1.863 3.339,-1.348 1.309,0.513 1.938,1.951 1.403,3.211 l -2.875,6.749 c 2.79,-0.333 5.385,-1.544 7.382,-3.447 l 4.098,-3.939 c -0.814,-0.289 -1.42,-0.957 -1.606,-1.772 -0.186,-0.816 0.071,-1.665 0.684,-2.257 0.613,-0.59 1.496,-0.84 2.345,-0.663 0.848,0.176 1.544,0.756 1.847,1.538 l 6.706,-6.443 c -3.491,-2.698 -7.708,-4.385 -12.158,-4.865 l -2.634,6.19 c -0.251,0.613 -0.747,1.105 -1.377,1.364 -0.63,0.258 -1.342,0.264 -1.975,0.014 -0.635,-0.25 -1.139,-0.732 -1.399,-1.342 -0.261,-0.609 -0.256,-1.294 0.011,-1.9 l 4.523,-10.637 c -14.383,-4.948 -30.105,-4.95 -44.49,-0.005 z m -73.939,-37.29 7.245,-4.022 0.875,-13.425 -9.27,-0.001 z m 8.626,-61.767 c -1.588,0.002 -3.137,0.475 -4.435,1.357 -1.296,0.881 -2.279,2.127 -2.81,3.566 l 2.122,0.001 c 1.588,-0.002 3.138,-0.476 4.435,-1.357 1.297,-0.882 2.279,-2.128 2.811,-3.567 z m 3.839,9.849 -17.925,-0.002 c -1.414,0 -2.561,1.102 -2.561,2.462 -0.001,1.36 1.146,2.462 2.56,2.463 l 17.925,0.002 c 1.414,0 2.561,-1.102 2.561,-2.462 10e-4,-1.36 -1.146,-2.463 -2.56,-2.463 z m 6.4,9.85 -30.729,-0.004 c -1.414,0 -2.561,1.103 -2.561,2.462 -0.001,1.36 1.146,2.463 2.56,2.463 l 30.729,0.004 c 1.414,0 2.561,-1.102 2.561,-2.462 0.001,-1.36 -1.146,-2.463 -2.56,-2.463 z m 2.559,9.85 -30.802,-0.004 c 1.145,0.432 1.809,1.588 1.579,2.751 -0.229,1.161 -1.285,2.003 -2.515,2.003 -1.232,0 -2.288,-0.842 -2.516,-2.004 -0.23,-1.163 0.435,-2.318 1.58,-2.75 l -3.178,-10e-4 c -1.83,0 -3.521,0.939 -4.436,2.462 -0.915,1.524 -0.915,3.401 -10e-4,4.925 0.915,1.523 2.605,2.462 4.435,2.463 l 35.851,0.004 c 1.83,0 3.521,-0.938 4.436,-2.462 0.915,-1.523 0.915,-3.401 10e-4,-4.924 -0.914,-1.524 -2.605,-2.463 -4.435,-2.463 z m -0.992,14.773 h -7.17 l -0.683,10.469 6.997,-3.886 z m -2.089,27.171 c 0.707,1.179 2.272,1.582 3.498,0.902 1.223,-0.68 1.642,-2.186 0.935,-3.363 l -6.4,-10.663 -4.436,2.462 z"
             fill="#faebda"
             id="path235" /><path
             d="m 763.582,249.349 c 0,1.36 1.146,2.462 2.56,2.462 1.415,0.001 2.561,-1.102 2.562,-2.462 0,-1.359 -1.146,-2.462 -2.561,-2.462 -1.414,-0.001 -2.56,1.102 -2.561,2.462 z"
             fill="#faebda"
             id="path237" /><path
             d="m 771.458,259.014 c 0,1.359 1.146,2.462 2.56,2.462 1.415,0 2.561,-1.102 2.562,-2.462 0,-1.36 -1.147,-2.462 -2.561,-2.463 -1.414,0 -2.56,1.103 -2.561,2.463 z"
             fill="#faebda"
             id="path239" /><path
             d="m 756.708,259.073 c -1.342,0.428 -2.79,-0.27 -3.237,-1.559 l -2.559,-7.388 c -0.446,-1.292 0.281,-2.688 1.625,-3.118 1.343,-0.429 2.795,0.27 3.24,1.562 l 2.559,7.388 c 0.215,0.621 0.163,1.298 -0.142,1.883 -0.305,0.583 -0.84,1.027 -1.486,1.232 z"
             fill="#faebda"
             id="path241" /><path
             d="m 1079.09,318.607 c -2.34,0 -4.68,-0.89 -6.46,-2.67 l -25.56,-25.562 c -1.73,-1.724 -2.68,-4.016 -2.68,-6.455 0,-2.438 0.95,-4.731 2.68,-6.455 l 83.4,-83.398 c 3.56,-3.559 9.35,-3.561 12.91,0 l 25.56,25.562 c 3.56,3.559 3.56,9.351 0,12.91 l -83.4,83.399 c -1.78,1.778 -4.12,2.668 -6.46,2.668 z m 57.83,-122.059 c -1.02,0 -2.04,0.388 -2.81,1.162 l -11.46,11.463 -71.94,71.939 c -0.75,0.75 -1.16,1.748 -1.16,2.81 0,1.063 0.41,2.061 1.16,2.811 l 25.56,25.563 c 1.55,1.55 4.08,1.55 5.62,0 l 83.4,-83.399 c 1.55,-1.55 1.55,-4.073 0,-5.621 l -25.56,-25.563 c -0.78,-0.776 -1.79,-1.163 -2.81,-1.163 z"
             fill="#faebda"
             id="path243" /><path
             d="m 1072.69,295.765 c -0.66,0 -1.31,-0.253 -1.82,-0.755 l -4.71,-4.713 c -3.69,-3.693 -3.69,-9.7 0,-13.391 l 39.86,-39.862 c 1.01,-1.006 2.64,-1.006 3.64,0 1.01,1.006 1.01,2.637 0,3.644 l -39.86,39.865 c -1.68,1.682 -1.68,4.42 0,6.103 l 4.72,4.713 c 1,1.007 1,2.637 0,3.644 -0.51,0.503 -1.17,0.754 -1.83,0.754 z"
             fill="#faebda"
             id="path245" /><path
             d="m 1117.43,231.859 c -0.66,0 -1.32,-0.251 -1.82,-0.754 -1.01,-1.007 -1.01,-2.637 0,-3.644 l 6.39,-6.391 c 1,-1.006 2.64,-1.007 3.64,0 1.01,1.007 1.01,2.637 0,3.644 l -6.39,6.391 c -0.5,0.502 -1.16,0.754 -1.82,0.754 z"
             fill="#faebda"
             id="path247" /><path
             d="m 1043.3,219.848 c 2.03,0 3.68,1.648 3.68,3.681 0,2.032 -1.64,3.681 -3.68,3.681 -2.03,0 -3.68,-1.648 -3.68,-3.681 0,-2.033 1.65,-3.681 3.68,-3.681 z"
             fill="#faebda"
             id="path249" /><path
             d="m 1039.62,260.342 c 2.03,0 3.68,1.649 3.68,3.681 0,2.033 -1.65,3.682 -3.68,3.682 -2.03,0 -3.68,-1.649 -3.68,-3.682 0,-2.034 1.65,-3.681 3.68,-3.681 z"
             fill="#faebda"
             id="path251" /><path
             d="m 1098.52,186.717 c 2.03,0 3.68,1.649 3.68,3.682 0,2.032 -1.65,3.681 -3.68,3.681 -2.03,0 -3.68,-1.649 -3.68,-3.681 0,-2.033 1.64,-3.682 3.68,-3.682 z"
             fill="#faebda"
             id="path253" /><path
             d="m 1295.68,251 c 2.03,0 3.68,1.649 3.68,3.681 0,2.033 -1.65,3.682 -3.68,3.682 -2.03,0 -3.68,-1.649 -3.68,-3.682 0,-2.032 1.65,-3.681 3.68,-3.681 z"
             fill="#faebda"
             id="path255" /><path
             d="m 1285.68,174 c 2.03,0 3.68,1.649 3.68,3.681 0,2.033 -1.65,3.682 -3.68,3.682 -2.03,0 -3.68,-1.649 -3.68,-3.682 0,-2.032 1.65,-3.681 3.68,-3.681 z"
             fill="#faebda"
             id="path257" /><path
             d="m 1159.51,216.539 c -0.66,0 -1.32,-0.251 -1.83,-0.754 l -10.46,-10.463 c -1,-1.005 -1,-2.637 0,-3.644 l 5.06,-5.06 c 2.45,-2.444 2.5,-3.037 2.69,-5.243 0.1,-1.182 0.24,-2.8 0.76,-5.019 0.74,-3.128 2.34,-5.987 4.62,-8.268 3.4,-3.396 8.1,-5.247 12.9,-5.077 4.87,0.172 9.32,2.302 12.52,5.997 5.69,6.555 5.63,16.394 -0.14,22.886 -2.35,2.65 -5.4,4.497 -8.82,5.339 -2.34,0.578 -4.02,0.689 -5.24,0.77 -2.03,0.136 -2.64,0.176 -4.96,2.498 l -5.28,5.282 c -0.51,0.505 -1.16,0.756 -1.82,0.756 z m -6.82,-13.037 6.82,6.818 3.46,-3.46 c 3.51,-3.513 5.43,-3.807 8.26,-3.996 1.15,-0.076 2.44,-0.163 4.35,-0.632 2.4,-0.592 4.54,-1.892 6.2,-3.759 4.06,-4.563 4.1,-11.477 0.1,-16.083 -2.26,-2.605 -5.39,-4.105 -8.81,-4.226 -3.43,-0.119 -6.65,1.147 -9.07,3.571 -1.61,1.605 -2.73,3.614 -3.25,5.809 -0.44,1.851 -0.55,3.14 -0.65,4.276 -0.25,2.983 -0.57,4.845 -4.17,8.444 z"
             fill="#faebda"
             id="path259" /><path
             d="m 1074.59,226.104 c -4.46,0 -8.1,-3.632 -8.1,-8.098 0,-4.466 3.64,-8.098 8.1,-8.098 4.47,0 8.1,3.632 8.1,8.098 0,4.466 -3.63,8.098 -8.1,8.098 z m 0,-11.043 c -1.62,0 -2.94,1.321 -2.94,2.945 0,1.624 1.32,2.945 2.94,2.945 1.63,0 2.95,-1.321 2.95,-2.945 0,-1.624 -1.32,-2.945 -2.95,-2.945 z"
             fill="#faebda"
             id="path261" /><path
             d="m 1279.1,237.196 c -4.47,0 -8.1,-3.632 -8.1,-8.098 0,-4.466 3.63,-8.098 8.1,-8.098 4.46,0 8.1,3.632 8.1,8.098 0,4.466 -3.64,8.098 -8.1,8.098 z m 0,-11.043 c -1.63,0 -2.95,1.322 -2.95,2.945 0,1.624 1.32,2.945 2.95,2.945 1.62,0 2.94,-1.321 2.94,-2.945 0,-1.623 -1.32,-2.945 -2.94,-2.945 z"
             fill="#faebda"
             id="path263" /><path
             d="m 1179.5,259.235 c -4.47,0 -8.1,-3.633 -8.1,-8.098 0,-4.467 3.63,-8.099 8.1,-8.099 4.47,0 8.1,3.633 8.1,8.099 0,4.466 -3.63,8.098 -8.1,8.098 z m 0,-11.043 c -1.62,0 -2.95,1.321 -2.95,2.945 0,1.623 1.33,2.944 2.95,2.944 1.62,0 2.94,-1.321 2.94,-2.944 0,-1.624 -1.32,-2.945 -2.94,-2.945 z"
             fill="#faebda"
             id="path265" /><path
             d="m 1204.53,220.835 9.54,2.833 c 0.82,0.246 1.69,-0.223 1.94,-1.049 0.24,-0.827 -0.23,-1.692 -1.05,-1.937 l -8.05,-2.39 3.78,-12.697 12.69,3.773 -2.39,8.042 c -0.24,0.826 0.23,1.692 1.05,1.937 0.83,0.245 1.7,-0.224 1.94,-1.05 l 2.83,-9.536 c 0.12,-0.398 0.08,-0.823 -0.12,-1.186 -0.2,-0.363 -0.53,-0.634 -0.93,-0.751 l -15.68,-4.661 c -0.83,-0.245 -1.69,0.224 -1.94,1.05 l -4.66,15.684 c -0.12,0.412 -0.06,0.835 0.13,1.186 0.19,0.351 0.51,0.63 0.92,0.752 z"
             fill="#faebda"
             id="path267" /><path
             d="m 1240.19,212.428 -4.66,15.683 c -0.12,0.413 -0.07,0.836 0.12,1.187 0.19,0.35 0.52,0.629 0.93,0.751 l 9.54,2.833 c 0.82,0.246 1.69,-0.223 1.93,-1.049 0.25,-0.826 -0.22,-1.692 -1.05,-1.937 l -8.04,-2.389 3.77,-12.698 12.7,3.773 -2.39,8.042 c -0.24,0.827 0.22,1.692 1.05,1.937 0.83,0.245 1.69,-0.224 1.94,-1.05 l 2.83,-9.535 c 0.12,-0.398 0.07,-0.824 -0.12,-1.187 -0.2,-0.363 -0.53,-0.633 -0.93,-0.751 l -15.68,-4.66 c -0.83,-0.246 -1.7,0.224 -1.94,1.05 z"
             fill="#faebda"
             id="path269" /><path
             d="m 1244.02,196.928 c -0.12,0.413 -0.06,0.836 0.13,1.187 0.19,0.35 0.51,0.628 0.92,0.751 l 9.54,2.833 c 0.83,0.246 1.69,-0.223 1.94,-1.049 0.24,-0.827 -0.23,-1.692 -1.05,-1.937 l -8.05,-2.389 3.78,-12.698 12.69,3.773 -2.39,8.042 c -0.24,0.826 0.23,1.692 1.05,1.937 0.83,0.245 1.7,-0.224 1.94,-1.05 l 2.83,-9.536 c 0.25,-0.826 -0.22,-1.692 -1.04,-1.936 l -15.69,-4.66 c -0.82,-0.246 -1.69,0.223 -1.94,1.049 z"
             fill="#faebda"
             id="path271" /><path
             d="m 1242,302.879 17.63,-59.313 c 0,-0.009 0,-0.016 0,-0.025 l 9.17,-30.837 c 0,-0.017 0.01,-0.033 0.02,-0.051 l 8.3,-27.949 c 0.93,-3.118 -0.86,-6.413 -3.98,-7.342 l -21.12,-6.274 c -0.02,-0.005 -0.04,0 -0.05,-0.005 -0.27,-0.072 -0.54,-0.096 -0.82,-0.074 -0.03,0.003 -0.07,0.006 -0.11,0.011 -0.26,0.034 -0.51,0.113 -0.74,0.234 -0.04,0.017 -0.07,0.034 -0.1,0.052 -0.18,0.101 -0.35,0.218 -0.5,0.369 -2.2,2.197 -4.95,3.801 -7.96,4.645 -2.53,0.706 -5.11,0.856 -7.7,0.44 -0.78,-0.121 -1.56,-0.298 -2.33,-0.526 -0.2,-0.058 -0.4,-0.113 -0.59,-0.191 -0.16,-0.068 -0.32,-0.11 -0.48,-0.139 -0.03,-0.004 -0.05,-0.003 -0.07,-0.006 -0.22,-0.032 -0.44,-0.03 -0.65,-0.001 -0.03,0.004 -0.06,0.004 -0.1,0.01 -0.22,0.039 -0.43,0.115 -0.63,0.217 -0.02,0.012 -0.05,0.011 -0.07,0.023 -0.03,0.014 -0.05,0.038 -0.08,0.054 -0.09,0.058 -0.18,0.123 -0.27,0.196 -0.03,0.025 -0.07,0.041 -0.1,0.069 -0.04,0.04 -0.09,0.081 -0.14,0.121 -3.55,3.123 -8.28,4.758 -13.01,4.494 -0.02,-10e-4 -0.03,-0.002 -0.05,-0.004 -0.01,-0.001 -0.01,-0.001 -0.02,-0.002 -1.35,-0.072 -2.72,-0.314 -4.08,-0.718 -1.01,-0.302 -1.99,-0.688 -2.89,-1.148 -0.15,-0.077 -0.31,-0.134 -0.47,-0.174 -0.04,-0.011 -0.08,-0.013 -0.12,-0.021 -0.12,-0.025 -0.24,-0.045 -0.36,-0.052 -0.05,-0.003 -0.11,0.002 -0.16,0.004 -0.11,0.003 -0.21,0.007 -0.32,0.023 -0.06,0.009 -0.12,0.025 -0.18,0.04 -0.09,0.024 -0.19,0.053 -0.28,0.088 -0.03,0.011 -0.06,0.014 -0.09,0.027 -0.03,0.012 -0.06,0.033 -0.09,0.048 -0.09,0.044 -0.18,0.093 -0.26,0.15 -0.05,0.033 -0.11,0.067 -0.15,0.105 -0.09,0.062 -0.16,0.133 -0.23,0.205 -0.04,0.043 -0.09,0.085 -0.13,0.13 -0.06,0.076 -0.12,0.163 -0.17,0.25 -0.04,0.052 -0.08,0.103 -0.11,0.158 0,0.016 -0.02,0.027 -0.02,0.042 -0.03,0.05 -0.04,0.104 -0.06,0.154 -0.03,0.08 -0.08,0.156 -0.1,0.242 l -3.58,12.055 c 0,0.001 0,0.003 0,0.005 l -9.19,30.917 -17.62,59.305 c -0.45,1.511 -0.28,3.107 0.47,4.494 0.75,1.387 2,2.398 3.51,2.848 l 55.89,16.608 c 1.51,0.449 3.11,0.283 4.5,-0.469 1.38,-0.751 2.4,-1.999 2.85,-3.511 z m -56.22,-40.545 58.25,17.31 -1.83,6.176 -58.26,-17.31 z m 2.68,-9.025 14.46,7.079 c 0.05,0.022 0.09,0.032 0.14,0.051 0.07,0.032 0.15,0.063 0.23,0.086 0.07,0.02 0.14,0.034 0.21,0.047 0.08,0.014 0.15,0.029 0.23,0.036 0.07,0.006 0.14,0.008 0.22,0.008 0.07,-10e-4 0.15,-0.003 0.22,-0.009 0.08,-0.007 0.15,-0.019 0.22,-0.032 0.07,-0.013 0.14,-0.031 0.22,-0.053 0.07,-0.023 0.14,-0.049 0.21,-0.078 0.04,-0.016 0.08,-0.024 0.12,-0.044 l 11.11,-5.245 16.09,9.698 c 0.02,0.011 0.04,0.016 0.05,0.027 0.08,0.041 0.16,0.075 0.23,0.109 0.07,0.027 0.13,0.058 0.2,0.079 0.07,0.022 0.14,0.038 0.22,0.053 0.07,0.016 0.14,0.036 0.22,0.046 0.07,0.01 0.15,0.007 0.23,0.01 0.07,0.002 0.14,0.008 0.21,0.002 0.08,-0.005 0.16,-0.02 0.23,-0.034 0.08,-0.011 0.15,-0.02 0.21,-0.039 0.07,-0.018 0.14,-0.047 0.21,-0.072 0.08,-0.028 0.15,-0.055 0.23,-0.091 0.01,-0.008 0.03,-0.011 0.04,-0.019 l 16.54,-8.608 -6.04,20.339 -58.26,-17.308 z m 7.76,-26.136 26.89,7.989 c -0.72,2.41 -1.83,6.161 -2.47,8.31 l -4.5,0.066 1.19,-3.988 c 0.24,-0.826 -0.23,-1.692 -1.05,-1.936 l -15.68,-4.659 c -0.83,-0.245 -1.69,0.224 -1.94,1.05 l -2.92,9.829 -4.49,0.065 z m 59.59,12.819 -26.89,-7.988 7.86,-26.434 26.88,7.989 z m -23.32,6 0.09,-0.3 4.59,1.362 c 0.82,0.246 1.69,-0.224 1.93,-1.049 0.25,-0.827 -0.22,-1.693 -1.05,-1.937 l -6.08,-1.806 c -0.82,-0.246 -1.69,0.223 -1.93,1.049 l -0.57,1.896 -4.15,-1.078 c 1.14,-3.833 1.84,-6.201 2.27,-7.643 l 24.89,7.397 -14.61,3.504 z m -33.48,-2.205 2.2,-7.402 12.69,3.771 -1.02,3.428 z m 33.29,-39.547 -7.86,26.443 -26.89,-7.989 7.86,-26.442 z m -42.44,44.355 32.24,-0.471 15.16,3.935 c 0.37,0.097 0.76,0.1 1.13,0.012 l 14.89,-3.571 -0.47,1.586 -19.38,10.091 -16.04,-9.668 c -0.54,-0.33 -1.17,-0.407 -1.75,-0.268 0,10e-4 0,10e-4 -0.01,10e-4 -0.15,0.037 -0.29,0.089 -0.44,0.156 v 0.002 l -11.22,5.298 -14.16,-6.929 z m 81.95,-66.753 c 0.65,0.191 1.02,0.879 0.83,1.531 l -7.51,25.26 -26.89,-7.99 6.01,-20.218 c 2.85,-0.974 5.47,-2.497 7.72,-4.477 z m -61.77,2.993 c 1.01,0.3 2.02,0.505 3.04,0.662 l -0.57,1.905 c -0.12,0.412 -0.06,0.836 0.13,1.186 0.19,0.351 0.51,0.629 0.92,0.752 l 9.53,2.83 c 0.83,0.246 1.69,-0.223 1.94,-1.049 0.24,-0.827 -0.23,-1.692 -1.05,-1.937 l -8.04,-2.387 0.31,-1.032 c 3.91,0.045 7.78,-0.919 11.2,-2.772 1.15,-0.623 2.23,-1.377 3.26,-2.193 0.25,0.072 0.51,0.138 0.77,0.2 l -1.46,4.911 c -0.12,0.412 -0.07,0.835 0.12,1.186 0.19,0.351 0.52,0.629 0.93,0.751 0.83,0.246 1.69,-0.223 1.94,-1.049 l 1.57,-5.289 c 1.49,0.155 2.98,0.164 4.47,0.02 l -5.29,17.788 -26.89,-7.99 2.04,-6.86 c 0.37,0.132 0.75,0.254 1.13,0.367 z m 25.95,117.543 -55.89,-16.61 c -0.64,-0.188 -1.02,-0.899 -0.83,-1.53 l 3.78,-12.743 58.26,17.31 -3.79,12.743 c -0.09,0.315 -0.3,0.573 -0.59,0.73 -0.29,0.158 -0.62,0.192 -0.94,0.1 z"
             fill="#faebda"
             id="path273" /><path
             d="m 84.8887,340.09 c -1.2194,1.994 -3.1982,3.524 -5.6455,4.114 l -35.1426,8.474 c -2.3714,0.572 -4.8216,0.186 -6.9022,-1.086 -2.0805,-1.272 -3.5416,-3.278 -4.1122,-5.649 L 5.44226,231.285 C 4.26335,226.391 7.2833,221.45 12.1771,220.271 l 35.1438,-8.473 c 4.8926,-1.18 9.8344,1.842 11.014,6.735 l 27.644,114.658 c 0.5889,2.446 0.1289,4.905 -1.0906,6.899 z M 10.9254,227.074 c -0.5308,0.868 -0.7315,1.94 -0.4755,3.006 l 3.8003,15.758 23.8472,98.9 c 0.2488,1.032 0.8841,1.906 1.7903,2.46 0.9063,0.554 1.9736,0.721 3.0057,0.473 l 35.1437,-8.474 c 2.131,-0.513 3.4472,-2.666 2.9326,-4.796 L 53.3258,219.743 c -0.5138,-2.131 -2.6663,-3.447 -4.796,-2.932 l -35.1438,8.473 c -1.0664,0.257 -1.928,0.923 -2.4596,1.792 z"
             fill="#faebda"
             id="path275" /><path
             d="m 30.8839,262.123 c -0.3436,0.562 -0.9022,0.994 -1.5944,1.161 -1.3845,0.334 -2.7753,-0.517 -3.1091,-1.901 l -2.1182,-8.786 c -0.3327,-1.384 0.5173,-2.776 1.9011,-3.109 1.3845,-0.334 2.7753,0.516 3.109,1.901 l 2.1183,8.786 c 0.1665,0.69 0.0375,1.385 -0.3068,1.948 z"
             fill="#faebda"
             id="path277" /><path
             d="m 84.2437,243.566 c 1.0603,-1.734 3.3269,-2.28 5.061,-1.22 1.7342,1.061 2.2806,3.327 1.2202,5.061 -1.0603,1.734 -3.3269,2.281 -5.061,1.22 -1.7352,-1.061 -2.2813,-3.325 -1.2202,-5.061 z"
             fill="#faebda"
             id="path279" /><path
             d="m 140.204,120.033 c 1.06,-1.734 3.327,-2.28 5.061,-1.22 1.734,1.061 2.28,3.327 1.22,5.061 -1.06,1.734 -3.327,2.281 -5.061,1.22 -1.734,-1.06 -2.281,-3.325 -1.22,-5.061 z"
             fill="#faebda"
             id="path281" /><path
             d="m 90.9605,81.7175 c 1.0603,-1.734 3.3269,-2.2806 5.061,-1.2202 1.734,1.0603 2.2806,3.3269 1.2202,5.0611 -1.0603,1.734 -3.3269,2.2806 -5.061,1.2202 -1.734,-1.0603 -2.2813,-3.3258 -1.2202,-5.0611 z"
             fill="#faebda"
             id="path283" /><path
             d="m 39.7636,218.234 c -0.3443,0.563 -0.9021,0.994 -1.5944,1.161 l -14.3836,3.468 c -1.3827,0.333 -2.7746,-0.518 -3.109,-1.901 l -1.6773,-6.957 c -0.8101,-3.36 -1.2892,-3.713 -3.0724,-5.026 -0.9556,-0.703 -2.2636,-1.666 -3.8832,-3.271 -2.28215,-2.263 -3.88901,-5.116 -4.64493,-8.252 -1.12492,-4.67 -0.24752,-9.653 2.39771,-13.654 2.68732,-4.065 6.82522,-6.749 11.65062,-7.557 8.5607,-1.435 16.9233,3.75 19.4522,12.058 1.0322,3.392 1.0169,6.958 -0.0479,10.312 -0.7286,2.301 -1.5075,3.786 -2.075,4.87 -0.9441,1.804 -1.2289,2.348 -0.4593,5.54 l 1.7509,7.262 c 0.1694,0.691 0.04,1.384 -0.3043,1.947 z m -14.6796,-0.985 9.3734,-2.26 -1.1469,-4.757 c -1.1644,-4.83 -0.4146,-6.618 0.9039,-9.137 0.5323,-1.016 1.1352,-2.169 1.7279,-4.037 0.7469,-2.356 0.7569,-4.865 0.0298,-7.254 -1.7773,-5.841 -7.6532,-9.485 -13.6695,-8.476 -3.4009,0.569 -6.3143,2.459 -8.2034,5.316 -1.8894,2.861 -2.491,6.271 -1.6868,9.603 0.5321,2.207 1.6601,4.212 3.2632,5.8 1.3508,1.339 2.3924,2.105 3.31,2.782 2.4111,1.775 3.833,3.02 5.0259,7.967 z"
             fill="#faebda"
             id="path285" /><path
             d="m 119.282,22.3582 c -2.33,3.8102 -7.324,5.014 -11.134,2.6843 -3.81,-2.3298 -5.014,-7.3236 -2.684,-11.1336 2.33,-3.8102 7.324,-5.01396 11.133,-2.6843 3.811,2.3299 5.014,7.3237 2.685,11.1336 z m -9.422,-5.7609 c -0.847,1.3852 -0.409,3.2017 0.977,4.0487 1.385,0.847 3.201,0.409 4.048,-0.9762 0.847,-1.3851 0.409,-3.2016 -0.976,-4.0486 -1.385,-0.847 -3.202,-0.4091 -4.049,0.9761 z"
             fill="#faebda"
             id="path287" /><path
             d="m 86.6197,223.449 c -2.3299,3.81 -7.3237,5.014 -11.1336,2.684 -3.8102,-2.33 -5.014,-7.324 -2.6843,-11.134 2.3299,-3.81 7.3236,-5.013 11.1336,-2.684 3.8102,2.33 5.014,7.324 2.6843,11.134 z m -9.4214,-5.761 c -0.847,1.385 -0.409,3.202 0.9762,4.049 1.3852,0.847 3.2016,0.409 4.0486,-0.977 0.847,-1.385 0.4091,-3.201 -0.9761,-4.048 -1.3852,-0.847 -3.2017,-0.409 -4.0487,0.976 z"
             fill="#faebda"
             id="path289" /><path
             d="m 118.367,277.379 c -2.859,4.676 -8.988,6.154 -13.664,3.294 -4.676,-2.859 -6.1537,-8.988 -3.295,-13.664 2.86,-4.676 8.989,-6.153 13.665,-3.294 4.674,2.858 6.153,8.989 3.294,13.664 z m -12.562,-7.681 c -1.376,2.251 -0.665,5.202 1.586,6.579 2.251,1.376 5.203,0.665 6.579,-1.586 1.377,-2.252 0.665,-5.203 -1.586,-6.58 -2.251,-1.376 -5.202,-0.664 -6.579,1.587 z"
             fill="#faebda"
             id="path291" /><path
             d="m 138.035,221.494 10.594,-3.969 c 0.918,-0.344 1.382,-1.363 1.038,-2.28 -0.344,-0.918 -1.363,-1.382 -2.281,-1.038 l -8.934,3.347 -5.285,-14.107 14.107,-5.284 3.347,8.935 c 0.344,0.918 1.363,1.381 2.28,1.037 0.919,-0.344 1.382,-1.363 1.038,-2.28 L 149.97,195.26 c -0.166,-0.442 -0.498,-0.797 -0.926,-0.991 -0.427,-0.195 -0.915,-0.212 -1.355,-0.047 l -17.425,6.528 c -0.918,0.344 -1.382,1.363 -1.038,2.28 l 6.528,17.425 c 0.172,0.458 0.513,0.803 0.926,0.991 0.412,0.189 0.896,0.221 1.355,0.048 z"
             fill="#faebda"
             id="path293" /><path
             d="m 164.619,189.414 6.528,17.425 c 0.172,0.458 0.513,0.804 0.926,0.991 0.413,0.188 0.897,0.219 1.355,0.047 l 10.595,-3.969 c 0.918,-0.344 1.382,-1.363 1.037,-2.28 -0.344,-0.918 -1.363,-1.382 -2.28,-1.038 l -8.935,3.347 -5.284,-14.107 14.107,-5.284 3.347,8.935 c 0.344,0.918 1.363,1.382 2.28,1.037 0.918,-0.344 1.382,-1.363 1.037,-2.28 l -3.969,-10.595 c -0.165,-0.442 -0.498,-0.797 -0.925,-0.991 -0.428,-0.195 -0.916,-0.212 -1.356,-0.047 l -17.425,6.528 c -0.918,0.344 -1.383,1.365 -1.038,2.281 z"
             fill="#faebda"
             id="path295" /><path
             d="m 157.469,172.723 c 0.171,0.458 0.513,0.803 0.925,0.991 0.413,0.188 0.898,0.218 1.356,0.047 l 10.595,-3.969 c 0.918,-0.344 1.381,-1.363 1.037,-2.28 -0.344,-0.918 -1.363,-1.382 -2.28,-1.038 l -8.935,3.347 -5.285,-14.107 14.107,-5.284 3.347,8.935 c 0.344,0.918 1.364,1.381 2.281,1.037 0.918,-0.344 1.382,-1.363 1.037,-2.28 l -3.969,-10.595 c -0.344,-0.918 -1.363,-1.382 -2.28,-1.037 l -17.425,6.527 c -0.918,0.344 -1.382,1.363 -1.037,2.281 z"
             fill="#faebda"
             id="path297" /><path
             d="m 228.295,270.231 -24.684,-65.899 c -0.004,-0.01 -0.011,-0.015 -0.015,-0.025 l -12.834,-34.26 c -0.006,-0.02 -0.009,-0.041 -0.016,-0.06 l -11.633,-31.051 c -1.298,-3.465 -5.175,-5.231 -8.644,-3.933 l -23.467,8.793 c -0.018,0.007 -0.033,0.025 -0.051,0.031 -0.291,0.118 -0.555,0.283 -0.788,0.491 -0.032,0.028 -0.062,0.055 -0.093,0.086 -0.212,0.208 -0.385,0.452 -0.518,0.725 -0.018,0.037 -0.035,0.074 -0.053,0.115 -0.092,0.213 -0.166,0.436 -0.2,0.676 -0.483,3.498 -1.88,6.841 -4.038,9.674 -1.805,2.371 -4.048,4.281 -6.681,5.679 -0.789,0.422 -1.622,0.801 -2.477,1.122 -0.218,0.081 -0.434,0.166 -0.659,0.225 -0.192,0.049 -0.371,0.123 -0.539,0.21 -0.024,0.012 -0.043,0.027 -0.065,0.041 -0.22,0.12 -0.415,0.27 -0.589,0.442 -0.027,0.027 -0.054,0.048 -0.08,0.075 -0.175,0.189 -0.314,0.402 -0.427,0.633 -0.012,0.025 -0.035,0.042 -0.047,0.068 -0.013,0.031 -0.018,0.068 -0.032,0.101 -0.049,0.12 -0.086,0.24 -0.117,0.368 -0.01,0.044 -0.032,0.083 -0.041,0.129 -0.013,0.067 -0.027,0.136 -0.04,0.203 -1.084,5.272 -4.249,9.995 -8.726,13.002 -0.017,0.012 -0.033,0.022 -0.049,0.032 -0.006,0.003 -0.012,0.007 -0.017,0.01 -1.272,0.858 -2.684,1.58 -4.194,2.146 -1.126,0.422 -2.276,0.74 -3.41,0.942 -0.191,0.034 -0.373,0.09 -0.542,0.161 -0.045,0.018 -0.085,0.045 -0.128,0.066 -0.125,0.059 -0.246,0.122 -0.359,0.197 -0.051,0.035 -0.097,0.078 -0.146,0.117 -0.094,0.075 -0.186,0.15 -0.27,0.237 -0.048,0.05 -0.091,0.105 -0.135,0.16 -0.073,0.089 -0.141,0.181 -0.202,0.277 -0.019,0.03 -0.044,0.054 -0.062,0.085 -0.018,0.032 -0.027,0.069 -0.046,0.104 -0.052,0.102 -0.098,0.206 -0.135,0.315 -0.025,0.067 -0.048,0.132 -0.065,0.2 -0.032,0.112 -0.051,0.227 -0.066,0.342 -0.009,0.068 -0.022,0.137 -0.025,0.205 -0.007,0.113 0.002,0.23 0.011,0.347 0.005,0.07 0.006,0.143 0.016,0.214 0.003,0.019 0.001,0.037 0.004,0.056 0.011,0.063 0.04,0.117 0.055,0.178 0.024,0.097 0.038,0.194 0.073,0.289 l 5.018,13.393 c 0,0.002 0.003,0.003 0.003,0.006 l 12.867,34.348 24.683,65.889 c 0.629,1.679 1.874,3.013 3.507,3.756 1.633,0.743 3.457,0.806 5.137,0.177 l 62.1,-23.264 c 1.68,-0.629 3.013,-1.874 3.756,-3.508 0.742,-1.631 0.807,-3.459 0.177,-5.139 z m -78.817,1.775 64.723,-24.246 2.57,6.861 -64.723,24.247 z m -3.757,-10.026 17.977,-3.497 c 0.055,-0.011 0.104,-0.033 0.157,-0.047 0.093,-0.024 0.184,-0.048 0.273,-0.084 0.077,-0.028 0.15,-0.063 0.222,-0.1 0.077,-0.038 0.156,-0.077 0.23,-0.123 0.07,-0.044 0.137,-0.091 0.203,-0.141 0.069,-0.053 0.137,-0.108 0.201,-0.165 0.061,-0.057 0.116,-0.115 0.171,-0.175 0.058,-0.063 0.113,-0.129 0.164,-0.2 0.051,-0.071 0.098,-0.144 0.143,-0.219 0.024,-0.041 0.057,-0.077 0.078,-0.121 l 6.481,-12.377 21.246,-2.234 c 0.024,-0.002 0.044,-0.011 0.069,-0.013 0.095,-0.014 0.19,-0.036 0.283,-0.059 0.077,-0.019 0.155,-0.034 0.23,-0.061 0.081,-0.029 0.159,-0.066 0.237,-0.103 0.076,-0.036 0.155,-0.067 0.228,-0.108 0.076,-0.042 0.144,-0.097 0.216,-0.149 0.066,-0.047 0.135,-0.09 0.196,-0.144 0.067,-0.059 0.128,-0.126 0.189,-0.192 0.057,-0.059 0.115,-0.115 0.163,-0.179 0.051,-0.065 0.092,-0.137 0.137,-0.206 0.051,-0.079 0.102,-0.155 0.144,-0.239 0.008,-0.018 0.023,-0.033 0.031,-0.049 l 9.099,-19.15 8.465,22.597 -64.719,24.245 z m -10.877,-29.038 29.87,-11.19 c 1.003,2.678 2.564,6.845 3.459,9.233 l -4.035,3.144 -1.659,-4.431 c -0.344,-0.918 -1.364,-1.382 -2.281,-1.037 l -17.418,6.525 c -0.918,0.344 -1.382,1.363 -1.037,2.28 l 4.091,10.92 -4.028,3.138 z m 62.848,-29.232 -29.871,11.191 -11.001,-29.368 29.87,-11.19 z m -17.038,21.434 -0.126,-0.334 5.094,-1.908 c 0.918,-0.344 1.382,-1.363 1.037,-2.28 -0.344,-0.919 -1.363,-1.382 -2.28,-1.038 l -6.753,2.53 c -0.918,0.344 -1.382,1.363 -1.037,2.28 l 0.789,2.107 -4.509,1.871 c -1.596,-4.259 -2.581,-6.889 -3.181,-8.492 l 27.657,-10.36 -10.858,13.203 z m -31.892,20.962 -3.081,-8.224 14.1,-5.282 1.427,3.808 z m 3.081,-58.707 11.005,29.378 -29.87,11.189 -11.005,-29.377 z m -8.086,69.344 28.934,-22.541 16.445,-6.821 c 0.403,-0.167 0.758,-0.431 1.035,-0.765 l 11.066,-13.456 0.66,1.763 -10.666,22.447 -21.178,2.226 c -0.723,0.076 -1.348,0.438 -1.776,0.96 0,10e-4 -0.003,0.003 -0.003,0.004 -0.113,0.137 -0.21,0.286 -0.292,0.443 l -0.003,0.004 -6.549,12.505 -17.599,3.423 z M 172.33,139.982 c 0.721,-0.272 1.532,0.096 1.803,0.82 l 10.513,28.064 -29.876,11.192 -8.414,-22.463 c 1.914,-2.835 3.254,-6.019 3.932,-9.354 z m -53.988,45.075 c 1.122,-0.42 2.185,-0.931 3.214,-1.485 l 0.792,2.117 c 0.172,0.458 0.513,0.803 0.926,0.991 0.413,0.188 0.897,0.218 1.356,0.047 l 10.585,-3.966 c 0.918,-0.344 1.382,-1.363 1.037,-2.28 -0.344,-0.918 -1.363,-1.382 -2.28,-1.037 l -8.925,3.343 -0.43,-1.147 c 3.576,-2.638 6.429,-6.17 8.26,-10.195 0.617,-1.354 1.074,-2.775 1.451,-4.224 0.282,-0.109 0.56,-0.226 0.836,-0.346 l 2.044,5.456 c 0.172,0.458 0.513,0.803 0.926,0.991 0.413,0.188 0.897,0.218 1.355,0.047 0.919,-0.344 1.382,-1.364 1.038,-2.281 l -2.201,-5.875 c 1.461,-0.885 2.82,-1.9 4.069,-3.048 l 7.403,19.762 -29.875,11.192 -2.855,-7.621 c 0.427,-0.136 0.852,-0.283 1.275,-0.441 z m 104.155,88.843 -62.104,23.262 c -0.702,0.263 -1.539,-0.118 -1.801,-0.819 l -5.303,-14.158 64.723,-24.246 5.304,14.158 c 0.131,0.35 0.118,0.728 -0.037,1.069 -0.154,0.34 -0.432,0.599 -0.781,0.732 z"
             fill="#faebda"
             id="path299" /><path
             d="m 232.416,211.409 v 46.245 c 0,0.556 0.22,1.089 0.61,1.482 0.391,0.393 0.921,0.614 1.474,0.614 h 27.083 v 25.154 c 0,0.556 0.22,1.089 0.61,1.482 0.391,0.393 0.921,0.614 1.473,0.614 h 66.667 c 0.553,0 1.083,-0.221 1.473,-0.614 0.391,-0.393 0.611,-0.926 0.611,-1.482 v -33.539 c -0.007,-4.549 -0.958,-9.046 -2.794,-13.203 l 16.973,-23.288 c 0.609,-0.835 0.521,-1.99 -0.206,-2.722 l -6.25,-6.288 c -0.43,-0.433 -1.026,-0.655 -1.632,-0.608 -0.606,0.046 -1.162,0.357 -1.521,0.85 l -15.311,21.007 -0.286,-0.289 -10e-4,10e-4 c -0.593,-0.597 -1.483,-0.777 -2.259,-0.459 l -13.279,5.443 c -0.691,-0.966 -1.577,-1.776 -2.601,-2.374 v -18.027 c 2.892,-0.431 5.535,-1.893 7.448,-4.12 1.911,-2.226 2.965,-5.07 2.968,-8.012 v -6.607 c -0.004,-3.889 -1.542,-7.618 -4.274,-10.368 -2.734,-2.75 -6.44,-4.296 -10.305,-4.301 H 236.58 c -3.866,0.005 -7.572,1.552 -10.305,4.301 -2.733,2.75 -4.27,6.479 -4.275,10.368 v 6.607 c 0.004,2.943 1.057,5.786 2.969,8.013 1.912,2.226 4.554,3.689 7.448,4.12 z m 31.429,5.369 -6.429,6.468 -7.248,-7.293 6.612,-6.284 z m -4.036,-9.988 5.541,-5.266 6.828,6.87 -5.387,5.42 z m 6.982,12.953 6.429,6.468 -6.429,6.468 -6.428,-6.468 z m -2.946,15.901 -7.47,7.516 -6.429,-6.468 7.47,-7.516 z m 2.946,2.964 6.506,6.547 -10.417,4.271 c -0.066,0.026 -0.128,0.058 -0.19,0.091 l -3.369,-3.392 z m -1.041,25.334 h 62.5 v 8.385 h -62.5 z m 0,-4.192 v -6.289 h 62.5 v 6.289 z m 0,23.057 v -6.288 h 62.5 v 6.288 z m 58.086,-51.57 1.999,5.031 -4.08,5.6 -3.269,-3.289 z m 2.903,-3.985 6.015,-8.25 2.297,4.623 -6.311,8.659 z m 12.17,-16.697 3.269,3.289 -4.358,5.979 -2.298,-4.623 z m -20.078,20.46 -4.762,6.533 10e-4,0.001 c -0.608,0.835 -0.521,1.99 0.206,2.722 l 6.25,6.289 c 0.391,0.393 0.92,0.613 1.473,0.613 0.052,0 0.106,-0.001 0.159,-0.005 0.605,-0.047 1.161,-0.358 1.52,-0.851 l 3.033,-4.16 v -0.001 c 0.786,2.299 1.276,4.69 1.459,7.114 h -53.869 l 18.19,-7.457 h 0.001 c 1.491,1.952 3.762,3.145 6.207,3.261 2.444,0.116 4.816,-0.856 6.484,-2.658 1.668,-1.803 2.464,-4.252 2.175,-6.697 z m -19.749,1.485 c 1.105,0 2.165,0.442 2.946,1.228 0.782,0.786 1.221,1.853 1.221,2.965 0,1.111 -0.439,2.178 -1.221,2.964 -0.781,0.786 -1.841,1.228 -2.946,1.228 -1.105,0 -2.165,-0.442 -2.946,-1.228 -0.782,-0.786 -1.221,-1.853 -1.221,-2.964 10e-4,-1.112 0.441,-2.177 1.222,-2.963 0.782,-0.786 1.84,-1.229 2.945,-1.23 z m 0.004,-50.308 c 2.761,0.003 5.407,1.108 7.359,3.072 1.952,1.965 3.051,4.627 3.054,7.405 v 6.607 c -0.003,2.139 -0.849,4.19 -2.353,5.704 -1.503,1.513 -3.542,2.363 -5.668,2.366 h -0.313 c -1.15,0 -2.083,0.939 -2.083,2.096 v 11.491 c -1.097,-2.351 -2.592,-4.491 -4.42,-6.325 l -0.357,-0.359 -2.946,2.964 0.357,0.36 c 2.954,2.955 4.792,6.854 5.195,11.025 -1.978,0.538 -3.69,1.79 -4.81,3.517 -1.119,1.727 -1.566,3.808 -1.258,5.847 l -0.094,0.039 -0.001,-26.592 c 2.893,-0.431 5.536,-1.893 7.447,-4.12 1.913,-2.227 2.966,-5.07 2.97,-8.013 v -6.606 c 0.002,-3.946 -1.581,-7.723 -4.389,-10.477 z m -72.922,10.477 c 0.003,-2.778 1.101,-5.44 3.053,-7.405 1.953,-1.964 4.599,-3.069 7.36,-3.072 h 50.007 c 2.762,0.003 5.408,1.108 7.36,3.072 1.952,1.965 3.05,4.627 3.053,7.405 v 6.607 c -0.003,2.139 -0.848,4.19 -2.352,5.704 -1.504,1.513 -3.543,2.363 -5.669,2.366 h -0.312 c -1.151,0 -2.084,0.939 -2.084,2.096 v 30.267 l -9.098,3.73 -7.747,-7.795 6.429,-6.468 2.693,2.71 2.946,-2.964 -2.693,-2.71 4.777,-4.806 -2.947,-2.965 -4.776,4.806 -6.429,-6.468 5.387,-5.42 3.735,3.758 2.947,-2.964 -3.736,-3.759 3.736,-3.758 -2.947,-2.964 -3.735,3.758 -6.743,-6.785 11.298,-10.737 -2.86,-3.047 -11.385,10.819 -10.712,-10.778 -2.946,2.965 10.627,10.692 -5.541,5.267 -8.39,-8.442 -2.947,2.965 8.306,8.356 -6.613,6.284 -2.914,-2.932 -2.944,2.964 2.829,2.847 -4.87,4.627 2.861,3.048 4.956,-4.71 7.334,7.379 -7.47,7.516 -4.777,-4.806 -2.946,2.965 4.776,4.806 -4.776,4.806 2.946,2.964 4.777,-4.806 6.428,6.469 -3.735,3.758 2.946,2.964 3.736,-3.758 3.735,3.758 1.473,-1.482 v 4.192 h -25 v -46.115 c 0,-0.556 -0.219,-1.089 -0.61,-1.483 -0.391,-0.393 -0.921,-0.613 -1.473,-0.613 h -0.313 c -2.126,-0.003 -4.165,-0.854 -5.669,-2.367 -1.504,-1.513 -2.349,-3.564 -2.352,-5.704 z"
             fill="#faebda"
             id="path301" /><path
             d="m 1042.76,206.611 7.45,45.64 c 0.09,0.548 -0.03,1.109 -0.34,1.559 -0.32,0.449 -0.79,0.75 -1.32,0.837 l -26.09,4.263 4.06,24.825 c 0.08,0.548 -0.04,1.109 -0.35,1.559 -0.32,0.449 -0.79,0.75 -1.32,0.837 l -64.219,10.493 c -0.532,0.087 -1.078,-0.048 -1.518,-0.374 -0.439,-0.326 -0.737,-0.818 -0.827,-1.367 l -5.408,-33.1 c -0.727,-4.49 -0.536,-9.078 0.562,-13.469 l -20.105,-20.312 c -0.72,-0.728 -0.822,-1.883 -0.24,-2.719 l 5.006,-7.19 c 0.344,-0.494 0.883,-0.807 1.474,-0.856 0.591,-0.05 1.177,0.169 1.602,0.599 l 18.135,18.322 0.23,-0.33 10e-4,0.001 c 0.474,-0.682 1.303,-1.001 2.102,-0.809 l 13.668,3.282 c 0.51,-1.062 1.233,-2.001 2.123,-2.752 l -2.907,-17.791 c -2.856,0.029 -5.638,-0.997 -7.838,-2.894 -2.2,-1.896 -3.674,-4.537 -4.152,-7.44 l -1.066,-6.52 c -0.622,-3.839 0.257,-7.762 2.446,-10.906 2.189,-3.144 5.51,-5.254 9.232,-5.866 l 60.209,-9.838 c 3.72,-0.604 7.54,0.339 10.62,2.622 3.08,2.284 5.16,5.723 5.79,9.56 l 1.06,6.52 c 0.48,2.906 -0.08,5.877 -1.56,8.376 -1.49,2.498 -3.8,4.357 -6.51,5.238 z m -29.41,10.246 7.24,5.371 5.8,-8.338 -7.38,-5.161 z m 2.28,-10.493 -6.19,-4.325 -5.47,7.855 6.06,4.501 z m -4.64,13.882 -5.15,7.395 7.24,5.372 5.15,-7.395 z m 5.4,15.229 8.41,6.242 5.15,-7.395 -8.41,-6.242 z m -2.36,3.39 -5.21,7.485 10.72,2.575 c 0.07,0.016 0.14,0.037 0.2,0.06 l 2.7,-3.878 z m 5.09,24.838 -60.2,9.837 1.352,8.275 60.198,-9.837 z m -0.67,-4.138 -1.02,-6.206 -60.201,9.837 1.015,6.206 z m 3.71,22.756 -1.01,-6.206 -60.202,9.837 1.014,6.206 z m -64.262,-41.753 -1.115,5.28 4.833,4.884 2.619,-3.76 z m -3.44,-3.475 -7.124,-7.196 -1.467,4.924 7.476,7.552 z m -14.415,-14.564 -2.618,3.761 5.162,5.214 1.467,-4.923 z m 22.64,17.032 5.64,5.698 -10e-4,0.001 c 0.721,0.728 0.823,1.883 0.24,2.719 l -5.006,7.19 c -0.313,0.45 -0.787,0.751 -1.319,0.838 -0.05,0.008 -0.103,0.015 -0.154,0.019 -0.591,0.049 -1.177,-0.17 -1.602,-0.6 l -3.592,-3.629 v 0 c -0.387,2.392 -0.473,4.829 -0.259,7.25 l 51.89,-8.479 -18.725,-4.495 v 0 c -1.123,2.161 -3.117,3.696 -5.453,4.195 -2.336,0.499 -4.777,-0.087 -6.675,-1.603 -1.897,-1.517 -3.059,-3.808 -3.175,-6.267 z m 19.262,-1.642 c -1.065,0.174 -2.015,0.777 -2.64,1.675 -0.626,0.899 -0.877,2.021 -0.698,3.118 0.18,1.097 0.774,2.081 1.654,2.734 0.879,0.653 1.971,0.922 3.036,0.748 1.064,-0.174 2.014,-0.777 2.64,-1.676 0.626,-0.898 0.876,-2.02 0.697,-3.118 -0.18,-1.097 -0.776,-2.078 -1.655,-2.731 -0.879,-0.653 -1.97,-0.923 -3.034,-0.75 z m -8.117,-49.649 c -2.659,0.437 -5.029,1.944 -6.593,4.19 -1.564,2.246 -2.192,5.046 -1.747,7.789 l 1.065,6.52 c 0.348,2.111 1.493,4.002 3.186,5.259 1.692,1.256 3.793,1.775 5.842,1.443 l 0.301,-0.049 c 1.108,-0.181 2.158,0.598 2.345,1.741 l 1.852,11.34 c 0.678,-2.493 1.773,-4.84 3.238,-6.938 l 0.286,-0.411 3.316,2.462 -0.286,0.411 c -2.369,3.382 -3.51,7.519 -3.227,11.699 1.993,0.22 3.844,1.186 5.201,2.714 1.356,1.528 2.123,3.512 2.154,5.572 l 0.098,0.024 -4.288,-26.244 c -2.856,0.03 -5.638,-0.997 -7.838,-2.894 -2.201,-1.897 -3.674,-4.537 -4.153,-7.441 l -1.065,-6.52 c -0.638,-3.893 0.277,-7.87 2.538,-11.03 z m 71.932,-1.137 c -0.45,-2.742 -1.94,-5.196 -4.14,-6.828 -2.19,-1.631 -4.92,-2.305 -7.58,-1.873 l -48.17,7.87 c -2.659,0.438 -5.03,1.945 -6.593,4.191 -1.564,2.245 -2.193,5.046 -1.747,7.788 l 1.065,6.52 c 0.348,2.111 1.493,4.002 3.185,5.259 1.693,1.257 3.794,1.775 5.842,1.444 l 0.301,-0.05 c 1.109,-0.181 2.159,0.599 2.345,1.741 l 4.881,29.87 9.361,2.249 6.21,-8.911 -7.24,-5.372 -2.15,3.099 -3.319,-2.462 2.159,-3.099 -5.378,-3.991 2.36,-3.39 5.378,3.992 5.15,-7.396 -6.07,-4.501 -2.988,4.297 -3.316,-2.462 2.992,-4.297 -4.204,-3.121 2.36,-3.39 4.206,3.122 5.4,-7.757 -12.615,-8.819 2.264,-3.457 12.711,8.885 8.58,-12.322 3.32,2.462 -8.52,12.225 6.19,4.325 6.72,-9.651 3.32,2.462 -6.66,9.554 7.39,5.161 2.33,-3.352 3.32,2.461 -2.27,3.255 5.44,3.8 -2.27,3.459 -5.53,-3.868 -5.88,8.436 8.41,6.242 3.83,-5.495 3.31,2.462 -3.82,5.495 5.37,3.992 -2.36,3.389 -5.37,-3.991 -5.15,7.395 4.2,3.121 -2.36,3.39 -4.2,-3.121 -2.99,4.297 -1.66,-1.232 0.67,4.138 24.09,-3.935 -7.44,-45.512 c -0.09,-0.548 0.03,-1.109 0.35,-1.559 0.31,-0.449 0.79,-0.751 1.32,-0.837 l 0.3,-0.05 c 2.05,-0.337 3.87,-1.497 5.08,-3.227 1.2,-1.731 1.69,-3.888 1.34,-6 z"
             fill="#faebda"
             id="path303" /><path
             d="m 463.294,209.946 c 0.001,1.36 -1.106,2.463 -2.472,2.463 -1.366,0 -2.473,-1.102 -2.473,-2.462 0,-1.36 1.107,-2.463 2.472,-2.463 1.366,0 2.473,1.102 2.473,2.462 z"
             fill="#faebda"
             id="path305" /><path
             d="m 474.688,214.871 c 0,1.36 -1.107,2.463 -2.472,2.463 -1.366,0 -2.473,-1.102 -2.474,-2.462 0,-1.36 1.107,-2.462 2.473,-2.463 1.366,0 2.473,1.103 2.473,2.462 z"
             fill="#faebda"
             id="path307" /><path
             d="m 379.209,197.633 c 0,1.359 -1.107,2.462 -2.473,2.462 -1.365,0.001 -2.473,-1.102 -2.473,-2.462 0,-1.36 1.107,-2.462 2.472,-2.462 1.366,-0.001 2.473,1.102 2.474,2.462 z"
             fill="#faebda"
             id="path309" /><path
             d="m 379.208,209.946 c 0,1.36 -1.107,2.462 -2.473,2.463 -1.365,0 -2.473,-1.103 -2.473,-2.462 0,-1.36 1.107,-2.463 2.472,-2.463 1.366,0 2.473,1.102 2.474,2.462 z"
             fill="#faebda"
             id="path311" /><path
             d="m 384.154,232.11 c 0,1.36 -1.107,2.463 -2.473,2.463 -1.365,0 -2.473,-1.102 -2.473,-2.462 0,-1.36 1.107,-2.463 2.473,-2.463 1.365,0 2.473,1.102 2.473,2.462 z"
             fill="#faebda"
             id="path313" /><path
             d="m 413.833,197.632 c 0,1.36 -1.107,2.463 -2.473,2.463 -1.365,0 -2.473,-1.102 -2.473,-2.462 0,-1.36 1.107,-2.462 2.472,-2.463 1.366,0 2.473,1.103 2.474,2.462 z"
             fill="#faebda"
             id="path315" /><path
             d="m 391.574,202.558 c 0,1.36 -1.107,2.462 -2.473,2.463 -1.365,0 -2.473,-1.103 -2.473,-2.462 0,-1.36 1.107,-2.463 2.473,-2.463 1.365,0 2.473,1.102 2.473,2.462 z"
             fill="#faebda"
             id="path317" /><path
             d="m 391.574,217.334 c 0,1.36 -1.107,2.463 -2.473,2.463 -1.365,0 -2.473,-1.103 -2.473,-2.462 0,-1.36 1.107,-2.463 2.473,-2.463 1.365,0 2.473,1.102 2.473,2.462 z"
             fill="#faebda"
             id="path319" /><path
             d="m 421.252,202.558 c 0,1.359 -1.107,2.462 -2.473,2.462 -1.366,10e-4 -2.473,-1.102 -2.473,-2.462 0,-1.359 1.107,-2.462 2.472,-2.462 1.366,-0.001 2.473,1.102 2.474,2.462 z"
             fill="#faebda"
             id="path321" /><path
             d="m 403.939,212.409 c 0,1.36 -1.107,2.462 -2.472,2.462 -1.366,0.001 -2.473,-1.102 -2.474,-2.462 0,-1.359 1.107,-2.462 2.473,-2.462 1.365,0 2.473,1.102 2.473,2.462 z"
             fill="#faebda"
             id="path323" /><path
             d="m 414.818,219.796 c 0,1.36 -1.107,2.463 -2.473,2.463 -1.365,0 -2.472,-1.102 -2.473,-2.462 0,-1.36 1.107,-2.462 2.473,-2.463 1.365,0 2.473,1.103 2.473,2.462 z"
             fill="#faebda"
             id="path325" /><path
             d="m 402.704,230.88 c 0,1.36 -1.107,2.463 -2.473,2.463 -1.365,0 -2.473,-1.102 -2.473,-2.462 0,-1.36 1.107,-2.463 2.473,-2.463 1.365,0 2.473,1.102 2.473,2.462 z"
             fill="#faebda"
             id="path327" /><path
             d="m 486.785,245.579 -5.44,-3.135 1.286,-20.191 h 6.924 l -2.053,16.404 c -0.168,1.347 0.793,2.576 2.146,2.744 0.103,0.015 0.206,0.021 0.31,0.02 1.246,0 2.298,-0.925 2.452,-2.157 l 2.246,-17.951 v 0.001 c 2.304,-1.053 4.111,-2.949 5.045,-5.295 0.935,-2.345 0.927,-4.96 -0.025,-7.299 -0.951,-2.34 -2.771,-4.223 -5.082,-5.261 0.55,-1.039 0.838,-2.194 0.841,-3.368 -0.007,-1.824 -0.691,-3.579 -1.922,-4.929 -1.23,-1.351 -2.919,-2.198 -4.741,-2.381 0.31,-0.81 0.472,-1.67 0.48,-2.539 -0.001,-1.958 -0.782,-3.838 -2.174,-5.223 -1.391,-1.384 -3.279,-2.163 -5.246,-2.162 h -1.483 c -0.575,-2.779 -2.093,-5.276 -4.301,-7.07 -2.207,-1.794 -4.968,-2.775 -7.818,-2.778 l -4.945,0.001 c -1.366,0 -2.473,1.103 -2.473,2.462 0.01,2.721 0.936,5.359 2.627,7.496 -2.213,0.299 -4.168,1.588 -5.308,3.501 -1.14,1.913 -1.342,4.238 -0.546,6.316 -1.822,0.184 -3.511,1.031 -4.741,2.383 -1.231,1.35 -1.914,3.105 -1.92,4.929 0.008,1.175 0.301,2.33 0.856,3.368 -2.311,1.038 -4.13,2.923 -5.08,5.263 -0.951,2.339 -0.959,4.953 -0.022,7.299 0.935,2.345 2.743,4.24 5.047,5.293 l 0.557,4.432 -8.334,-4.788 c -2.304,-1.324 -4.791,-2.302 -7.382,-2.903 4.676,-7.509 5.727,-16.711 2.861,-25.073 -2.865,-8.362 -9.344,-15.006 -17.655,-18.103 -8.311,-3.098 -17.579,-2.322 -25.254,2.113 -8.184,-4.726 -18.142,-5.278 -26.802,-1.485 -8.66,3.793 -14.981,11.474 -17.014,20.674 -2.033,9.2 0.467,18.813 6.729,25.875 l 0.001,7.594 c 0,1.36 1.107,2.462 2.473,2.462 1.365,0 2.473,-1.103 2.472,-2.463 l -0.001,-8.544 c 0,-0.629 -0.242,-1.235 -0.675,-1.692 -5.586,-5.889 -7.902,-14.139 -6.19,-22.059 1.712,-7.92 7.231,-14.492 14.755,-17.571 7.525,-3.08 16.09,-2.272 22.9,2.159 0.822,0.536 1.884,0.535 2.705,0 6.541,-4.273 14.727,-5.206 22.068,-2.513 7.34,2.691 12.965,8.689 15.158,16.165 2.193,7.477 0.697,15.547 -4.033,21.749 -2.473,-0.055 -4.942,0.224 -7.339,0.829 l 2.012,-2.135 c 3.084,-3.245 4.963,-7.44 5.328,-11.892 0.366,-4.452 -0.805,-8.895 -3.318,-12.596 -0.358,-0.562 -0.929,-0.954 -1.584,-1.089 -0.653,-0.137 -1.335,-0.002 -1.889,0.37 -0.553,0.373 -0.931,0.953 -1.048,1.608 -0.117,0.655 0.036,1.33 0.426,1.869 1.884,2.776 2.76,6.106 2.484,9.445 -0.277,3.337 -1.688,6.481 -4.002,8.912 l -2.695,2.859 c -0.426,0.457 -0.663,1.06 -0.66,1.684 v 2.709 c -5.033,2.338 -9.219,6.165 -11.99,10.959 -1.176,2.03 -1.735,4.356 -1.609,6.698 -10.408,-1.32 -20.982,-0.247 -30.911,3.135 l -0.003,-23.495 c 0,-0.625 -0.24,-1.228 -0.671,-1.684 l -2.696,-2.859 c -2.668,-2.808 -4.124,-6.548 -4.05,-10.415 0.073,-3.866 1.669,-7.548 4.443,-10.255 2.775,-2.705 6.505,-4.218 10.389,-4.212 2.871,-0.003 5.68,0.834 8.077,2.409 l 5.416,3.496 h -10e-4 c 0.819,0.528 1.872,0.528 2.692,0 l 5.439,-3.505 c 4.112,-2.656 9.274,-3.125 13.801,-1.253 1.258,0.53 2.709,-0.057 3.241,-1.31 0.531,-1.254 -0.059,-2.699 -1.318,-3.228 -6.045,-2.495 -12.935,-1.871 -18.43,1.667 l -4.08,2.628 -4.058,-2.617 c -3.199,-2.1 -6.948,-3.217 -10.78,-3.212 -5.177,-0.006 -10.15,2.012 -13.849,5.62 -3.698,3.608 -5.826,8.518 -5.926,13.672 -0.1,5.154 1.836,10.143 5.392,13.889 l 2.023,2.145 0.003,26.06 c 0.014,0.202 0.054,0.398 0.119,0.59 0.015,0.111 0.037,0.222 0.064,0.332 v 0.014 l 0.015,0.039 0.844,2.056 v 0.001 c -2.053,0.332 -4.061,0.894 -5.987,1.675 l -10e-4,-9.458 c 0,-1.36 -1.108,-2.462 -2.473,-2.462 -1.366,0 -2.473,1.103 -2.473,2.463 l 0.001,12.065 c -1.517,1.008 -2.93,2.164 -4.221,3.448 -0.965,0.962 -0.964,2.521 10e-4,3.481 l 0.398,0.397 c -2.331,3.16 -3.589,6.976 -3.594,10.896 -0.029,5.053 2.051,9.892 5.743,13.36 0.845,0.795 2.131,0.898 3.091,0.246 l 5.077,-3.448 c 0.581,-0.35 0.992,-0.923 1.137,-1.583 0.143,-0.661 0.009,-1.352 -0.374,-1.911 -0.383,-0.559 -0.979,-0.936 -1.65,-1.044 -0.67,-0.107 -1.356,0.064 -1.895,0.475 l -3.311,2.244 c -1.001,-1.278 -1.756,-2.73 -2.226,-4.281 1.07,-0.276 1.819,-1.235 1.827,-2.335 -0.007,-1.33 -1.071,-2.414 -2.407,-2.45 0.12,-2.36 0.861,-4.649 2.151,-6.633 l 11.465,11.414 v -10e-4 c 3.244,3.248 7.659,5.068 12.259,5.054 h 0.455 c 0.531,1.395 1.476,2.595 2.71,3.442 1.233,0.847 2.697,1.3 4.195,1.299 l 12.532,-0.002 c 1.501,0.011 2.97,-0.439 4.206,-1.286 1.236,-0.849 2.181,-2.056 2.705,-3.457 h 0.447 c 3.736,0.001 7.369,-1.21 10.352,-3.448 l 11.703,7.932 c 0.96,0.651 2.246,0.549 3.091,-0.247 3.689,-3.465 5.767,-8.301 5.74,-13.351 -0.005,-1.862 -0.292,-3.713 -0.852,-5.491 l 17.257,9.921 c 1.184,0.68 2.697,0.276 3.379,-0.903 0.684,-1.178 0.277,-2.684 -0.906,-3.364 l -21.516,-12.366 v 0.001 c 0.333,-0.897 0.116,-1.905 -0.559,-2.586 -4.116,-4.092 -9.421,-6.789 -15.162,-7.71 l 0.865,-2.111 c 0.252,-0.605 0.252,-1.287 0,-1.893 -0.259,-0.603 -0.748,-1.079 -1.36,-1.322 -3.849,-1.531 -7.828,-2.714 -11.889,-3.537 -0.369,-1.732 -0.087,-3.538 0.793,-5.077 3.715,-6.402 10.393,-10.537 17.803,-11.023 l -4.299,7.417 h -0.001 c -0.333,0.565 -0.425,1.24 -0.257,1.874 0.169,0.634 0.584,1.175 1.155,1.502 0.57,0.329 1.249,0.417 1.884,0.244 0.635,-0.171 1.176,-0.589 1.502,-1.159 l 5.533,-9.542 c 2.488,0.448 4.879,1.319 7.072,2.572 l 6.43,3.692 -6.181,10.665 v 0.001 c -0.683,1.175 -2.194,1.578 -3.375,0.899 -1.182,-0.68 -1.589,-2.186 -0.905,-3.363 l 2.823,-4.871 c 0.683,-1.179 0.277,-2.684 -0.907,-3.365 -1.183,-0.68 -2.696,-0.275 -3.379,0.903 l -2.821,4.873 c -1.325,2.288 -1.323,5.106 0.003,7.392 1.327,2.286 3.778,3.693 6.43,3.692 2.653,-0.001 5.102,-1.411 6.427,-3.698 l 6.18,-10.663 4.284,2.462 -6.181,10.662 c -1.324,2.288 -1.324,5.106 0.003,7.392 1.327,2.286 3.778,3.693 6.43,3.692 2.652,-10e-4 5.103,-1.41 6.427,-3.698 l 6.181,-10.663 12.859,7.386 -6.18,10.664 c -0.688,1.168 -2.193,1.565 -3.37,0.888 -1.178,-0.677 -1.585,-2.172 -0.914,-3.349 l 2.777,-4.788 v 0.001 c 0.671,-1.177 0.263,-2.673 -0.914,-3.349 -1.178,-0.677 -2.682,-0.281 -3.37,0.887 l -2.777,4.79 10e-4,-0.001 c -1.325,2.288 -1.324,5.105 0.003,7.392 1.328,2.286 3.779,3.694 6.43,3.692 2.652,-10e-4 5.102,-1.411 6.427,-3.699 l 6.109,-10.536 c 1.366,1.003 2.61,2.159 3.71,3.446 l -5.581,9.542 c -0.333,0.567 -0.426,1.241 -0.257,1.876 0.168,0.634 0.584,1.175 1.154,1.502 0.571,0.328 1.249,0.416 1.885,0.244 0.635,-0.172 1.176,-0.589 1.502,-1.16 l 4.299,-7.415 v 10e-4 c 3.285,6.634 3.031,14.463 -0.68,20.87 -0.983,1.699 -2.604,2.939 -4.504,3.448 -1.902,0.508 -3.929,0.243 -5.634,-0.738 l -13.849,-7.953 c -1.184,-0.681 -2.697,-0.276 -3.379,0.903 -0.683,1.177 -0.277,2.684 0.907,3.363 l 13.849,7.954 v 10e-4 c 2.839,1.632 6.214,2.074 9.381,1.229 3.167,-0.846 5.868,-2.91 7.507,-5.737 3.609,-6.222 4.589,-13.617 2.721,-20.559 -1.867,-6.94 -6.429,-12.858 -12.678,-16.448 z m -53.562,32.543 -8.999,-6.095 9.643,-9.605 c 1.299,2 2.044,4.308 2.157,6.687 -0.583,-0.583 -1.42,-0.836 -2.232,-0.677 -0.81,0.161 -1.486,0.713 -1.803,1.472 -0.317,0.761 -0.232,1.628 0.227,2.312 0.46,0.684 1.232,1.095 2.057,1.094 0.522,-0.011 1.027,-0.19 1.438,-0.512 -0.419,1.938 -1.268,3.758 -2.488,5.324 z m -0.722,-21.297 -13.6,13.545 h 0.002 c -1.925,1.903 -4.43,3.115 -7.123,3.448 l 5.273,-12.852 v 10e-4 c 0.589,0.572 1.426,0.816 2.232,0.649 0.805,-0.166 1.476,-0.721 1.787,-1.481 0.311,-0.758 0.223,-1.621 -0.237,-2.303 -0.459,-0.68 -1.228,-1.088 -2.051,-1.089 l 1.958,-4.772 c 4.303,0.473 8.382,2.157 11.76,4.854 z m -27.35,20.167 c -0.323,1.026 -1.277,1.724 -2.356,1.724 l -12.532,10e-4 c -1.15,-0.02 -2.143,-0.803 -2.429,-1.912 l -4.762,-11.6 c -0.516,-1.258 -1.96,-1.863 -3.225,-1.348 -1.264,0.513 -1.871,1.951 -1.354,3.211 l 2.775,6.749 c -2.694,-0.333 -5.2,-1.544 -7.128,-3.447 l -3.957,-3.939 c 0.786,-0.289 1.371,-0.957 1.551,-1.772 0.18,-0.816 -0.068,-1.665 -0.66,-2.257 -0.592,-0.59 -1.445,-0.84 -2.264,-0.663 -0.82,0.176 -1.492,0.756 -1.784,1.538 l -6.476,-6.443 c 3.372,-2.698 7.444,-4.385 11.741,-4.865 l 2.544,6.19 c 0.241,0.613 0.721,1.105 1.329,1.364 0.608,0.258 1.296,0.264 1.908,0.014 0.612,-0.25 1.099,-0.732 1.351,-1.342 0.251,-0.609 0.247,-1.294 -0.012,-1.9 l -4.366,-10.637 c 13.889,-4.948 29.072,-4.95 42.963,-0.005 z m 71.404,-37.29 -6.997,-4.022 -0.844,-13.425 8.952,-0.001 z m -8.326,-61.767 c 1.533,0.002 3.029,0.475 4.282,1.357 1.252,0.881 2.201,2.127 2.714,3.566 l -2.05,0.001 c -1.533,-0.002 -3.029,-0.476 -4.282,-1.357 -1.252,-0.882 -2.201,-2.128 -2.714,-3.567 z m -3.708,9.849 17.31,-0.002 c 1.365,0 2.473,1.102 2.473,2.462 0,1.36 -1.107,2.462 -2.473,2.463 l -17.31,0.002 c -1.365,0 -2.473,-1.102 -2.473,-2.462 0,-1.36 1.107,-2.463 2.473,-2.463 z m -6.181,9.85 29.674,-0.004 c 1.366,0 2.473,1.103 2.473,2.462 0,1.36 -1.107,2.463 -2.472,2.463 l -29.675,0.004 c -1.365,0 -2.473,-1.102 -2.473,-2.462 0,-1.36 1.107,-2.463 2.473,-2.463 z m -2.472,9.85 29.745,-0.004 c -1.106,0.432 -1.747,1.588 -1.525,2.751 0.221,1.161 1.241,2.003 2.429,2.003 1.189,0 2.209,-0.842 2.429,-2.004 0.222,-1.163 -0.42,-2.318 -1.526,-2.75 l 3.069,-10e-4 c 1.768,0 3.4,0.939 4.284,2.462 0.883,1.524 0.883,3.401 0,4.925 -0.883,1.523 -2.515,2.462 -4.283,2.463 l -34.62,0.004 c -1.767,0 -3.4,-0.938 -4.283,-2.462 -0.884,-1.523 -0.884,-3.401 -10e-4,-4.924 0.883,-1.524 2.516,-2.463 4.283,-2.463 z m 0.957,14.773 h 6.924 l 0.659,10.469 -6.757,-3.886 z m 2.016,27.171 c -0.684,1.179 -2.195,1.582 -3.378,0.902 -1.182,-0.68 -1.586,-2.186 -0.903,-3.363 l 6.181,-10.663 4.284,2.462 z"
             fill="#faebda"
             id="path329" /><path
             d="m 396.519,249.349 c 0,1.36 -1.107,2.462 -2.472,2.462 -1.366,0.001 -2.473,-1.102 -2.473,-2.462 -0.001,-1.359 1.106,-2.462 2.472,-2.462 1.366,-0.001 2.473,1.102 2.473,2.462 z"
             fill="#faebda"
             id="path331" /><path
             d="m 388.913,259.014 c 0,1.359 -1.107,2.462 -2.473,2.462 -1.365,0 -2.473,-1.102 -2.473,-2.462 0,-1.36 1.107,-2.462 2.473,-2.463 1.365,0 2.472,1.103 2.473,2.463 z"
             fill="#faebda"
             id="path333" /><path
             d="m 403.157,259.073 c 1.296,0.428 2.694,-0.27 3.125,-1.559 l 2.472,-7.388 c 0.43,-1.292 -0.271,-2.688 -1.569,-3.118 -1.297,-0.429 -2.699,0.27 -3.129,1.562 l -2.472,7.388 c -0.207,0.621 -0.157,1.298 0.138,1.883 0.294,0.583 0.811,1.027 1.435,1.232 z"
             fill="#faebda"
             id="path335" /><path
             d="m 835.624,223.661 c 0.332,0.333 0.767,0.499 1.203,0.499 0.435,0 0.871,-0.166 1.203,-0.499 0.666,-0.665 0.666,-1.74 0,-2.405 l -17.823,-17.823 c -0.665,-0.665 -1.741,-0.665 -2.405,0 -0.666,0.666 -0.666,1.741 0,2.406 z"
             fill="#faebda"
             id="path337" /><path
             d="m 841.546,213.181 c 0.332,0.332 0.768,0.498 1.203,0.498 0.436,0 0.871,-0.166 1.204,-0.498 0.665,-0.666 0.665,-1.741 0,-2.405 l -17.822,-17.823 c -0.666,-0.666 -1.741,-0.666 -2.405,0 -0.666,0.666 -0.666,1.741 0,2.405 z"
             fill="#faebda"
             id="path339" /><path
             d="m 853.228,207.528 c 0.435,0 0.871,-0.166 1.203,-0.498 0.666,-0.666 0.666,-1.741 0,-2.405 l -17.82,-17.823 c -0.666,-0.666 -1.741,-0.666 -2.406,0 -0.665,0.666 -0.665,1.741 0,2.405 l 17.821,17.823 c 0.333,0.332 0.766,0.498 1.202,0.498 z"
             fill="#faebda"
             id="path341" /><path
             d="m 831.18,231.337 c 3.472,3.472 8.031,5.207 12.592,5.207 4.056,0 8.108,-1.381 11.397,-4.127 l 9.258,10.188 -9.85,9.042 -1.443,-1.443 c -0.321,-0.32 -0.753,-0.498 -1.204,-0.498 -0.45,0 -0.884,0.179 -1.203,0.498 l -41.531,41.534 c -2.021,2.021 -3.135,4.709 -3.135,7.567 0,2.858 1.113,5.546 3.135,7.567 2.086,2.087 4.826,3.128 7.567,3.128 2.741,0 5.481,-1.043 7.567,-3.128 l 41.534,-41.534 c 0.666,-0.666 0.666,-1.741 0,-2.405 l -1.443,-1.443 8.33,-9.074 8.56,9.324 -1.192,1.192 c -0.666,0.666 -0.666,1.741 0,2.406 l 41.534,41.534 c 2.087,2.086 4.826,3.128 7.567,3.128 2.741,0 5.481,-1.043 7.567,-3.128 4.171,-4.173 4.171,-10.962 0,-15.133 l -41.534,-41.534 c -0.666,-0.665 -1.741,-0.665 -2.406,0 l -1.692,1.692 -9.726,-8.93 10.27,-11.185 c 4.567,3.071 9.863,4.617 15.166,4.617 6.966,0 13.931,-2.652 19.235,-7.955 10.154,-10.154 22.131,-38.764 11.21,-49.681 -4.908,-4.909 -13.904,-5.724 -25.329,-2.292 -9.278,2.787 -19.063,8.213 -24.351,13.501 -9.339,9.339 -10.445,23.83 -3.339,34.402 l -11.826,10.856 -10.37,-9.619 0.247,-0.247 c 3.365,-3.363 5.215,-7.834 5.215,-12.592 0,-4.759 -1.852,-9.228 -5.215,-12.592 l -25.686,-25.681 c -0.666,-0.665 -1.741,-0.665 -2.406,0 l -28.751,28.748 c -0.665,0.666 -0.665,1.741 0,2.405 z m -9.256,73.129 c -2.846,2.846 -7.478,2.845 -10.323,0 -1.38,-1.38 -2.138,-3.212 -2.138,-5.161 0,-1.95 0.758,-3.783 2.138,-5.162 l 33.752,-33.752 10.322,10.322 z m 36.157,-36.157 -10.322,-10.322 4.174,-4.175 10.323,10.322 z m 76.301,36.157 c -2.848,2.846 -7.478,2.845 -10.322,0 l -33.785,-33.785 10.322,-10.322 33.785,33.785 c 2.846,2.846 2.846,7.477 0,10.321 z m -40.332,-50.653 4.14,4.14 -10.322,10.322 -4.14,-4.14 z m -5.302,0.493 -5.027,5.027 -8.659,-9.431 4.066,-4.429 z m 45.504,-72.488 c 4.005,4.005 -8.036,25.673 -18.624,36.261 -4.512,4.512 -9.725,7.752 -14.675,9.118 -4.615,1.274 -8.38,0.749 -10.605,-1.476 -4.779,-4.782 -1.279,-16.358 7.643,-25.281 4.896,-4.896 13.139,-10.82 20.514,-14.747 6.382,-3.397 10.709,-4.593 13.261,-4.593 1.227,0.002 2.046,0.278 2.486,0.718 z m -10.56,44.22 c -6.994,6.995 -17.293,8.711 -25.916,5.161 6.276,-0.483 13.758,-4.213 20.257,-10.714 6.819,-6.819 17.764,-22.512 19.923,-32.91 2.061,11.669 -6.696,30.896 -14.263,38.46 z M 890.035,192.38 c 4.927,-4.927 14.139,-10.009 22.924,-12.648 4.304,-1.293 8.231,-1.934 11.627,-1.934 1.38,0 2.659,0.119 3.852,0.33 -10.398,2.186 -26.043,13.103 -32.85,19.91 -6.481,6.48 -10.234,13.943 -10.737,20.207 -3.521,-8.613 -1.794,-18.886 5.185,-25.865 z m -2.405,36.064 c 0.295,0.295 0.615,0.553 0.922,0.833 l 0.432,0.431 -11.189,12.187 c -0.008,0.008 -0.019,0.01 -0.027,0.019 -0.008,0.008 -0.011,0.02 -0.017,0.028 l -6.149,6.7 c 0,0 -10e-4,0 -10e-4,0.001 -10e-4,0.001 -10e-4,0.004 -0.003,0.005 l -9.581,10.435 -5.026,-5.027 29.373,-26.966 0.434,0.434 c 0.279,0.306 0.535,0.626 0.832,0.92 z m -17.681,9.094 -3.014,2.767 -9.299,-10.236 2.052,-2.051 z m -34.493,-59.43 24.48,24.48 c 2.722,2.722 4.218,6.339 4.218,10.186 0,3.848 -1.498,7.464 -4.218,10.185 l -5.972,5.972 c -5.617,5.615 -14.757,5.618 -20.373,0 l -24.479,-24.479 z"
             fill="#faebda"
             id="path343" /><path
             d="m 536.529,273.587 c -1.785,-0.632 -3.33,-1.944 -4.209,-3.786 l -12.617,-26.438 c -0.852,-1.784 -0.957,-3.791 -0.298,-5.655 0.66,-1.863 2.005,-3.358 3.788,-4.208 l 86.261,-41.163 c 3.682,-1.756 8.106,-0.192 9.862,3.49 l 12.617,26.44 c 1.757,3.681 0.191,8.106 -3.49,9.862 l -86.261,41.164 c -1.841,0.877 -3.867,0.925 -5.653,0.293 z m 77.183,-77.61 c -0.777,-0.275 -1.66,-0.254 -2.462,0.128 l -11.855,5.658 -74.405,35.508 c -0.776,0.37 -1.363,1.02 -1.65,1.832 -0.287,0.811 -0.24,1.686 0.13,2.462 l 12.617,26.44 c 0.765,1.603 2.692,2.285 4.294,1.52 l 86.261,-41.164 c 1.603,-0.765 2.285,-2.692 1.52,-4.294 l -12.617,-26.44 c -0.383,-0.802 -1.055,-1.373 -1.834,-1.649 z"
             fill="#faebda"
             id="path345" /><path
             d="m 537.823,254.409 c -0.504,-0.179 -0.939,-0.55 -1.188,-1.07 l -2.326,-4.874 c -1.822,-3.82 -0.198,-8.408 3.621,-10.231 l 41.229,-19.674 c 1.041,-0.496 2.287,-0.055 2.784,0.985 0.497,1.04 0.056,2.287 -0.985,2.784 l -41.231,19.677 c -1.74,0.83 -2.48,2.922 -1.65,4.662 l 2.327,4.875 c 0.497,1.042 0.056,2.287 -0.986,2.784 -0.52,0.248 -1.091,0.262 -1.595,0.083 z"
             fill="#faebda"
             id="path347" /><path
             d="m 589.277,217.684 c -0.504,-0.178 -0.94,-0.549 -1.188,-1.069 -0.498,-1.042 -0.057,-2.287 0.985,-2.784 l 6.61,-3.155 c 1.041,-0.496 2.288,-0.056 2.784,0.986 0.497,1.041 0.056,2.287 -0.986,2.784 l -6.609,3.154 c -0.52,0.248 -1.092,0.262 -1.597,0.084 z"
             fill="#faebda"
             id="path349" /><path
             d="m 535.895,188.466 c 1.553,0.549 2.367,2.255 1.817,3.807 -0.549,1.553 -2.254,2.367 -3.807,1.817 -1.553,-0.549 -2.367,-2.254 -1.817,-3.807 0.549,-1.553 2.253,-2.367 3.807,-1.817 z"
             fill="#faebda"
             id="path351" /><path
             d="m 522.134,218.406 c 1.552,0.549 2.366,2.254 1.817,3.807 -0.55,1.553 -2.255,2.367 -3.808,1.817 -1.553,-0.549 -2.367,-2.254 -1.817,-3.807 0.55,-1.554 2.254,-2.367 3.808,-1.817 z"
             fill="#faebda"
             id="path353" /><path
             d="m 612.945,256.873 c 1.553,0.549 2.367,2.254 1.817,3.807 -0.55,1.553 -2.255,2.367 -3.808,1.817 -1.552,-0.549 -2.366,-2.255 -1.816,-3.808 0.549,-1.553 2.253,-2.366 3.807,-1.816 z"
             fill="#faebda"
             id="path355" /><path
             d="m 587.035,178.085 c 1.553,0.549 2.366,2.255 1.817,3.807 -0.55,1.553 -2.255,2.367 -3.808,1.817 -1.552,-0.549 -2.366,-2.254 -1.817,-3.807 0.55,-1.553 2.254,-2.367 3.808,-1.817 z"
             fill="#faebda"
             id="path357" /><path
             d="m 625.562,217.356 c -0.504,-0.178 -0.939,-0.548 -1.188,-1.069 l -5.164,-10.821 c -0.496,-1.04 -0.055,-2.287 0.986,-2.784 l 5.233,-2.497 c 2.528,-1.207 2.728,-1.646 3.469,-3.28 0.397,-0.875 0.941,-2.074 1.941,-3.628 1.411,-2.189 3.404,-3.942 5.763,-5.067 3.513,-1.676 7.611,-1.817 11.227,-0.391 3.674,1.448 6.497,4.278 7.947,7.968 2.574,6.546 -0.132,14.046 -6.294,17.445 -2.516,1.388 -5.346,1.975 -8.184,1.694 -1.946,-0.192 -3.254,-0.56 -4.209,-0.828 -1.588,-0.446 -2.068,-0.58 -4.469,0.566 l -5.463,2.607 c -0.52,0.25 -1.091,0.264 -1.595,0.085 z m -1.684,-11.803 3.366,7.052 3.578,-1.708 c 3.634,-1.734 5.178,-1.439 7.396,-0.817 0.895,0.251 1.91,0.536 3.491,0.692 1.993,0.197 3.984,-0.216 5.756,-1.194 4.332,-2.389 6.235,-7.66 4.425,-12.26 -1.022,-2.601 -3.009,-4.593 -5.592,-5.611 -2.585,-1.018 -5.39,-0.922 -7.896,0.275 -1.66,0.792 -3.061,2.023 -4.05,3.56 -0.835,1.296 -1.268,2.25 -1.65,3.091 -1.003,2.21 -1.752,3.546 -5.473,5.322 z"
             fill="#faebda"
             id="path359" /><path
             d="m 504.276,277.986 c -3.099,-1.097 -5.818,-3.27 -7.539,-6.304 -1.957,-3.451 -2.382,-7.427 -1.196,-11.195 1.169,-3.716 3.855,-6.809 7.37,-8.487 2.363,-1.127 4.98,-1.574 7.569,-1.293 1.838,0.2 3.113,0.531 4.043,0.774 1.738,0.452 2.205,0.573 4.735,-0.635 l 5.237,-2.499 c 0.501,-0.239 1.074,-0.269 1.596,-0.084 0.522,0.185 0.949,0.569 1.188,1.069 l 5.166,10.827 c 0.239,0.501 0.269,1.074 0.084,1.597 -0.185,0.522 -0.568,0.949 -1.069,1.187 l -5.466,2.609 c -2.403,1.147 -2.6,1.605 -3.253,3.12 -0.393,0.912 -0.93,2.16 -2.006,3.794 -1.568,2.383 -3.804,4.215 -6.467,5.299 -3.29,1.338 -6.839,1.336 -9.992,0.221 z m 20.132,-24.972 -3.352,1.601 c -3.723,1.776 -5.234,1.517 -7.583,0.906 -0.895,-0.233 -1.909,-0.497 -3.444,-0.662 -1.819,-0.198 -3.658,0.116 -5.319,0.909 -2.509,1.198 -4.35,3.318 -5.185,5.971 -0.835,2.651 -0.534,5.449 0.844,7.882 2.44,4.303 7.738,6.142 12.324,4.276 1.877,-0.764 3.451,-2.053 4.552,-3.725 0.874,-1.329 1.291,-2.297 1.659,-3.152 0.912,-2.117 1.656,-3.503 5.291,-5.237 l 3.581,-1.709 z"
             fill="#faebda"
             id="path361" /><path
             d="m 558.107,201.705 c -3.412,-1.207 -5.204,-4.964 -3.997,-8.376 1.208,-3.412 4.965,-5.204 8.376,-3.997 3.412,1.208 5.205,4.965 3.997,8.376 -1.207,3.412 -4.964,5.205 -8.376,3.997 z m 2.986,-8.436 c -1.24,-0.439 -2.607,0.213 -3.046,1.453 -0.439,1.241 0.213,2.607 1.454,3.046 1.24,0.439 2.607,-0.213 3.046,-1.453 0.439,-1.24 -0.214,-2.607 -1.454,-3.046 z"
             fill="#faebda"
             id="path363" /><path
             d="m 629.294,255.379 c -3.412,-1.207 -5.205,-4.964 -3.997,-8.376 1.207,-3.412 4.964,-5.204 8.376,-3.997 3.412,1.208 5.204,4.965 3.997,8.376 -1.208,3.412 -4.965,5.205 -8.376,3.997 z m 2.986,-8.436 c -1.241,-0.439 -2.607,0.213 -3.046,1.454 -0.439,1.24 0.213,2.606 1.453,3.045 1.241,0.439 2.607,-0.213 3.046,-1.453 0.439,-1.24 -0.213,-2.607 -1.453,-3.046 z"
             fill="#faebda"
             id="path365" /></g></g></g></g></svg>
